%TF.GenerationSoftware,KiCad,Pcbnew,(5.1.9)-1*%
%TF.CreationDate,2021-05-16T17:52:49+02:00*%
%TF.ProjectId,SojournerST,536f6a6f-7572-46e6-9572-53542e6b6963,rev?*%
%TF.SameCoordinates,Original*%
%TF.FileFunction,Copper,L1,Top*%
%TF.FilePolarity,Positive*%
%FSLAX46Y46*%
G04 Gerber Fmt 4.6, Leading zero omitted, Abs format (unit mm)*
G04 Created by KiCad (PCBNEW (5.1.9)-1) date 2021-05-16 17:52:49*
%MOMM*%
%LPD*%
G01*
G04 APERTURE LIST*
%TA.AperFunction,ComponentPad*%
%ADD10O,1.700000X1.700000*%
%TD*%
%TA.AperFunction,ComponentPad*%
%ADD11R,1.700000X1.700000*%
%TD*%
%TA.AperFunction,SMDPad,CuDef*%
%ADD12R,1.400000X1.600000*%
%TD*%
%TA.AperFunction,ComponentPad*%
%ADD13C,1.500000*%
%TD*%
%TA.AperFunction,SMDPad,CuDef*%
%ADD14R,1.060000X0.650000*%
%TD*%
%TA.AperFunction,SMDPad,CuDef*%
%ADD15R,1.750000X0.450000*%
%TD*%
%TA.AperFunction,SMDPad,CuDef*%
%ADD16R,0.800000X0.900000*%
%TD*%
%TA.AperFunction,ComponentPad*%
%ADD17O,1.550000X0.890000*%
%TD*%
%TA.AperFunction,SMDPad,CuDef*%
%ADD18R,1.550000X1.200000*%
%TD*%
%TA.AperFunction,SMDPad,CuDef*%
%ADD19R,1.550000X1.500000*%
%TD*%
%TA.AperFunction,ComponentPad*%
%ADD20O,0.950000X1.250000*%
%TD*%
%TA.AperFunction,SMDPad,CuDef*%
%ADD21R,1.350000X0.400000*%
%TD*%
%TA.AperFunction,ConnectorPad*%
%ADD22C,3.800000*%
%TD*%
%TA.AperFunction,ComponentPad*%
%ADD23C,2.600000*%
%TD*%
%TA.AperFunction,SMDPad,CuDef*%
%ADD24R,2.500000X1.800000*%
%TD*%
%TA.AperFunction,ViaPad*%
%ADD25C,0.800000*%
%TD*%
%TA.AperFunction,Conductor*%
%ADD26C,0.200000*%
%TD*%
%TA.AperFunction,Conductor*%
%ADD27C,0.508000*%
%TD*%
%TA.AperFunction,Conductor*%
%ADD28C,0.254000*%
%TD*%
%TA.AperFunction,Conductor*%
%ADD29C,0.175006*%
%TD*%
%TA.AperFunction,Conductor*%
%ADD30C,1.270000*%
%TD*%
%TA.AperFunction,Conductor*%
%ADD31C,0.175260*%
%TD*%
%TA.AperFunction,Conductor*%
%ADD32C,0.100000*%
%TD*%
G04 APERTURE END LIST*
D10*
%TO.P,J3,3*%
%TO.N,GND*%
X139700000Y-62230000D03*
%TO.P,J3,2*%
%TO.N,UART_RX*%
X137160000Y-62230000D03*
D11*
%TO.P,J3,1*%
%TO.N,UART_TX*%
X134620000Y-62230000D03*
%TD*%
D12*
%TO.P,SW1,3*%
%TO.N,GND*%
X117130000Y-68390000D03*
%TO.P,SW1,4*%
X117130000Y-76390000D03*
%TO.P,SW1,1*%
%TO.N,NRST*%
X121630000Y-68390000D03*
%TO.P,SW1,2*%
X121630000Y-76390000D03*
%TD*%
%TO.P,R5,2*%
%TO.N,Net-(D3-Pad1)*%
%TA.AperFunction,SMDPad,CuDef*%
G36*
G01*
X131339000Y-62630000D02*
X130789000Y-62630000D01*
G75*
G02*
X130589000Y-62430000I0J200000D01*
G01*
X130589000Y-62030000D01*
G75*
G02*
X130789000Y-61830000I200000J0D01*
G01*
X131339000Y-61830000D01*
G75*
G02*
X131539000Y-62030000I0J-200000D01*
G01*
X131539000Y-62430000D01*
G75*
G02*
X131339000Y-62630000I-200000J0D01*
G01*
G37*
%TD.AperFunction*%
%TO.P,R5,1*%
%TO.N,GND*%
%TA.AperFunction,SMDPad,CuDef*%
G36*
G01*
X131339000Y-64280000D02*
X130789000Y-64280000D01*
G75*
G02*
X130589000Y-64080000I0J200000D01*
G01*
X130589000Y-63680000D01*
G75*
G02*
X130789000Y-63480000I200000J0D01*
G01*
X131339000Y-63480000D01*
G75*
G02*
X131539000Y-63680000I0J-200000D01*
G01*
X131539000Y-64080000D01*
G75*
G02*
X131339000Y-64280000I-200000J0D01*
G01*
G37*
%TD.AperFunction*%
%TD*%
%TO.P,R3,2*%
%TO.N,SPI_CS*%
%TA.AperFunction,SMDPad,CuDef*%
G36*
G01*
X126155000Y-82190000D02*
X126155000Y-81640000D01*
G75*
G02*
X126355000Y-81440000I200000J0D01*
G01*
X126755000Y-81440000D01*
G75*
G02*
X126955000Y-81640000I0J-200000D01*
G01*
X126955000Y-82190000D01*
G75*
G02*
X126755000Y-82390000I-200000J0D01*
G01*
X126355000Y-82390000D01*
G75*
G02*
X126155000Y-82190000I0J200000D01*
G01*
G37*
%TD.AperFunction*%
%TO.P,R3,1*%
%TO.N,+3V3*%
%TA.AperFunction,SMDPad,CuDef*%
G36*
G01*
X124505000Y-82190000D02*
X124505000Y-81640000D01*
G75*
G02*
X124705000Y-81440000I200000J0D01*
G01*
X125105000Y-81440000D01*
G75*
G02*
X125305000Y-81640000I0J-200000D01*
G01*
X125305000Y-82190000D01*
G75*
G02*
X125105000Y-82390000I-200000J0D01*
G01*
X124705000Y-82390000D01*
G75*
G02*
X124505000Y-82190000I0J200000D01*
G01*
G37*
%TD.AperFunction*%
%TD*%
D10*
%TO.P,J7,2*%
%TO.N,GND*%
X121920000Y-82550000D03*
D11*
%TO.P,J7,1*%
%TO.N,VM*%
X119380000Y-82550000D03*
%TD*%
D10*
%TO.P,J2,7*%
%TO.N,GND*%
X144780000Y-82550000D03*
%TO.P,J2,6*%
%TO.N,+3V3*%
X142240000Y-82550000D03*
%TO.P,J2,5*%
%TO.N,BOOT0*%
X139700000Y-82550000D03*
%TO.P,J2,4*%
%TO.N,SPI_MOSI*%
X137160000Y-82550000D03*
%TO.P,J2,3*%
%TO.N,SPI_MISO*%
X134620000Y-82550000D03*
%TO.P,J2,2*%
%TO.N,SPI_CLK*%
X132080000Y-82550000D03*
D11*
%TO.P,J2,1*%
%TO.N,SPI_CS*%
X129540000Y-82550000D03*
%TD*%
%TO.P,D3,2*%
%TO.N,UART_TX*%
%TA.AperFunction,SMDPad,CuDef*%
G36*
G01*
X132331750Y-63405000D02*
X132844250Y-63405000D01*
G75*
G02*
X133063000Y-63623750I0J-218750D01*
G01*
X133063000Y-64061250D01*
G75*
G02*
X132844250Y-64280000I-218750J0D01*
G01*
X132331750Y-64280000D01*
G75*
G02*
X132113000Y-64061250I0J218750D01*
G01*
X132113000Y-63623750D01*
G75*
G02*
X132331750Y-63405000I218750J0D01*
G01*
G37*
%TD.AperFunction*%
%TO.P,D3,1*%
%TO.N,Net-(D3-Pad1)*%
%TA.AperFunction,SMDPad,CuDef*%
G36*
G01*
X132331750Y-61830000D02*
X132844250Y-61830000D01*
G75*
G02*
X133063000Y-62048750I0J-218750D01*
G01*
X133063000Y-62486250D01*
G75*
G02*
X132844250Y-62705000I-218750J0D01*
G01*
X132331750Y-62705000D01*
G75*
G02*
X132113000Y-62486250I0J218750D01*
G01*
X132113000Y-62048750D01*
G75*
G02*
X132331750Y-61830000I218750J0D01*
G01*
G37*
%TD.AperFunction*%
%TD*%
D13*
%TO.P,Y1,2*%
%TO.N,HSE_OUT*%
X122120000Y-63500000D03*
%TO.P,Y1,1*%
%TO.N,HSE_IN*%
X127000000Y-63500000D03*
%TD*%
D14*
%TO.P,U4,5*%
%TO.N,VUSB*%
X142580000Y-68260000D03*
%TO.P,U4,6*%
%TO.N,USB_D-*%
X142580000Y-69210000D03*
%TO.P,U4,4*%
%TO.N,USB_D+*%
X142580000Y-67310000D03*
%TO.P,U4,3*%
%TO.N,USB_CON_D+*%
X144780000Y-67310000D03*
%TO.P,U4,2*%
%TO.N,GND*%
X144780000Y-68260000D03*
%TO.P,U4,1*%
%TO.N,USB_CON_D-*%
X144780000Y-69210000D03*
%TD*%
D15*
%TO.P,U3,24*%
%TO.N,VM*%
X109010000Y-68815000D03*
%TO.P,U3,23*%
%TO.N,M1_PWM*%
X109010000Y-69465000D03*
%TO.P,U3,22*%
%TO.N,M1_IN2*%
X109010000Y-70115000D03*
%TO.P,U3,21*%
%TO.N,M1_IN1*%
X109010000Y-70765000D03*
%TO.P,U3,20*%
%TO.N,+3V3*%
X109010000Y-71415000D03*
%TO.P,U3,19*%
%TO.N,Net-(R2-Pad2)*%
X109010000Y-72065000D03*
%TO.P,U3,18*%
%TO.N,GND*%
X109010000Y-72715000D03*
%TO.P,U3,17*%
%TO.N,M2_IN1*%
X109010000Y-73365000D03*
%TO.P,U3,16*%
%TO.N,M2_IN2*%
X109010000Y-74015000D03*
%TO.P,U3,15*%
%TO.N,M2_PWM*%
X109010000Y-74665000D03*
%TO.P,U3,14*%
%TO.N,VM*%
X109010000Y-75315000D03*
%TO.P,U3,13*%
X109010000Y-75965000D03*
%TO.P,U3,12*%
%TO.N,M2_OUT1*%
X101810000Y-75965000D03*
%TO.P,U3,11*%
X101810000Y-75315000D03*
%TO.P,U3,10*%
%TO.N,GND*%
X101810000Y-74665000D03*
%TO.P,U3,9*%
X101810000Y-74015000D03*
%TO.P,U3,8*%
%TO.N,M2_OUT2*%
X101810000Y-73365000D03*
%TO.P,U3,7*%
X101810000Y-72715000D03*
%TO.P,U3,6*%
%TO.N,M1_OUT2*%
X101810000Y-72065000D03*
%TO.P,U3,5*%
X101810000Y-71415000D03*
%TO.P,U3,4*%
%TO.N,GND*%
X101810000Y-70765000D03*
%TO.P,U3,3*%
X101810000Y-70115000D03*
%TO.P,U3,2*%
%TO.N,M1_OUT1*%
X101810000Y-69465000D03*
%TO.P,U3,1*%
X101810000Y-68815000D03*
%TD*%
D16*
%TO.P,U2,3*%
%TO.N,VUSB*%
X146050000Y-75930000D03*
%TO.P,U2,2*%
%TO.N,+3V3*%
X145100000Y-73930000D03*
%TO.P,U2,1*%
%TO.N,GND*%
X147000000Y-73930000D03*
%TD*%
%TO.P,U1,32*%
%TO.N,GND*%
%TA.AperFunction,SMDPad,CuDef*%
G36*
G01*
X127760000Y-68840000D02*
X127760000Y-67590000D01*
G75*
G02*
X127885000Y-67465000I125000J0D01*
G01*
X128135000Y-67465000D01*
G75*
G02*
X128260000Y-67590000I0J-125000D01*
G01*
X128260000Y-68840000D01*
G75*
G02*
X128135000Y-68965000I-125000J0D01*
G01*
X127885000Y-68965000D01*
G75*
G02*
X127760000Y-68840000I0J125000D01*
G01*
G37*
%TD.AperFunction*%
%TO.P,U1,31*%
%TO.N,BOOT0*%
%TA.AperFunction,SMDPad,CuDef*%
G36*
G01*
X128560000Y-68840000D02*
X128560000Y-67590000D01*
G75*
G02*
X128685000Y-67465000I125000J0D01*
G01*
X128935000Y-67465000D01*
G75*
G02*
X129060000Y-67590000I0J-125000D01*
G01*
X129060000Y-68840000D01*
G75*
G02*
X128935000Y-68965000I-125000J0D01*
G01*
X128685000Y-68965000D01*
G75*
G02*
X128560000Y-68840000I0J125000D01*
G01*
G37*
%TD.AperFunction*%
%TO.P,U1,30*%
%TO.N,M1_ENCA*%
%TA.AperFunction,SMDPad,CuDef*%
G36*
G01*
X129360000Y-68840000D02*
X129360000Y-67590000D01*
G75*
G02*
X129485000Y-67465000I125000J0D01*
G01*
X129735000Y-67465000D01*
G75*
G02*
X129860000Y-67590000I0J-125000D01*
G01*
X129860000Y-68840000D01*
G75*
G02*
X129735000Y-68965000I-125000J0D01*
G01*
X129485000Y-68965000D01*
G75*
G02*
X129360000Y-68840000I0J125000D01*
G01*
G37*
%TD.AperFunction*%
%TO.P,U1,29*%
%TO.N,M1_ENCB*%
%TA.AperFunction,SMDPad,CuDef*%
G36*
G01*
X130160000Y-68840000D02*
X130160000Y-67590000D01*
G75*
G02*
X130285000Y-67465000I125000J0D01*
G01*
X130535000Y-67465000D01*
G75*
G02*
X130660000Y-67590000I0J-125000D01*
G01*
X130660000Y-68840000D01*
G75*
G02*
X130535000Y-68965000I-125000J0D01*
G01*
X130285000Y-68965000D01*
G75*
G02*
X130160000Y-68840000I0J125000D01*
G01*
G37*
%TD.AperFunction*%
%TO.P,U1,28*%
%TO.N,M2_ENCA*%
%TA.AperFunction,SMDPad,CuDef*%
G36*
G01*
X130960000Y-68840000D02*
X130960000Y-67590000D01*
G75*
G02*
X131085000Y-67465000I125000J0D01*
G01*
X131335000Y-67465000D01*
G75*
G02*
X131460000Y-67590000I0J-125000D01*
G01*
X131460000Y-68840000D01*
G75*
G02*
X131335000Y-68965000I-125000J0D01*
G01*
X131085000Y-68965000D01*
G75*
G02*
X130960000Y-68840000I0J125000D01*
G01*
G37*
%TD.AperFunction*%
%TO.P,U1,27*%
%TO.N,M2_ENCB*%
%TA.AperFunction,SMDPad,CuDef*%
G36*
G01*
X131760000Y-68840000D02*
X131760000Y-67590000D01*
G75*
G02*
X131885000Y-67465000I125000J0D01*
G01*
X132135000Y-67465000D01*
G75*
G02*
X132260000Y-67590000I0J-125000D01*
G01*
X132260000Y-68840000D01*
G75*
G02*
X132135000Y-68965000I-125000J0D01*
G01*
X131885000Y-68965000D01*
G75*
G02*
X131760000Y-68840000I0J125000D01*
G01*
G37*
%TD.AperFunction*%
%TO.P,U1,26*%
%TO.N,SWO*%
%TA.AperFunction,SMDPad,CuDef*%
G36*
G01*
X132560000Y-68840000D02*
X132560000Y-67590000D01*
G75*
G02*
X132685000Y-67465000I125000J0D01*
G01*
X132935000Y-67465000D01*
G75*
G02*
X133060000Y-67590000I0J-125000D01*
G01*
X133060000Y-68840000D01*
G75*
G02*
X132935000Y-68965000I-125000J0D01*
G01*
X132685000Y-68965000D01*
G75*
G02*
X132560000Y-68840000I0J125000D01*
G01*
G37*
%TD.AperFunction*%
%TO.P,U1,25*%
%TO.N,M1_IN2*%
%TA.AperFunction,SMDPad,CuDef*%
G36*
G01*
X133360000Y-68840000D02*
X133360000Y-67590000D01*
G75*
G02*
X133485000Y-67465000I125000J0D01*
G01*
X133735000Y-67465000D01*
G75*
G02*
X133860000Y-67590000I0J-125000D01*
G01*
X133860000Y-68840000D01*
G75*
G02*
X133735000Y-68965000I-125000J0D01*
G01*
X133485000Y-68965000D01*
G75*
G02*
X133360000Y-68840000I0J125000D01*
G01*
G37*
%TD.AperFunction*%
%TO.P,U1,24*%
%TO.N,SWCLK*%
%TA.AperFunction,SMDPad,CuDef*%
G36*
G01*
X134235000Y-69715000D02*
X134235000Y-69465000D01*
G75*
G02*
X134360000Y-69340000I125000J0D01*
G01*
X135610000Y-69340000D01*
G75*
G02*
X135735000Y-69465000I0J-125000D01*
G01*
X135735000Y-69715000D01*
G75*
G02*
X135610000Y-69840000I-125000J0D01*
G01*
X134360000Y-69840000D01*
G75*
G02*
X134235000Y-69715000I0J125000D01*
G01*
G37*
%TD.AperFunction*%
%TO.P,U1,23*%
%TO.N,SWDIO*%
%TA.AperFunction,SMDPad,CuDef*%
G36*
G01*
X134235000Y-70515000D02*
X134235000Y-70265000D01*
G75*
G02*
X134360000Y-70140000I125000J0D01*
G01*
X135610000Y-70140000D01*
G75*
G02*
X135735000Y-70265000I0J-125000D01*
G01*
X135735000Y-70515000D01*
G75*
G02*
X135610000Y-70640000I-125000J0D01*
G01*
X134360000Y-70640000D01*
G75*
G02*
X134235000Y-70515000I0J125000D01*
G01*
G37*
%TD.AperFunction*%
%TO.P,U1,22*%
%TO.N,USB_D+*%
%TA.AperFunction,SMDPad,CuDef*%
G36*
G01*
X134235000Y-71315000D02*
X134235000Y-71065000D01*
G75*
G02*
X134360000Y-70940000I125000J0D01*
G01*
X135610000Y-70940000D01*
G75*
G02*
X135735000Y-71065000I0J-125000D01*
G01*
X135735000Y-71315000D01*
G75*
G02*
X135610000Y-71440000I-125000J0D01*
G01*
X134360000Y-71440000D01*
G75*
G02*
X134235000Y-71315000I0J125000D01*
G01*
G37*
%TD.AperFunction*%
%TO.P,U1,21*%
%TO.N,USB_D-*%
%TA.AperFunction,SMDPad,CuDef*%
G36*
G01*
X134235000Y-72115000D02*
X134235000Y-71865000D01*
G75*
G02*
X134360000Y-71740000I125000J0D01*
G01*
X135610000Y-71740000D01*
G75*
G02*
X135735000Y-71865000I0J-125000D01*
G01*
X135735000Y-72115000D01*
G75*
G02*
X135610000Y-72240000I-125000J0D01*
G01*
X134360000Y-72240000D01*
G75*
G02*
X134235000Y-72115000I0J125000D01*
G01*
G37*
%TD.AperFunction*%
%TO.P,U1,20*%
%TO.N,UART_TX*%
%TA.AperFunction,SMDPad,CuDef*%
G36*
G01*
X134235000Y-72915000D02*
X134235000Y-72665000D01*
G75*
G02*
X134360000Y-72540000I125000J0D01*
G01*
X135610000Y-72540000D01*
G75*
G02*
X135735000Y-72665000I0J-125000D01*
G01*
X135735000Y-72915000D01*
G75*
G02*
X135610000Y-73040000I-125000J0D01*
G01*
X134360000Y-73040000D01*
G75*
G02*
X134235000Y-72915000I0J125000D01*
G01*
G37*
%TD.AperFunction*%
%TO.P,U1,19*%
%TO.N,UART_RX*%
%TA.AperFunction,SMDPad,CuDef*%
G36*
G01*
X134235000Y-73715000D02*
X134235000Y-73465000D01*
G75*
G02*
X134360000Y-73340000I125000J0D01*
G01*
X135610000Y-73340000D01*
G75*
G02*
X135735000Y-73465000I0J-125000D01*
G01*
X135735000Y-73715000D01*
G75*
G02*
X135610000Y-73840000I-125000J0D01*
G01*
X134360000Y-73840000D01*
G75*
G02*
X134235000Y-73715000I0J125000D01*
G01*
G37*
%TD.AperFunction*%
%TO.P,U1,18*%
%TO.N,M1_IN1*%
%TA.AperFunction,SMDPad,CuDef*%
G36*
G01*
X134235000Y-74515000D02*
X134235000Y-74265000D01*
G75*
G02*
X134360000Y-74140000I125000J0D01*
G01*
X135610000Y-74140000D01*
G75*
G02*
X135735000Y-74265000I0J-125000D01*
G01*
X135735000Y-74515000D01*
G75*
G02*
X135610000Y-74640000I-125000J0D01*
G01*
X134360000Y-74640000D01*
G75*
G02*
X134235000Y-74515000I0J125000D01*
G01*
G37*
%TD.AperFunction*%
%TO.P,U1,17*%
%TO.N,+3V3*%
%TA.AperFunction,SMDPad,CuDef*%
G36*
G01*
X134235000Y-75315000D02*
X134235000Y-75065000D01*
G75*
G02*
X134360000Y-74940000I125000J0D01*
G01*
X135610000Y-74940000D01*
G75*
G02*
X135735000Y-75065000I0J-125000D01*
G01*
X135735000Y-75315000D01*
G75*
G02*
X135610000Y-75440000I-125000J0D01*
G01*
X134360000Y-75440000D01*
G75*
G02*
X134235000Y-75315000I0J125000D01*
G01*
G37*
%TD.AperFunction*%
%TO.P,U1,16*%
%TO.N,GND*%
%TA.AperFunction,SMDPad,CuDef*%
G36*
G01*
X133360000Y-77190000D02*
X133360000Y-75940000D01*
G75*
G02*
X133485000Y-75815000I125000J0D01*
G01*
X133735000Y-75815000D01*
G75*
G02*
X133860000Y-75940000I0J-125000D01*
G01*
X133860000Y-77190000D01*
G75*
G02*
X133735000Y-77315000I-125000J0D01*
G01*
X133485000Y-77315000D01*
G75*
G02*
X133360000Y-77190000I0J125000D01*
G01*
G37*
%TD.AperFunction*%
%TO.P,U1,15*%
%TO.N,+3V3*%
%TA.AperFunction,SMDPad,CuDef*%
G36*
G01*
X132560000Y-77190000D02*
X132560000Y-75940000D01*
G75*
G02*
X132685000Y-75815000I125000J0D01*
G01*
X132935000Y-75815000D01*
G75*
G02*
X133060000Y-75940000I0J-125000D01*
G01*
X133060000Y-77190000D01*
G75*
G02*
X132935000Y-77315000I-125000J0D01*
G01*
X132685000Y-77315000D01*
G75*
G02*
X132560000Y-77190000I0J125000D01*
G01*
G37*
%TD.AperFunction*%
%TO.P,U1,14*%
%TO.N,GND*%
%TA.AperFunction,SMDPad,CuDef*%
G36*
G01*
X131760000Y-77190000D02*
X131760000Y-75940000D01*
G75*
G02*
X131885000Y-75815000I125000J0D01*
G01*
X132135000Y-75815000D01*
G75*
G02*
X132260000Y-75940000I0J-125000D01*
G01*
X132260000Y-77190000D01*
G75*
G02*
X132135000Y-77315000I-125000J0D01*
G01*
X131885000Y-77315000D01*
G75*
G02*
X131760000Y-77190000I0J125000D01*
G01*
G37*
%TD.AperFunction*%
%TO.P,U1,13*%
%TO.N,LED_STATUS*%
%TA.AperFunction,SMDPad,CuDef*%
G36*
G01*
X130960000Y-77190000D02*
X130960000Y-75940000D01*
G75*
G02*
X131085000Y-75815000I125000J0D01*
G01*
X131335000Y-75815000D01*
G75*
G02*
X131460000Y-75940000I0J-125000D01*
G01*
X131460000Y-77190000D01*
G75*
G02*
X131335000Y-77315000I-125000J0D01*
G01*
X131085000Y-77315000D01*
G75*
G02*
X130960000Y-77190000I0J125000D01*
G01*
G37*
%TD.AperFunction*%
%TO.P,U1,12*%
%TO.N,SPI_MOSI*%
%TA.AperFunction,SMDPad,CuDef*%
G36*
G01*
X130160000Y-77190000D02*
X130160000Y-75940000D01*
G75*
G02*
X130285000Y-75815000I125000J0D01*
G01*
X130535000Y-75815000D01*
G75*
G02*
X130660000Y-75940000I0J-125000D01*
G01*
X130660000Y-77190000D01*
G75*
G02*
X130535000Y-77315000I-125000J0D01*
G01*
X130285000Y-77315000D01*
G75*
G02*
X130160000Y-77190000I0J125000D01*
G01*
G37*
%TD.AperFunction*%
%TO.P,U1,11*%
%TO.N,SPI_MISO*%
%TA.AperFunction,SMDPad,CuDef*%
G36*
G01*
X129360000Y-77190000D02*
X129360000Y-75940000D01*
G75*
G02*
X129485000Y-75815000I125000J0D01*
G01*
X129735000Y-75815000D01*
G75*
G02*
X129860000Y-75940000I0J-125000D01*
G01*
X129860000Y-77190000D01*
G75*
G02*
X129735000Y-77315000I-125000J0D01*
G01*
X129485000Y-77315000D01*
G75*
G02*
X129360000Y-77190000I0J125000D01*
G01*
G37*
%TD.AperFunction*%
%TO.P,U1,10*%
%TO.N,SPI_CLK*%
%TA.AperFunction,SMDPad,CuDef*%
G36*
G01*
X128560000Y-77190000D02*
X128560000Y-75940000D01*
G75*
G02*
X128685000Y-75815000I125000J0D01*
G01*
X128935000Y-75815000D01*
G75*
G02*
X129060000Y-75940000I0J-125000D01*
G01*
X129060000Y-77190000D01*
G75*
G02*
X128935000Y-77315000I-125000J0D01*
G01*
X128685000Y-77315000D01*
G75*
G02*
X128560000Y-77190000I0J125000D01*
G01*
G37*
%TD.AperFunction*%
%TO.P,U1,9*%
%TO.N,SPI_CS*%
%TA.AperFunction,SMDPad,CuDef*%
G36*
G01*
X127760000Y-77190000D02*
X127760000Y-75940000D01*
G75*
G02*
X127885000Y-75815000I125000J0D01*
G01*
X128135000Y-75815000D01*
G75*
G02*
X128260000Y-75940000I0J-125000D01*
G01*
X128260000Y-77190000D01*
G75*
G02*
X128135000Y-77315000I-125000J0D01*
G01*
X127885000Y-77315000D01*
G75*
G02*
X127760000Y-77190000I0J125000D01*
G01*
G37*
%TD.AperFunction*%
%TO.P,U1,8*%
%TO.N,M2_PWM*%
%TA.AperFunction,SMDPad,CuDef*%
G36*
G01*
X125885000Y-75315000D02*
X125885000Y-75065000D01*
G75*
G02*
X126010000Y-74940000I125000J0D01*
G01*
X127260000Y-74940000D01*
G75*
G02*
X127385000Y-75065000I0J-125000D01*
G01*
X127385000Y-75315000D01*
G75*
G02*
X127260000Y-75440000I-125000J0D01*
G01*
X126010000Y-75440000D01*
G75*
G02*
X125885000Y-75315000I0J125000D01*
G01*
G37*
%TD.AperFunction*%
%TO.P,U1,7*%
%TO.N,M2_IN2*%
%TA.AperFunction,SMDPad,CuDef*%
G36*
G01*
X125885000Y-74515000D02*
X125885000Y-74265000D01*
G75*
G02*
X126010000Y-74140000I125000J0D01*
G01*
X127260000Y-74140000D01*
G75*
G02*
X127385000Y-74265000I0J-125000D01*
G01*
X127385000Y-74515000D01*
G75*
G02*
X127260000Y-74640000I-125000J0D01*
G01*
X126010000Y-74640000D01*
G75*
G02*
X125885000Y-74515000I0J125000D01*
G01*
G37*
%TD.AperFunction*%
%TO.P,U1,6*%
%TO.N,M2_IN1*%
%TA.AperFunction,SMDPad,CuDef*%
G36*
G01*
X125885000Y-73715000D02*
X125885000Y-73465000D01*
G75*
G02*
X126010000Y-73340000I125000J0D01*
G01*
X127260000Y-73340000D01*
G75*
G02*
X127385000Y-73465000I0J-125000D01*
G01*
X127385000Y-73715000D01*
G75*
G02*
X127260000Y-73840000I-125000J0D01*
G01*
X126010000Y-73840000D01*
G75*
G02*
X125885000Y-73715000I0J125000D01*
G01*
G37*
%TD.AperFunction*%
%TO.P,U1,5*%
%TO.N,M1_PWM*%
%TA.AperFunction,SMDPad,CuDef*%
G36*
G01*
X125885000Y-72915000D02*
X125885000Y-72665000D01*
G75*
G02*
X126010000Y-72540000I125000J0D01*
G01*
X127260000Y-72540000D01*
G75*
G02*
X127385000Y-72665000I0J-125000D01*
G01*
X127385000Y-72915000D01*
G75*
G02*
X127260000Y-73040000I-125000J0D01*
G01*
X126010000Y-73040000D01*
G75*
G02*
X125885000Y-72915000I0J125000D01*
G01*
G37*
%TD.AperFunction*%
%TO.P,U1,4*%
%TO.N,NRST*%
%TA.AperFunction,SMDPad,CuDef*%
G36*
G01*
X125885000Y-72115000D02*
X125885000Y-71865000D01*
G75*
G02*
X126010000Y-71740000I125000J0D01*
G01*
X127260000Y-71740000D01*
G75*
G02*
X127385000Y-71865000I0J-125000D01*
G01*
X127385000Y-72115000D01*
G75*
G02*
X127260000Y-72240000I-125000J0D01*
G01*
X126010000Y-72240000D01*
G75*
G02*
X125885000Y-72115000I0J125000D01*
G01*
G37*
%TD.AperFunction*%
%TO.P,U1,3*%
%TO.N,HSE_OUT*%
%TA.AperFunction,SMDPad,CuDef*%
G36*
G01*
X125885000Y-71315000D02*
X125885000Y-71065000D01*
G75*
G02*
X126010000Y-70940000I125000J0D01*
G01*
X127260000Y-70940000D01*
G75*
G02*
X127385000Y-71065000I0J-125000D01*
G01*
X127385000Y-71315000D01*
G75*
G02*
X127260000Y-71440000I-125000J0D01*
G01*
X126010000Y-71440000D01*
G75*
G02*
X125885000Y-71315000I0J125000D01*
G01*
G37*
%TD.AperFunction*%
%TO.P,U1,2*%
%TO.N,HSE_IN*%
%TA.AperFunction,SMDPad,CuDef*%
G36*
G01*
X125885000Y-70515000D02*
X125885000Y-70265000D01*
G75*
G02*
X126010000Y-70140000I125000J0D01*
G01*
X127260000Y-70140000D01*
G75*
G02*
X127385000Y-70265000I0J-125000D01*
G01*
X127385000Y-70515000D01*
G75*
G02*
X127260000Y-70640000I-125000J0D01*
G01*
X126010000Y-70640000D01*
G75*
G02*
X125885000Y-70515000I0J125000D01*
G01*
G37*
%TD.AperFunction*%
%TO.P,U1,1*%
%TO.N,+3V3*%
%TA.AperFunction,SMDPad,CuDef*%
G36*
G01*
X125885000Y-69715000D02*
X125885000Y-69465000D01*
G75*
G02*
X126010000Y-69340000I125000J0D01*
G01*
X127260000Y-69340000D01*
G75*
G02*
X127385000Y-69465000I0J-125000D01*
G01*
X127385000Y-69715000D01*
G75*
G02*
X127260000Y-69840000I-125000J0D01*
G01*
X126010000Y-69840000D01*
G75*
G02*
X125885000Y-69715000I0J125000D01*
G01*
G37*
%TD.AperFunction*%
%TD*%
%TO.P,R1,2*%
%TO.N,BOOT0*%
%TA.AperFunction,SMDPad,CuDef*%
G36*
G01*
X137902000Y-80285000D02*
X137902000Y-79735000D01*
G75*
G02*
X138102000Y-79535000I200000J0D01*
G01*
X138502000Y-79535000D01*
G75*
G02*
X138702000Y-79735000I0J-200000D01*
G01*
X138702000Y-80285000D01*
G75*
G02*
X138502000Y-80485000I-200000J0D01*
G01*
X138102000Y-80485000D01*
G75*
G02*
X137902000Y-80285000I0J200000D01*
G01*
G37*
%TD.AperFunction*%
%TO.P,R1,1*%
%TO.N,GND*%
%TA.AperFunction,SMDPad,CuDef*%
G36*
G01*
X136252000Y-80285000D02*
X136252000Y-79735000D01*
G75*
G02*
X136452000Y-79535000I200000J0D01*
G01*
X136852000Y-79535000D01*
G75*
G02*
X137052000Y-79735000I0J-200000D01*
G01*
X137052000Y-80285000D01*
G75*
G02*
X136852000Y-80485000I-200000J0D01*
G01*
X136452000Y-80485000D01*
G75*
G02*
X136252000Y-80285000I0J200000D01*
G01*
G37*
%TD.AperFunction*%
%TD*%
%TO.P,R4,2*%
%TO.N,Net-(D2-Pad1)*%
%TA.AperFunction,SMDPad,CuDef*%
G36*
G01*
X123550000Y-79190500D02*
X124100000Y-79190500D01*
G75*
G02*
X124300000Y-79390500I0J-200000D01*
G01*
X124300000Y-79790500D01*
G75*
G02*
X124100000Y-79990500I-200000J0D01*
G01*
X123550000Y-79990500D01*
G75*
G02*
X123350000Y-79790500I0J200000D01*
G01*
X123350000Y-79390500D01*
G75*
G02*
X123550000Y-79190500I200000J0D01*
G01*
G37*
%TD.AperFunction*%
%TO.P,R4,1*%
%TO.N,GND*%
%TA.AperFunction,SMDPad,CuDef*%
G36*
G01*
X123550000Y-77540500D02*
X124100000Y-77540500D01*
G75*
G02*
X124300000Y-77740500I0J-200000D01*
G01*
X124300000Y-78140500D01*
G75*
G02*
X124100000Y-78340500I-200000J0D01*
G01*
X123550000Y-78340500D01*
G75*
G02*
X123350000Y-78140500I0J200000D01*
G01*
X123350000Y-77740500D01*
G75*
G02*
X123550000Y-77540500I200000J0D01*
G01*
G37*
%TD.AperFunction*%
%TD*%
%TO.P,R2,2*%
%TO.N,Net-(R2-Pad2)*%
%TA.AperFunction,SMDPad,CuDef*%
G36*
G01*
X99335000Y-71775000D02*
X98785000Y-71775000D01*
G75*
G02*
X98585000Y-71575000I0J200000D01*
G01*
X98585000Y-71175000D01*
G75*
G02*
X98785000Y-70975000I200000J0D01*
G01*
X99335000Y-70975000D01*
G75*
G02*
X99535000Y-71175000I0J-200000D01*
G01*
X99535000Y-71575000D01*
G75*
G02*
X99335000Y-71775000I-200000J0D01*
G01*
G37*
%TD.AperFunction*%
%TO.P,R2,1*%
%TO.N,+3V3*%
%TA.AperFunction,SMDPad,CuDef*%
G36*
G01*
X99335000Y-73425000D02*
X98785000Y-73425000D01*
G75*
G02*
X98585000Y-73225000I0J200000D01*
G01*
X98585000Y-72825000D01*
G75*
G02*
X98785000Y-72625000I200000J0D01*
G01*
X99335000Y-72625000D01*
G75*
G02*
X99535000Y-72825000I0J-200000D01*
G01*
X99535000Y-73225000D01*
G75*
G02*
X99335000Y-73425000I-200000J0D01*
G01*
G37*
%TD.AperFunction*%
%TD*%
D10*
%TO.P,J6,6*%
%TO.N,M2_OUT2*%
X111760000Y-82550000D03*
%TO.P,J6,5*%
%TO.N,+3V3*%
X109220000Y-82550000D03*
%TO.P,J6,4*%
%TO.N,M2_ENCB*%
X106680000Y-82550000D03*
%TO.P,J6,3*%
%TO.N,M2_ENCA*%
X104140000Y-82550000D03*
%TO.P,J6,2*%
%TO.N,GND*%
X101600000Y-82550000D03*
D11*
%TO.P,J6,1*%
%TO.N,M2_OUT1*%
X99060000Y-82550000D03*
%TD*%
D10*
%TO.P,J5,6*%
%TO.N,M1_OUT2*%
X111760000Y-62230000D03*
%TO.P,J5,5*%
%TO.N,+3V3*%
X109220000Y-62230000D03*
%TO.P,J5,4*%
%TO.N,M1_ENCB*%
X106680000Y-62230000D03*
%TO.P,J5,3*%
%TO.N,M1_ENCA*%
X104140000Y-62230000D03*
%TO.P,J5,2*%
%TO.N,GND*%
X101600000Y-62230000D03*
D11*
%TO.P,J5,1*%
%TO.N,M1_OUT1*%
X99060000Y-62230000D03*
%TD*%
D10*
%TO.P,J4,6*%
%TO.N,SWO*%
X147320000Y-64770000D03*
%TO.P,J4,5*%
%TO.N,NRST*%
X147320000Y-62230000D03*
%TO.P,J4,4*%
%TO.N,SWDIO*%
X149860000Y-64770000D03*
%TO.P,J4,3*%
%TO.N,GND*%
X149860000Y-62230000D03*
%TO.P,J4,2*%
%TO.N,SWCLK*%
X152400000Y-64770000D03*
D11*
%TO.P,J4,1*%
%TO.N,+3V3*%
X152400000Y-62230000D03*
%TD*%
D17*
%TO.P,J1,6*%
%TO.N,GND*%
X153700000Y-68890000D03*
X153700000Y-75890000D03*
D18*
X153700000Y-69490000D03*
X153700000Y-75290000D03*
D19*
X153700000Y-71390000D03*
X153700000Y-73390000D03*
D20*
X151000000Y-69890000D03*
X151000000Y-74890000D03*
D21*
%TO.P,J1,5*%
X151000000Y-71090000D03*
%TO.P,J1,4*%
%TO.N,Net-(J1-Pad4)*%
X151000000Y-71740000D03*
%TO.P,J1,3*%
%TO.N,USB_CON_D+*%
X151000000Y-72390000D03*
%TO.P,J1,2*%
%TO.N,USB_CON_D-*%
X151000000Y-73040000D03*
%TO.P,J1,1*%
%TO.N,VUSB*%
X151000000Y-73690000D03*
%TD*%
D22*
%TO.P,H2,1*%
%TO.N,N/C*%
X140970000Y-72390000D03*
D23*
X140970000Y-72390000D03*
%TD*%
D22*
%TO.P,H1,1*%
%TO.N,N/C*%
X113030000Y-72390000D03*
D23*
X113030000Y-72390000D03*
%TD*%
%TO.P,D2,2*%
%TO.N,LED_STATUS*%
%TA.AperFunction,SMDPad,CuDef*%
G36*
G01*
X125732250Y-78415500D02*
X125219750Y-78415500D01*
G75*
G02*
X125001000Y-78196750I0J218750D01*
G01*
X125001000Y-77759250D01*
G75*
G02*
X125219750Y-77540500I218750J0D01*
G01*
X125732250Y-77540500D01*
G75*
G02*
X125951000Y-77759250I0J-218750D01*
G01*
X125951000Y-78196750D01*
G75*
G02*
X125732250Y-78415500I-218750J0D01*
G01*
G37*
%TD.AperFunction*%
%TO.P,D2,1*%
%TO.N,Net-(D2-Pad1)*%
%TA.AperFunction,SMDPad,CuDef*%
G36*
G01*
X125732250Y-79990500D02*
X125219750Y-79990500D01*
G75*
G02*
X125001000Y-79771750I0J218750D01*
G01*
X125001000Y-79334250D01*
G75*
G02*
X125219750Y-79115500I218750J0D01*
G01*
X125732250Y-79115500D01*
G75*
G02*
X125951000Y-79334250I0J-218750D01*
G01*
X125951000Y-79771750D01*
G75*
G02*
X125732250Y-79990500I-218750J0D01*
G01*
G37*
%TD.AperFunction*%
%TD*%
D24*
%TO.P,D1,2*%
%TO.N,VUSB*%
X148272000Y-78740000D03*
%TO.P,D1,1*%
%TO.N,VM*%
X144272000Y-78740000D03*
%TD*%
%TO.P,C9,2*%
%TO.N,GND*%
%TA.AperFunction,SMDPad,CuDef*%
G36*
G01*
X116844000Y-64587000D02*
X117344000Y-64587000D01*
G75*
G02*
X117569000Y-64812000I0J-225000D01*
G01*
X117569000Y-65262000D01*
G75*
G02*
X117344000Y-65487000I-225000J0D01*
G01*
X116844000Y-65487000D01*
G75*
G02*
X116619000Y-65262000I0J225000D01*
G01*
X116619000Y-64812000D01*
G75*
G02*
X116844000Y-64587000I225000J0D01*
G01*
G37*
%TD.AperFunction*%
%TO.P,C9,1*%
%TO.N,HSE_OUT*%
%TA.AperFunction,SMDPad,CuDef*%
G36*
G01*
X116844000Y-63037000D02*
X117344000Y-63037000D01*
G75*
G02*
X117569000Y-63262000I0J-225000D01*
G01*
X117569000Y-63712000D01*
G75*
G02*
X117344000Y-63937000I-225000J0D01*
G01*
X116844000Y-63937000D01*
G75*
G02*
X116619000Y-63712000I0J225000D01*
G01*
X116619000Y-63262000D01*
G75*
G02*
X116844000Y-63037000I225000J0D01*
G01*
G37*
%TD.AperFunction*%
%TD*%
%TO.P,C7,2*%
%TO.N,GND*%
%TA.AperFunction,SMDPad,CuDef*%
G36*
G01*
X131770000Y-65655000D02*
X131770000Y-65155000D01*
G75*
G02*
X131995000Y-64930000I225000J0D01*
G01*
X132445000Y-64930000D01*
G75*
G02*
X132670000Y-65155000I0J-225000D01*
G01*
X132670000Y-65655000D01*
G75*
G02*
X132445000Y-65880000I-225000J0D01*
G01*
X131995000Y-65880000D01*
G75*
G02*
X131770000Y-65655000I0J225000D01*
G01*
G37*
%TD.AperFunction*%
%TO.P,C7,1*%
%TO.N,HSE_IN*%
%TA.AperFunction,SMDPad,CuDef*%
G36*
G01*
X130220000Y-65655000D02*
X130220000Y-65155000D01*
G75*
G02*
X130445000Y-64930000I225000J0D01*
G01*
X130895000Y-64930000D01*
G75*
G02*
X131120000Y-65155000I0J-225000D01*
G01*
X131120000Y-65655000D01*
G75*
G02*
X130895000Y-65880000I-225000J0D01*
G01*
X130445000Y-65880000D01*
G75*
G02*
X130220000Y-65655000I0J225000D01*
G01*
G37*
%TD.AperFunction*%
%TD*%
%TO.P,C12,2*%
%TO.N,GND*%
%TA.AperFunction,SMDPad,CuDef*%
G36*
G01*
X110875000Y-77300000D02*
X111375000Y-77300000D01*
G75*
G02*
X111600000Y-77525000I0J-225000D01*
G01*
X111600000Y-77975000D01*
G75*
G02*
X111375000Y-78200000I-225000J0D01*
G01*
X110875000Y-78200000D01*
G75*
G02*
X110650000Y-77975000I0J225000D01*
G01*
X110650000Y-77525000D01*
G75*
G02*
X110875000Y-77300000I225000J0D01*
G01*
G37*
%TD.AperFunction*%
%TO.P,C12,1*%
%TO.N,VM*%
%TA.AperFunction,SMDPad,CuDef*%
G36*
G01*
X110875000Y-75750000D02*
X111375000Y-75750000D01*
G75*
G02*
X111600000Y-75975000I0J-225000D01*
G01*
X111600000Y-76425000D01*
G75*
G02*
X111375000Y-76650000I-225000J0D01*
G01*
X110875000Y-76650000D01*
G75*
G02*
X110650000Y-76425000I0J225000D01*
G01*
X110650000Y-75975000D01*
G75*
G02*
X110875000Y-75750000I225000J0D01*
G01*
G37*
%TD.AperFunction*%
%TD*%
%TO.P,C11,2*%
%TO.N,GND*%
%TA.AperFunction,SMDPad,CuDef*%
G36*
G01*
X113190000Y-78875000D02*
X114140000Y-78875000D01*
G75*
G02*
X114390000Y-79125000I0J-250000D01*
G01*
X114390000Y-79625000D01*
G75*
G02*
X114140000Y-79875000I-250000J0D01*
G01*
X113190000Y-79875000D01*
G75*
G02*
X112940000Y-79625000I0J250000D01*
G01*
X112940000Y-79125000D01*
G75*
G02*
X113190000Y-78875000I250000J0D01*
G01*
G37*
%TD.AperFunction*%
%TO.P,C11,1*%
%TO.N,VM*%
%TA.AperFunction,SMDPad,CuDef*%
G36*
G01*
X113190000Y-76975000D02*
X114140000Y-76975000D01*
G75*
G02*
X114390000Y-77225000I0J-250000D01*
G01*
X114390000Y-77725000D01*
G75*
G02*
X114140000Y-77975000I-250000J0D01*
G01*
X113190000Y-77975000D01*
G75*
G02*
X112940000Y-77725000I0J250000D01*
G01*
X112940000Y-77225000D01*
G75*
G02*
X113190000Y-76975000I250000J0D01*
G01*
G37*
%TD.AperFunction*%
%TD*%
%TO.P,C10,2*%
%TO.N,GND*%
%TA.AperFunction,SMDPad,CuDef*%
G36*
G01*
X111375000Y-66477000D02*
X110875000Y-66477000D01*
G75*
G02*
X110650000Y-66252000I0J225000D01*
G01*
X110650000Y-65802000D01*
G75*
G02*
X110875000Y-65577000I225000J0D01*
G01*
X111375000Y-65577000D01*
G75*
G02*
X111600000Y-65802000I0J-225000D01*
G01*
X111600000Y-66252000D01*
G75*
G02*
X111375000Y-66477000I-225000J0D01*
G01*
G37*
%TD.AperFunction*%
%TO.P,C10,1*%
%TO.N,+3V3*%
%TA.AperFunction,SMDPad,CuDef*%
G36*
G01*
X111375000Y-68027000D02*
X110875000Y-68027000D01*
G75*
G02*
X110650000Y-67802000I0J225000D01*
G01*
X110650000Y-67352000D01*
G75*
G02*
X110875000Y-67127000I225000J0D01*
G01*
X111375000Y-67127000D01*
G75*
G02*
X111600000Y-67352000I0J-225000D01*
G01*
X111600000Y-67802000D01*
G75*
G02*
X111375000Y-68027000I-225000J0D01*
G01*
G37*
%TD.AperFunction*%
%TD*%
%TO.P,C8,2*%
%TO.N,GND*%
%TA.AperFunction,SMDPad,CuDef*%
G36*
G01*
X113505000Y-66127000D02*
X112555000Y-66127000D01*
G75*
G02*
X112305000Y-65877000I0J250000D01*
G01*
X112305000Y-65377000D01*
G75*
G02*
X112555000Y-65127000I250000J0D01*
G01*
X113505000Y-65127000D01*
G75*
G02*
X113755000Y-65377000I0J-250000D01*
G01*
X113755000Y-65877000D01*
G75*
G02*
X113505000Y-66127000I-250000J0D01*
G01*
G37*
%TD.AperFunction*%
%TO.P,C8,1*%
%TO.N,+3V3*%
%TA.AperFunction,SMDPad,CuDef*%
G36*
G01*
X113505000Y-68027000D02*
X112555000Y-68027000D01*
G75*
G02*
X112305000Y-67777000I0J250000D01*
G01*
X112305000Y-67277000D01*
G75*
G02*
X112555000Y-67027000I250000J0D01*
G01*
X113505000Y-67027000D01*
G75*
G02*
X113755000Y-67277000I0J-250000D01*
G01*
X113755000Y-67777000D01*
G75*
G02*
X113505000Y-68027000I-250000J0D01*
G01*
G37*
%TD.AperFunction*%
%TD*%
%TO.P,C5,2*%
%TO.N,GND*%
%TA.AperFunction,SMDPad,CuDef*%
G36*
G01*
X125265000Y-67695000D02*
X125265000Y-68195000D01*
G75*
G02*
X125040000Y-68420000I-225000J0D01*
G01*
X124590000Y-68420000D01*
G75*
G02*
X124365000Y-68195000I0J225000D01*
G01*
X124365000Y-67695000D01*
G75*
G02*
X124590000Y-67470000I225000J0D01*
G01*
X125040000Y-67470000D01*
G75*
G02*
X125265000Y-67695000I0J-225000D01*
G01*
G37*
%TD.AperFunction*%
%TO.P,C5,1*%
%TO.N,+3V3*%
%TA.AperFunction,SMDPad,CuDef*%
G36*
G01*
X126815000Y-67695000D02*
X126815000Y-68195000D01*
G75*
G02*
X126590000Y-68420000I-225000J0D01*
G01*
X126140000Y-68420000D01*
G75*
G02*
X125915000Y-68195000I0J225000D01*
G01*
X125915000Y-67695000D01*
G75*
G02*
X126140000Y-67470000I225000J0D01*
G01*
X126590000Y-67470000D01*
G75*
G02*
X126815000Y-67695000I0J-225000D01*
G01*
G37*
%TD.AperFunction*%
%TD*%
%TO.P,C3,2*%
%TO.N,GND*%
%TA.AperFunction,SMDPad,CuDef*%
G36*
G01*
X137545000Y-77250000D02*
X138045000Y-77250000D01*
G75*
G02*
X138270000Y-77475000I0J-225000D01*
G01*
X138270000Y-77925000D01*
G75*
G02*
X138045000Y-78150000I-225000J0D01*
G01*
X137545000Y-78150000D01*
G75*
G02*
X137320000Y-77925000I0J225000D01*
G01*
X137320000Y-77475000D01*
G75*
G02*
X137545000Y-77250000I225000J0D01*
G01*
G37*
%TD.AperFunction*%
%TO.P,C3,1*%
%TO.N,+3V3*%
%TA.AperFunction,SMDPad,CuDef*%
G36*
G01*
X137545000Y-75700000D02*
X138045000Y-75700000D01*
G75*
G02*
X138270000Y-75925000I0J-225000D01*
G01*
X138270000Y-76375000D01*
G75*
G02*
X138045000Y-76600000I-225000J0D01*
G01*
X137545000Y-76600000D01*
G75*
G02*
X137320000Y-76375000I0J225000D01*
G01*
X137320000Y-75925000D01*
G75*
G02*
X137545000Y-75700000I225000J0D01*
G01*
G37*
%TD.AperFunction*%
%TD*%
%TO.P,C2,2*%
%TO.N,GND*%
%TA.AperFunction,SMDPad,CuDef*%
G36*
G01*
X134310000Y-78990000D02*
X134310000Y-78490000D01*
G75*
G02*
X134535000Y-78265000I225000J0D01*
G01*
X134985000Y-78265000D01*
G75*
G02*
X135210000Y-78490000I0J-225000D01*
G01*
X135210000Y-78990000D01*
G75*
G02*
X134985000Y-79215000I-225000J0D01*
G01*
X134535000Y-79215000D01*
G75*
G02*
X134310000Y-78990000I0J225000D01*
G01*
G37*
%TD.AperFunction*%
%TO.P,C2,1*%
%TO.N,+3V3*%
%TA.AperFunction,SMDPad,CuDef*%
G36*
G01*
X132760000Y-78990000D02*
X132760000Y-78490000D01*
G75*
G02*
X132985000Y-78265000I225000J0D01*
G01*
X133435000Y-78265000D01*
G75*
G02*
X133660000Y-78490000I0J-225000D01*
G01*
X133660000Y-78990000D01*
G75*
G02*
X133435000Y-79215000I-225000J0D01*
G01*
X132985000Y-79215000D01*
G75*
G02*
X132760000Y-78990000I0J225000D01*
G01*
G37*
%TD.AperFunction*%
%TD*%
%TO.P,C1,2*%
%TO.N,GND*%
%TA.AperFunction,SMDPad,CuDef*%
G36*
G01*
X139225000Y-77600000D02*
X140175000Y-77600000D01*
G75*
G02*
X140425000Y-77850000I0J-250000D01*
G01*
X140425000Y-78350000D01*
G75*
G02*
X140175000Y-78600000I-250000J0D01*
G01*
X139225000Y-78600000D01*
G75*
G02*
X138975000Y-78350000I0J250000D01*
G01*
X138975000Y-77850000D01*
G75*
G02*
X139225000Y-77600000I250000J0D01*
G01*
G37*
%TD.AperFunction*%
%TO.P,C1,1*%
%TO.N,+3V3*%
%TA.AperFunction,SMDPad,CuDef*%
G36*
G01*
X139225000Y-75700000D02*
X140175000Y-75700000D01*
G75*
G02*
X140425000Y-75950000I0J-250000D01*
G01*
X140425000Y-76450000D01*
G75*
G02*
X140175000Y-76700000I-250000J0D01*
G01*
X139225000Y-76700000D01*
G75*
G02*
X138975000Y-76450000I0J250000D01*
G01*
X138975000Y-75950000D01*
G75*
G02*
X139225000Y-75700000I250000J0D01*
G01*
G37*
%TD.AperFunction*%
%TD*%
%TO.P,C6,2*%
%TO.N,GND*%
%TA.AperFunction,SMDPad,CuDef*%
G36*
G01*
X146500000Y-72230000D02*
X146500000Y-71280000D01*
G75*
G02*
X146750000Y-71030000I250000J0D01*
G01*
X147250000Y-71030000D01*
G75*
G02*
X147500000Y-71280000I0J-250000D01*
G01*
X147500000Y-72230000D01*
G75*
G02*
X147250000Y-72480000I-250000J0D01*
G01*
X146750000Y-72480000D01*
G75*
G02*
X146500000Y-72230000I0J250000D01*
G01*
G37*
%TD.AperFunction*%
%TO.P,C6,1*%
%TO.N,+3V3*%
%TA.AperFunction,SMDPad,CuDef*%
G36*
G01*
X144600000Y-72230000D02*
X144600000Y-71280000D01*
G75*
G02*
X144850000Y-71030000I250000J0D01*
G01*
X145350000Y-71030000D01*
G75*
G02*
X145600000Y-71280000I0J-250000D01*
G01*
X145600000Y-72230000D01*
G75*
G02*
X145350000Y-72480000I-250000J0D01*
G01*
X144850000Y-72480000D01*
G75*
G02*
X144600000Y-72230000I0J250000D01*
G01*
G37*
%TD.AperFunction*%
%TD*%
%TO.P,C4,2*%
%TO.N,GND*%
%TA.AperFunction,SMDPad,CuDef*%
G36*
G01*
X152530000Y-79215000D02*
X152530000Y-78265000D01*
G75*
G02*
X152780000Y-78015000I250000J0D01*
G01*
X153280000Y-78015000D01*
G75*
G02*
X153530000Y-78265000I0J-250000D01*
G01*
X153530000Y-79215000D01*
G75*
G02*
X153280000Y-79465000I-250000J0D01*
G01*
X152780000Y-79465000D01*
G75*
G02*
X152530000Y-79215000I0J250000D01*
G01*
G37*
%TD.AperFunction*%
%TO.P,C4,1*%
%TO.N,VUSB*%
%TA.AperFunction,SMDPad,CuDef*%
G36*
G01*
X150630000Y-79215000D02*
X150630000Y-78265000D01*
G75*
G02*
X150880000Y-78015000I250000J0D01*
G01*
X151380000Y-78015000D01*
G75*
G02*
X151630000Y-78265000I0J-250000D01*
G01*
X151630000Y-79215000D01*
G75*
G02*
X151380000Y-79465000I-250000J0D01*
G01*
X150880000Y-79465000D01*
G75*
G02*
X150630000Y-79215000I0J250000D01*
G01*
G37*
%TD.AperFunction*%
%TD*%
D25*
%TO.N,GND*%
X110490000Y-72390000D03*
X118745000Y-76835000D03*
X118745000Y-67945000D03*
X131826000Y-78232000D03*
X139700000Y-79248000D03*
X147828000Y-73914000D03*
X100139500Y-74358500D03*
X128524000Y-69596000D03*
X114046000Y-80772000D03*
X133350000Y-65532000D03*
X124839442Y-66802000D03*
X100139500Y-70421500D03*
%TO.N,BOOT0*%
X136652000Y-78613000D03*
X130302000Y-71374000D03*
%TO.N,M1_ENCB*%
X127596304Y-65386322D03*
%TO.N,M1_ENCA*%
X128016000Y-66293996D03*
%TO.N,M2_ENCA*%
X129285998Y-73151998D03*
%TO.N,SWDIO*%
X139065000Y-67437000D03*
%TO.N,M2_ENCB*%
X131063990Y-73660000D03*
%TO.N,+3V3*%
X107315000Y-70485000D03*
X109855000Y-67945000D03*
X123952000Y-82296000D03*
X133858000Y-79502000D03*
X141536999Y-75125001D03*
X143695999Y-75125001D03*
X136067000Y-76150000D03*
X99060000Y-73850500D03*
X126491992Y-66802000D03*
%TO.N,VM*%
X141732000Y-79502000D03*
X141732000Y-78486000D03*
X141732000Y-77470000D03*
%TO.N,M1_IN2*%
X121285000Y-70485000D03*
X132380313Y-69688179D03*
%TO.N,M1_IN1*%
X120015000Y-71120000D03*
X132842000Y-70866000D03*
%TO.N,LED_STATUS*%
X127254000Y-77978000D03*
X130509294Y-75000060D03*
%TO.N,UART_TX*%
X133604000Y-70103994D03*
%TO.N,UART_RX*%
X136525000Y-73025000D03*
%TO.N,Net-(R2-Pad2)*%
X100076000Y-72136000D03*
X107640000Y-72065000D03*
%TD*%
D26*
%TO.N,GND*%
X144780000Y-68260000D02*
X144338000Y-68260000D01*
X144338000Y-68260000D02*
X143810011Y-68787989D01*
X143810011Y-68787989D02*
X143810011Y-69642011D01*
X147000000Y-71030000D02*
X147000000Y-71755000D01*
X146299979Y-70329979D02*
X147000000Y-71030000D01*
X144497979Y-70329979D02*
X146299979Y-70329979D01*
X143810011Y-69642011D02*
X144497979Y-70329979D01*
D27*
X147000000Y-73930000D02*
X147000000Y-71755000D01*
X138195000Y-78100000D02*
X137795000Y-77700000D01*
X139700000Y-78100000D02*
X138195000Y-78100000D01*
D26*
X110165000Y-72715000D02*
X110490000Y-72390000D01*
X109010000Y-72715000D02*
X110165000Y-72715000D01*
D27*
X118300000Y-68390000D02*
X118745000Y-67945000D01*
X117130000Y-68390000D02*
X118300000Y-68390000D01*
X118300000Y-76390000D02*
X118745000Y-76835000D01*
X117130000Y-76390000D02*
X118300000Y-76390000D01*
X112630000Y-66027000D02*
X113030000Y-65627000D01*
X111125000Y-66027000D02*
X112630000Y-66027000D01*
D26*
X121920000Y-79845500D02*
X121920000Y-82550000D01*
X123825000Y-77940500D02*
X121920000Y-79845500D01*
D27*
X134760000Y-77715000D02*
X133610000Y-76565000D01*
X134760000Y-78740000D02*
X134760000Y-77715000D01*
X136030000Y-80010000D02*
X134760000Y-78740000D01*
X136652000Y-80010000D02*
X136030000Y-80010000D01*
X133610000Y-75796156D02*
X132997844Y-75184000D01*
X133610000Y-76565000D02*
X133610000Y-75796156D01*
X132622156Y-75184000D02*
X132997844Y-75184000D01*
X132010000Y-75796156D02*
X132622156Y-75184000D01*
X132010000Y-76565000D02*
X132010000Y-75796156D01*
X132010000Y-78048000D02*
X131826000Y-78232000D01*
X132010000Y-76565000D02*
X132010000Y-78048000D01*
X139700000Y-78100000D02*
X139700000Y-79248000D01*
X147812000Y-73930000D02*
X147828000Y-73914000D01*
X147000000Y-73930000D02*
X147812000Y-73930000D01*
D28*
X151000000Y-71090000D02*
X151000000Y-69890000D01*
D27*
X153700000Y-75290000D02*
X153700000Y-73390000D01*
X153700000Y-71390000D02*
X153700000Y-73390000D01*
X153700000Y-71390000D02*
X153700000Y-69490000D01*
X101503500Y-74358500D02*
X101780991Y-74635991D01*
X100139500Y-74358500D02*
X101503500Y-74358500D01*
X101503500Y-74321500D02*
X101780992Y-74044008D01*
X101503500Y-74358500D02*
X101503500Y-74321500D01*
D26*
X128524000Y-69562244D02*
X128524000Y-69596000D01*
X128010000Y-69048244D02*
X128524000Y-69562244D01*
X128010000Y-68215000D02*
X128010000Y-69048244D01*
D27*
X153030000Y-78740000D02*
X153670000Y-78100000D01*
X153670000Y-75920000D02*
X153700000Y-75890000D01*
X153670000Y-78100000D02*
X153670000Y-75920000D01*
X112040000Y-77750000D02*
X111125000Y-77750000D01*
X113665000Y-79375000D02*
X112040000Y-77750000D01*
X113665000Y-80391000D02*
X114046000Y-80772000D01*
X113665000Y-79375000D02*
X113665000Y-80391000D01*
D26*
X132220000Y-65036000D02*
X131064000Y-63880000D01*
X132220000Y-65405000D02*
X132220000Y-65036000D01*
X132220000Y-65405000D02*
X133223000Y-65405000D01*
X133223000Y-65405000D02*
X133350000Y-65532000D01*
D27*
X124815000Y-66826442D02*
X124839442Y-66802000D01*
X124815000Y-67945000D02*
X124815000Y-66826442D01*
X101503500Y-70421500D02*
X101780991Y-70144009D01*
X100139500Y-70421500D02*
X101503500Y-70421500D01*
X101466500Y-70421500D02*
X101780999Y-70735999D01*
X100139500Y-70421500D02*
X101466500Y-70421500D01*
D28*
%TO.N,VUSB*%
X150776000Y-73914000D02*
X151000000Y-73690000D01*
X148844000Y-73914000D02*
X150776000Y-73914000D01*
X148844000Y-75438000D02*
X148844000Y-73914000D01*
X151000000Y-73690000D02*
X149068000Y-73690000D01*
X148844000Y-73914000D02*
X149068000Y-73690000D01*
D26*
X146050000Y-71120000D02*
X146050000Y-75930000D01*
X143310000Y-68260000D02*
X143410000Y-68360000D01*
X142580000Y-68260000D02*
X143310000Y-68260000D01*
X143410000Y-68360000D02*
X143410000Y-69807700D01*
X145659990Y-70729990D02*
X146050000Y-71120000D01*
X143410000Y-69807700D02*
X144332290Y-70729990D01*
X144332290Y-70729990D02*
X145659990Y-70729990D01*
%TO.N,BOOT0*%
X136652000Y-78613000D02*
X137287000Y-78613000D01*
X138302000Y-79628000D02*
X138302000Y-80010000D01*
X137287000Y-78613000D02*
X138302000Y-79628000D01*
X138302000Y-81152000D02*
X139700000Y-82550000D01*
X138302000Y-80010000D02*
X138302000Y-81152000D01*
X130302000Y-70337996D02*
X130302000Y-71374000D01*
X128810000Y-68215000D02*
X128810000Y-68845996D01*
X128810000Y-68845996D02*
X130302000Y-70337996D01*
%TO.N,M1_ENCB*%
X130410000Y-68215000D02*
X130410000Y-67465000D01*
X128331322Y-65386322D02*
X127596304Y-65386322D01*
X130410000Y-67465000D02*
X128331322Y-65386322D01*
%TO.N,M1_ENCA*%
X129610000Y-68215000D02*
X129610000Y-67465000D01*
X129610000Y-67465000D02*
X128438996Y-66293996D01*
X128438996Y-66293996D02*
X128016000Y-66293996D01*
%TO.N,M1_PWM*%
X114517403Y-69490001D02*
X114077380Y-69049978D01*
X124626004Y-72790000D02*
X121326005Y-69490001D01*
X110085000Y-69465000D02*
X109010000Y-69465000D01*
X114077380Y-69049978D02*
X110500022Y-69049978D01*
X110500022Y-69049978D02*
X110085000Y-69465000D01*
X121326005Y-69490001D02*
X114517403Y-69490001D01*
X126635000Y-72790000D02*
X124626004Y-72790000D01*
%TO.N,SPI_MISO*%
X134620000Y-82550000D02*
X132715000Y-80645000D01*
X132715000Y-80645000D02*
X130810000Y-80645000D01*
X129610000Y-79445000D02*
X129610000Y-76565000D01*
X130810000Y-80645000D02*
X129610000Y-79445000D01*
%TO.N,SWO*%
X132810000Y-67663944D02*
X133308954Y-67164990D01*
X135838710Y-67164990D02*
X138233700Y-64770000D01*
X133308954Y-67164990D02*
X135838710Y-67164990D01*
X138233700Y-64770000D02*
X146117919Y-64770000D01*
X132810000Y-68215000D02*
X132810000Y-67663944D01*
X146117919Y-64770000D02*
X147320000Y-64770000D01*
%TO.N,M2_ENCA*%
X130322006Y-73151998D02*
X129285998Y-73151998D01*
X131210000Y-68215000D02*
X131210000Y-72264004D01*
X131210000Y-72264004D02*
X130322006Y-73151998D01*
%TO.N,SWCLK*%
X134985000Y-69590000D02*
X137994979Y-66580021D01*
X137994979Y-66580021D02*
X150589979Y-66580021D01*
X150589979Y-66580021D02*
X152400000Y-64770000D01*
%TO.N,SWDIO*%
X136112000Y-70390000D02*
X139065000Y-67437000D01*
X134985000Y-70390000D02*
X136112000Y-70390000D01*
D29*
%TO.N,USB_D+*%
X134997115Y-71177885D02*
X136519295Y-71177885D01*
X134985000Y-71190000D02*
X134997115Y-71177885D01*
X141784999Y-67310000D02*
X142580000Y-67310000D01*
X141247114Y-67847885D02*
X141784999Y-67310000D01*
X139849295Y-67847885D02*
X141247114Y-67847885D01*
X136519295Y-71177885D02*
X139849295Y-67847885D01*
%TO.N,USB_D-*%
X134997115Y-72002115D02*
X136860705Y-72002115D01*
X134985000Y-71990000D02*
X134997115Y-72002115D01*
X141784999Y-69210000D02*
X142580000Y-69210000D01*
X136860705Y-72002115D02*
X140190705Y-68672115D01*
X141247114Y-68672115D02*
X141784999Y-69210000D01*
X140190705Y-68672115D02*
X141247114Y-68672115D01*
D26*
%TO.N,M2_PWM*%
X111637328Y-75390023D02*
X110912305Y-74665000D01*
X114417379Y-75390023D02*
X111637328Y-75390023D01*
X126635000Y-75190000D02*
X114617402Y-75190000D01*
X114617402Y-75190000D02*
X114417379Y-75390023D01*
X110912305Y-74665000D02*
X109010000Y-74665000D01*
%TO.N,SPI_MOSI*%
X134067999Y-81399999D02*
X132678000Y-80010000D01*
X136009999Y-81399999D02*
X134067999Y-81399999D01*
X137160000Y-82550000D02*
X136009999Y-81399999D01*
X132678000Y-80010000D02*
X130810000Y-80010000D01*
X130410000Y-79610000D02*
X130410000Y-76565000D01*
X130810000Y-80010000D02*
X130410000Y-79610000D01*
%TO.N,SPI_CLK*%
X128810000Y-79280000D02*
X128810000Y-76565000D01*
X132080000Y-82550000D02*
X128810000Y-79280000D01*
%TO.N,SPI_CS*%
X128010000Y-76565000D02*
X128010000Y-79000000D01*
X126555000Y-80455000D02*
X126555000Y-81915000D01*
X128010000Y-79000000D02*
X126555000Y-80455000D01*
X126555000Y-81915000D02*
X126555000Y-82105000D01*
X127000000Y-82550000D02*
X129540000Y-82550000D01*
X126555000Y-82105000D02*
X127000000Y-82550000D01*
%TO.N,M2_ENCB*%
X131680312Y-73043678D02*
X131063990Y-73660000D01*
X132010000Y-68215000D02*
X132010000Y-69022490D01*
X131680312Y-69352178D02*
X131680312Y-73043678D01*
X132010000Y-69022490D02*
X131680312Y-69352178D01*
%TO.N,NRST*%
X125230000Y-71990000D02*
X121630000Y-68390000D01*
X126635000Y-71990000D02*
X125230000Y-71990000D01*
X127385000Y-71990000D02*
X126635000Y-71990000D01*
X126786056Y-76390000D02*
X127685010Y-75491046D01*
X121630000Y-76390000D02*
X126786056Y-76390000D01*
X127685010Y-75491046D02*
X127685010Y-74751581D01*
X127696998Y-72301998D02*
X127385000Y-71990000D01*
X127696998Y-74739593D02*
X127696998Y-72301998D01*
X127685010Y-74751581D02*
X127696998Y-74739593D01*
X127385000Y-71990000D02*
X127685010Y-71689990D01*
X127083680Y-64686320D02*
X128733842Y-64686320D01*
X126807999Y-65847998D02*
X126807999Y-64962001D01*
X127192010Y-66232009D02*
X126807999Y-65847998D01*
X127685010Y-71689990D02*
X127685010Y-69288954D01*
X131041524Y-66994002D02*
X132914242Y-66994002D01*
X132914242Y-66994002D02*
X133143265Y-66764979D01*
X127192010Y-68795954D02*
X127192010Y-66232009D01*
X135755999Y-63380001D02*
X146169999Y-63380001D01*
X133143265Y-66764979D02*
X133407025Y-66764979D01*
X134875010Y-65296994D02*
X134875010Y-64260990D01*
X133407025Y-66764979D02*
X134875010Y-65296994D01*
X126807999Y-64962001D02*
X127083680Y-64686320D01*
X127685010Y-69288954D02*
X127192010Y-68795954D01*
X146169999Y-63380001D02*
X147320000Y-62230000D01*
X134875010Y-64260990D02*
X135755999Y-63380001D01*
X128733842Y-64686320D02*
X131041524Y-66994002D01*
%TO.N,HSE_OUT*%
X124064990Y-65444990D02*
X122120000Y-63500000D01*
X124064990Y-69369990D02*
X124064990Y-65444990D01*
X125885000Y-71190000D02*
X124064990Y-69369990D01*
X126635000Y-71190000D02*
X125885000Y-71190000D01*
X122107000Y-63487000D02*
X122120000Y-63500000D01*
X117094000Y-63487000D02*
X122107000Y-63487000D01*
%TO.N,HSE_IN*%
X130670000Y-64884000D02*
X130670000Y-65405000D01*
X129286000Y-63500000D02*
X130670000Y-64884000D01*
X127000000Y-63500000D02*
X129286000Y-63500000D01*
X125603000Y-69270944D02*
X125603000Y-64897000D01*
X125476000Y-69397944D02*
X125603000Y-69270944D01*
X125603000Y-64897000D02*
X127000000Y-63500000D01*
X125476000Y-69981000D02*
X125476000Y-69397944D01*
X125885000Y-70390000D02*
X125476000Y-69981000D01*
X126635000Y-70390000D02*
X125885000Y-70390000D01*
D30*
%TO.N,+3V3*%
X145100000Y-71755000D02*
X145100000Y-73930000D01*
X139700000Y-76200000D02*
X140462000Y-76200000D01*
X141536999Y-75125001D02*
X143695999Y-75125001D01*
X143904999Y-75125001D02*
X145100000Y-73930000D01*
X140462000Y-76200000D02*
X141536999Y-75125001D01*
X139650000Y-76150000D02*
X139700000Y-76200000D01*
X137795000Y-76150000D02*
X139650000Y-76150000D01*
X135945000Y-76150000D02*
X135270010Y-75475010D01*
X137795000Y-76150000D02*
X136067000Y-76150000D01*
D26*
X107315000Y-70795000D02*
X107315000Y-70485000D01*
X107935000Y-71415000D02*
X107315000Y-70795000D01*
X109010000Y-71415000D02*
X107935000Y-71415000D01*
D27*
X111175000Y-67527000D02*
X111125000Y-67577000D01*
X113030000Y-67527000D02*
X111175000Y-67527000D01*
X110223000Y-67577000D02*
X109855000Y-67945000D01*
X111125000Y-67577000D02*
X110223000Y-67577000D01*
D28*
X124333000Y-81915000D02*
X123952000Y-82296000D01*
X124905000Y-81915000D02*
X124333000Y-81915000D01*
X132810000Y-78340000D02*
X133210000Y-78740000D01*
X132810000Y-76565000D02*
X132810000Y-78340000D01*
X133210000Y-78854000D02*
X133858000Y-79502000D01*
X133210000Y-78740000D02*
X133210000Y-78854000D01*
D27*
X126365000Y-69320000D02*
X126635000Y-69590000D01*
X126365000Y-67945000D02*
X126365000Y-69320000D01*
D30*
X141536999Y-75125001D02*
X141536999Y-75125001D01*
X143695999Y-75125001D02*
X143904999Y-75125001D01*
X136067000Y-76150000D02*
X135945000Y-76150000D01*
D27*
X99060000Y-73025000D02*
X99060000Y-73850500D01*
X126365000Y-67945000D02*
X126365000Y-66928992D01*
X126365000Y-66928992D02*
X126491992Y-66802000D01*
D30*
%TO.N,VM*%
X109010000Y-75965000D02*
X106865000Y-75965000D01*
X106045000Y-75145000D02*
X106045000Y-69850000D01*
X106045000Y-69850000D02*
X106045000Y-69469000D01*
X106045000Y-69469000D02*
X106680000Y-68834000D01*
X106680000Y-68834000D02*
X107299999Y-68834000D01*
D27*
X106680000Y-68834000D02*
X107723798Y-68834000D01*
D28*
X107742798Y-68815000D02*
X107723798Y-68834000D01*
X109010000Y-68815000D02*
X107742798Y-68815000D01*
X106803000Y-75315000D02*
X106509000Y-75609000D01*
X109010000Y-75315000D02*
X106803000Y-75315000D01*
D30*
X106509000Y-75609000D02*
X106045000Y-75145000D01*
X106865000Y-75965000D02*
X106509000Y-75609000D01*
X114390000Y-77475000D02*
X115824000Y-78909000D01*
X113665000Y-77475000D02*
X114390000Y-77475000D01*
X115824000Y-78909000D02*
X115824000Y-81026000D01*
X117348000Y-82550000D02*
X119380000Y-82550000D01*
X115824000Y-81026000D02*
X117348000Y-82550000D01*
X143510000Y-79502000D02*
X144272000Y-78740000D01*
X141732000Y-79502000D02*
X143510000Y-79502000D01*
X141986000Y-78740000D02*
X141732000Y-78486000D01*
X144272000Y-78740000D02*
X141986000Y-78740000D01*
X143002000Y-77470000D02*
X144272000Y-78740000D01*
X141732000Y-77470000D02*
X143002000Y-77470000D01*
X141732000Y-79502000D02*
X141732000Y-77470000D01*
X109010000Y-75965000D02*
X110890000Y-75965000D01*
X110890000Y-75965000D02*
X111125000Y-76200000D01*
X112515034Y-76325034D02*
X113665000Y-77475000D01*
X111255327Y-76325034D02*
X112515034Y-76325034D01*
X111130293Y-76200000D02*
X111255327Y-76325034D01*
X111125000Y-76200000D02*
X111130293Y-76200000D01*
D29*
%TO.N,USB_CON_D+*%
X145575001Y-67310000D02*
X146112886Y-67847885D01*
X144780000Y-67310000D02*
X145575001Y-67310000D01*
X146112886Y-67847885D02*
X147678705Y-67847885D01*
X147678705Y-67847885D02*
X148748115Y-68917295D01*
X148748115Y-68917295D02*
X148748115Y-71711295D01*
X148748115Y-71711295D02*
X149339705Y-72302885D01*
D31*
X149426820Y-72390000D02*
X149339705Y-72302885D01*
X151000000Y-72390000D02*
X149426820Y-72390000D01*
D29*
%TO.N,USB_CON_D-*%
X145575001Y-69210000D02*
X146112886Y-68672115D01*
X144780000Y-69210000D02*
X145575001Y-69210000D01*
X146112886Y-68672115D02*
X147337295Y-68672115D01*
X147337295Y-68672115D02*
X147923885Y-69258705D01*
X147923885Y-69258705D02*
X147923885Y-72052705D01*
D31*
X151000000Y-73040000D02*
X148911180Y-73040000D01*
X148911180Y-73040000D02*
X147923885Y-72052705D01*
D26*
%TO.N,M2_IN1*%
X126635000Y-73590000D02*
X115086002Y-73590000D01*
X111968706Y-74590001D02*
X110743705Y-73365000D01*
X114086001Y-74590001D02*
X111968706Y-74590001D01*
X115086002Y-73590000D02*
X114086001Y-74590001D01*
X110743705Y-73365000D02*
X109010000Y-73365000D01*
%TO.N,M1_IN2*%
X110169300Y-70115000D02*
X109010000Y-70115000D01*
X110834311Y-69449989D02*
X110169300Y-70115000D01*
X113911691Y-69449989D02*
X110834311Y-69449989D01*
X114546703Y-70085001D02*
X113911691Y-69449989D01*
X120885001Y-70085001D02*
X114546703Y-70085001D01*
X121285000Y-70485000D02*
X120885001Y-70085001D01*
X133610000Y-68215000D02*
X133610000Y-68965000D01*
X132886821Y-69688179D02*
X132380313Y-69688179D01*
X133610000Y-68965000D02*
X132886821Y-69688179D01*
%TO.N,M1_IN1*%
X120015000Y-71120000D02*
X115016002Y-71120000D01*
X115016002Y-71120000D02*
X113746002Y-69850000D01*
X110085000Y-70765000D02*
X109010000Y-70765000D01*
X111000000Y-69850000D02*
X110085000Y-70765000D01*
X113746002Y-69850000D02*
X111000000Y-69850000D01*
X134235000Y-74390000D02*
X132842000Y-72997000D01*
X134985000Y-74390000D02*
X134235000Y-74390000D01*
X132842000Y-72997000D02*
X132842000Y-70866000D01*
%TO.N,LED_STATUS*%
X125476000Y-77978000D02*
X127254000Y-77978000D01*
X131210000Y-76565000D02*
X131210000Y-75700766D01*
X131210000Y-75700766D02*
X130509294Y-75000060D01*
%TO.N,M2_IN2*%
X114251690Y-74990012D02*
X111803017Y-74990012D01*
X111803017Y-74990012D02*
X110828005Y-74015000D01*
X126635000Y-74390000D02*
X114851702Y-74390000D01*
X110828005Y-74015000D02*
X109010000Y-74015000D01*
X114851702Y-74390000D02*
X114251690Y-74990012D01*
D30*
%TO.N,M1_OUT1*%
X99060000Y-62230000D02*
X99060000Y-63500000D01*
X101810000Y-66250000D02*
X101810000Y-68815000D01*
X99060000Y-63500000D02*
X101810000Y-66250000D01*
X101810000Y-68815000D02*
X101810000Y-69054999D01*
%TO.N,M2_OUT2*%
X111760000Y-82550000D02*
X109220000Y-80010000D01*
X109220000Y-80010000D02*
X104775000Y-80010000D01*
X104775000Y-80010000D02*
X104140000Y-79375000D01*
X104140000Y-79375000D02*
X104140000Y-73660000D01*
X104140000Y-73660000D02*
X103505000Y-73025000D01*
D27*
X102150000Y-73025000D02*
X101839001Y-73335999D01*
X103505000Y-73025000D02*
X102150000Y-73025000D01*
X102120000Y-73025000D02*
X101839001Y-72744001D01*
X102150000Y-73025000D02*
X102120000Y-73025000D01*
D28*
X103195000Y-72715000D02*
X103505000Y-73025000D01*
X101810000Y-72715000D02*
X103195000Y-72715000D01*
D30*
%TO.N,M2_OUT1*%
X99060000Y-82550000D02*
X99060000Y-80010000D01*
X101810000Y-77260000D02*
X101810000Y-75725001D01*
X99060000Y-80010000D02*
X101810000Y-77260000D01*
%TO.N,M1_OUT2*%
X111760000Y-62230000D02*
X111760000Y-62865000D01*
X111760000Y-62865000D02*
X109220000Y-65405000D01*
X109220000Y-65405000D02*
X104775000Y-65405000D01*
X104775000Y-65405000D02*
X104140000Y-66040000D01*
X104140000Y-71120000D02*
X103705009Y-71554991D01*
X104140000Y-66040000D02*
X104140000Y-71120000D01*
X103705009Y-71554991D02*
X103520001Y-71554991D01*
D27*
X102320009Y-71554991D02*
X101839008Y-72035992D01*
X103451009Y-71554991D02*
X102320009Y-71554991D01*
X103705009Y-71554991D02*
X103451009Y-71554991D01*
D28*
X101993000Y-71882000D02*
X101810000Y-72065000D01*
X103124000Y-71882000D02*
X101993000Y-71882000D01*
X103124000Y-71882000D02*
X103451009Y-71554991D01*
D26*
%TO.N,Net-(D3-Pad1)*%
X132550500Y-62230000D02*
X132588000Y-62267500D01*
X131064000Y-62230000D02*
X132550500Y-62230000D01*
%TO.N,Net-(D2-Pad1)*%
X125438500Y-79590500D02*
X125476000Y-79553000D01*
X123825000Y-79590500D02*
X125438500Y-79590500D01*
%TO.N,UART_TX*%
X134137500Y-62712500D02*
X134620000Y-62230000D01*
X133796002Y-72351002D02*
X133796002Y-70295996D01*
X134985000Y-72790000D02*
X134235000Y-72790000D01*
X133796002Y-70295996D02*
X133604000Y-70103994D01*
X134235000Y-72790000D02*
X133796002Y-72351002D01*
X133007500Y-63842500D02*
X134620000Y-62230000D01*
X132588000Y-63842500D02*
X133007500Y-63842500D01*
%TO.N,UART_RX*%
X135960000Y-73590000D02*
X136525000Y-73025000D01*
X134985000Y-73590000D02*
X135960000Y-73590000D01*
%TO.N,Net-(R2-Pad2)*%
X99821000Y-72136000D02*
X99060000Y-71375000D01*
X100076000Y-72136000D02*
X99821000Y-72136000D01*
X109010000Y-72065000D02*
X107640000Y-72065000D01*
%TD*%
D28*
%TO.N,VUSB*%
X149970506Y-73770537D02*
X150080820Y-73829502D01*
X150200518Y-73865812D01*
X150303179Y-73875923D01*
X150211314Y-73951314D01*
X150072604Y-74120334D01*
X149969532Y-74313167D01*
X149906062Y-74522403D01*
X149890000Y-74685480D01*
X149890000Y-75094521D01*
X149906062Y-75257598D01*
X149969532Y-75466834D01*
X150072604Y-75659666D01*
X150211315Y-75828686D01*
X150380335Y-75967396D01*
X150573167Y-76070468D01*
X150782403Y-76133938D01*
X151000000Y-76155370D01*
X151217598Y-76133938D01*
X151426834Y-76070468D01*
X151619666Y-75967396D01*
X151765000Y-75848124D01*
X151765000Y-79883000D01*
X146939000Y-79883000D01*
X146939000Y-77470000D01*
X146936560Y-77445224D01*
X146929333Y-77421399D01*
X146917597Y-77399443D01*
X146901803Y-77380197D01*
X146882557Y-77364403D01*
X146860601Y-77352667D01*
X146836776Y-77345440D01*
X146812000Y-77343000D01*
X146356606Y-77343000D01*
X145415000Y-76401394D01*
X145415000Y-75565000D01*
X148844000Y-75565000D01*
X148868776Y-75562560D01*
X148892601Y-75555333D01*
X148914557Y-75543597D01*
X148933803Y-75527803D01*
X148949597Y-75508557D01*
X148961333Y-75486601D01*
X148968560Y-75462776D01*
X148971000Y-75438000D01*
X148971000Y-73762630D01*
X149960871Y-73762630D01*
X149970506Y-73770537D01*
%TA.AperFunction,Conductor*%
D32*
G36*
X149970506Y-73770537D02*
G01*
X150080820Y-73829502D01*
X150200518Y-73865812D01*
X150303179Y-73875923D01*
X150211314Y-73951314D01*
X150072604Y-74120334D01*
X149969532Y-74313167D01*
X149906062Y-74522403D01*
X149890000Y-74685480D01*
X149890000Y-75094521D01*
X149906062Y-75257598D01*
X149969532Y-75466834D01*
X150072604Y-75659666D01*
X150211315Y-75828686D01*
X150380335Y-75967396D01*
X150573167Y-76070468D01*
X150782403Y-76133938D01*
X151000000Y-76155370D01*
X151217598Y-76133938D01*
X151426834Y-76070468D01*
X151619666Y-75967396D01*
X151765000Y-75848124D01*
X151765000Y-79883000D01*
X146939000Y-79883000D01*
X146939000Y-77470000D01*
X146936560Y-77445224D01*
X146929333Y-77421399D01*
X146917597Y-77399443D01*
X146901803Y-77380197D01*
X146882557Y-77364403D01*
X146860601Y-77352667D01*
X146836776Y-77345440D01*
X146812000Y-77343000D01*
X146356606Y-77343000D01*
X145415000Y-76401394D01*
X145415000Y-75565000D01*
X148844000Y-75565000D01*
X148868776Y-75562560D01*
X148892601Y-75555333D01*
X148914557Y-75543597D01*
X148933803Y-75527803D01*
X148949597Y-75508557D01*
X148961333Y-75486601D01*
X148968560Y-75462776D01*
X148971000Y-75438000D01*
X148971000Y-73762630D01*
X149960871Y-73762630D01*
X149970506Y-73770537D01*
G37*
%TD.AperFunction*%
%TD*%
D28*
%TO.N,GND*%
X118999000Y-68755001D02*
X116026308Y-68755001D01*
X114662902Y-66482659D01*
X114648062Y-66462669D01*
X114629607Y-66445958D01*
X114608247Y-66433168D01*
X114584802Y-66424792D01*
X114554000Y-66421000D01*
X113727729Y-66421000D01*
X113678254Y-66405992D01*
X113505000Y-66388928D01*
X112555000Y-66388928D01*
X112381746Y-66405992D01*
X112332271Y-66421000D01*
X110871000Y-66421000D01*
X110871000Y-65599968D01*
X112306452Y-64643000D01*
X118999000Y-64643000D01*
X118999000Y-68755001D01*
%TA.AperFunction,Conductor*%
D32*
G36*
X118999000Y-68755001D02*
G01*
X116026308Y-68755001D01*
X114662902Y-66482659D01*
X114648062Y-66462669D01*
X114629607Y-66445958D01*
X114608247Y-66433168D01*
X114584802Y-66424792D01*
X114554000Y-66421000D01*
X113727729Y-66421000D01*
X113678254Y-66405992D01*
X113505000Y-66388928D01*
X112555000Y-66388928D01*
X112381746Y-66405992D01*
X112332271Y-66421000D01*
X110871000Y-66421000D01*
X110871000Y-65599968D01*
X112306452Y-64643000D01*
X118999000Y-64643000D01*
X118999000Y-68755001D01*
G37*
%TD.AperFunction*%
%TD*%
D28*
%TO.N,GND*%
X154280000Y-76327000D02*
X152781000Y-76327000D01*
X152781000Y-71882000D01*
X152778560Y-71857224D01*
X152771333Y-71833399D01*
X152759597Y-71811443D01*
X152743803Y-71792197D01*
X152724447Y-71776330D01*
X152309075Y-71499415D01*
X152300812Y-71415518D01*
X152264502Y-71295820D01*
X152205537Y-71185506D01*
X152126185Y-71088815D01*
X152029494Y-71009463D01*
X151919180Y-70950498D01*
X151799482Y-70914188D01*
X151675000Y-70901928D01*
X150325000Y-70901928D01*
X150241000Y-70910201D01*
X150241000Y-68453000D01*
X154280001Y-68453000D01*
X154280000Y-76327000D01*
%TA.AperFunction,Conductor*%
D32*
G36*
X154280000Y-76327000D02*
G01*
X152781000Y-76327000D01*
X152781000Y-71882000D01*
X152778560Y-71857224D01*
X152771333Y-71833399D01*
X152759597Y-71811443D01*
X152743803Y-71792197D01*
X152724447Y-71776330D01*
X152309075Y-71499415D01*
X152300812Y-71415518D01*
X152264502Y-71295820D01*
X152205537Y-71185506D01*
X152126185Y-71088815D01*
X152029494Y-71009463D01*
X151919180Y-70950498D01*
X151799482Y-70914188D01*
X151675000Y-70901928D01*
X150325000Y-70901928D01*
X150241000Y-70910201D01*
X150241000Y-68453000D01*
X154280001Y-68453000D01*
X154280000Y-76327000D01*
G37*
%TD.AperFunction*%
%TD*%
M02*
