%TF.GenerationSoftware,KiCad,Pcbnew,(5.1.9)-1*%
%TF.CreationDate,2021-05-16T17:52:49+02:00*%
%TF.ProjectId,SojournerST,536f6a6f-7572-46e6-9572-53542e6b6963,rev?*%
%TF.SameCoordinates,Original*%
%TF.FileFunction,Legend,Top*%
%TF.FilePolarity,Positive*%
%FSLAX46Y46*%
G04 Gerber Fmt 4.6, Leading zero omitted, Abs format (unit mm)*
G04 Created by KiCad (PCBNEW (5.1.9)-1) date 2021-05-16 17:52:49*
%MOMM*%
%LPD*%
G01*
G04 APERTURE LIST*
%ADD10C,0.150000*%
%ADD11C,0.120000*%
G04 APERTURE END LIST*
D10*
X145796000Y-69064142D02*
X145843619Y-69111761D01*
X145796000Y-69159380D01*
X145748380Y-69111761D01*
X145796000Y-69064142D01*
X145796000Y-69159380D01*
D11*
X152146000Y-82042000D02*
X152146000Y-83566000D01*
X151130000Y-82042000D02*
X151130000Y-83566000D01*
X150241000Y-82042000D02*
X150241000Y-83566000D01*
X149098000Y-82042000D02*
X149098000Y-83566000D01*
X148590000Y-82042000D02*
X148590000Y-83566000D01*
X147701000Y-82042000D02*
X147701000Y-83566000D01*
X146558000Y-82042000D02*
X146558000Y-83566000D01*
X153162000Y-82042000D02*
X146558000Y-82042000D01*
X153162000Y-83566000D02*
X153162000Y-82042000D01*
X146558000Y-83566000D02*
X153162000Y-83566000D01*
D10*
X146883809Y-83208761D02*
X147026666Y-83256380D01*
X147264761Y-83256380D01*
X147360000Y-83208761D01*
X147407619Y-83161142D01*
X147455238Y-83065904D01*
X147455238Y-82970666D01*
X147407619Y-82875428D01*
X147360000Y-82827809D01*
X147264761Y-82780190D01*
X147074285Y-82732571D01*
X146979047Y-82684952D01*
X146931428Y-82637333D01*
X146883809Y-82542095D01*
X146883809Y-82446857D01*
X146931428Y-82351619D01*
X146979047Y-82304000D01*
X147074285Y-82256380D01*
X147312380Y-82256380D01*
X147455238Y-82304000D01*
X148455238Y-83161142D02*
X148407619Y-83208761D01*
X148264761Y-83256380D01*
X148169523Y-83256380D01*
X148026666Y-83208761D01*
X147931428Y-83113523D01*
X147883809Y-83018285D01*
X147836190Y-82827809D01*
X147836190Y-82684952D01*
X147883809Y-82494476D01*
X147931428Y-82399238D01*
X148026666Y-82304000D01*
X148169523Y-82256380D01*
X148264761Y-82256380D01*
X148407619Y-82304000D01*
X148455238Y-82351619D01*
X148883809Y-83256380D02*
X148883809Y-82256380D01*
X149550476Y-82256380D02*
X149740952Y-82256380D01*
X149836190Y-82304000D01*
X149931428Y-82399238D01*
X149979047Y-82589714D01*
X149979047Y-82923047D01*
X149931428Y-83113523D01*
X149836190Y-83208761D01*
X149740952Y-83256380D01*
X149550476Y-83256380D01*
X149455238Y-83208761D01*
X149360000Y-83113523D01*
X149312380Y-82923047D01*
X149312380Y-82589714D01*
X149360000Y-82399238D01*
X149455238Y-82304000D01*
X149550476Y-82256380D01*
X150740952Y-82732571D02*
X150883809Y-82780190D01*
X150931428Y-82827809D01*
X150979047Y-82923047D01*
X150979047Y-83065904D01*
X150931428Y-83161142D01*
X150883809Y-83208761D01*
X150788571Y-83256380D01*
X150407619Y-83256380D01*
X150407619Y-82256380D01*
X150740952Y-82256380D01*
X150836190Y-82304000D01*
X150883809Y-82351619D01*
X150931428Y-82446857D01*
X150931428Y-82542095D01*
X150883809Y-82637333D01*
X150836190Y-82684952D01*
X150740952Y-82732571D01*
X150407619Y-82732571D01*
X151264761Y-82256380D02*
X151598095Y-83256380D01*
X151931428Y-82256380D01*
X152788571Y-82304000D02*
X152693333Y-82256380D01*
X152550476Y-82256380D01*
X152407619Y-82304000D01*
X152312380Y-82399238D01*
X152264761Y-82494476D01*
X152217142Y-82684952D01*
X152217142Y-82827809D01*
X152264761Y-83018285D01*
X152312380Y-83113523D01*
X152407619Y-83208761D01*
X152550476Y-83256380D01*
X152645714Y-83256380D01*
X152788571Y-83208761D01*
X152836190Y-83161142D01*
X152836190Y-82827809D01*
X152645714Y-82827809D01*
D11*
X146050000Y-67564000D02*
X149098000Y-67564000D01*
X147066000Y-66040000D02*
X147066000Y-69088000D01*
X148082000Y-66040000D02*
X148082000Y-69088000D01*
X149098000Y-66040000D02*
X148082000Y-66040000D01*
X149098000Y-69088000D02*
X149098000Y-66040000D01*
X146050000Y-69088000D02*
X149098000Y-69088000D01*
X145990000Y-66100000D02*
X146050000Y-69088000D01*
D10*
X146954952Y-67191380D02*
X146621619Y-66715190D01*
X146383523Y-67191380D02*
X146383523Y-66191380D01*
X146764476Y-66191380D01*
X146859714Y-66239000D01*
X146907333Y-66286619D01*
X146954952Y-66381857D01*
X146954952Y-66524714D01*
X146907333Y-66619952D01*
X146859714Y-66667571D01*
X146764476Y-66715190D01*
X146383523Y-66715190D01*
X147907333Y-66239000D02*
X147812095Y-66191380D01*
X147669238Y-66191380D01*
X147526380Y-66239000D01*
X147431142Y-66334238D01*
X147383523Y-66429476D01*
X147335904Y-66619952D01*
X147335904Y-66762809D01*
X147383523Y-66953285D01*
X147431142Y-67048523D01*
X147526380Y-67143761D01*
X147669238Y-67191380D01*
X147764476Y-67191380D01*
X147907333Y-67143761D01*
X147954952Y-67096142D01*
X147954952Y-66762809D01*
X147764476Y-66762809D01*
X148240666Y-66191380D02*
X148574000Y-67191380D01*
X148907333Y-66191380D01*
X146478761Y-67841380D02*
X146669238Y-67841380D01*
X146764476Y-67889000D01*
X146859714Y-67984238D01*
X146907333Y-68174714D01*
X146907333Y-68508047D01*
X146859714Y-68698523D01*
X146764476Y-68793761D01*
X146669238Y-68841380D01*
X146478761Y-68841380D01*
X146383523Y-68793761D01*
X146288285Y-68698523D01*
X146240666Y-68508047D01*
X146240666Y-68174714D01*
X146288285Y-67984238D01*
X146383523Y-67889000D01*
X146478761Y-67841380D01*
X147335904Y-68841380D02*
X147335904Y-67841380D01*
X147574000Y-67841380D01*
X147716857Y-67889000D01*
X147812095Y-67984238D01*
X147859714Y-68079476D01*
X147907333Y-68269952D01*
X147907333Y-68412809D01*
X147859714Y-68603285D01*
X147812095Y-68698523D01*
X147716857Y-68793761D01*
X147574000Y-68841380D01*
X147335904Y-68841380D01*
X148907333Y-68746142D02*
X148859714Y-68793761D01*
X148716857Y-68841380D01*
X148621619Y-68841380D01*
X148478761Y-68793761D01*
X148383523Y-68698523D01*
X148335904Y-68603285D01*
X148288285Y-68412809D01*
X148288285Y-68269952D01*
X148335904Y-68079476D01*
X148383523Y-67984238D01*
X148478761Y-67889000D01*
X148621619Y-67841380D01*
X148716857Y-67841380D01*
X148859714Y-67889000D01*
X148907333Y-67936619D01*
X139200000Y-66293904D02*
X139152380Y-66389142D01*
X139152380Y-66532000D01*
X139200000Y-66674857D01*
X139295238Y-66770095D01*
X139390476Y-66817714D01*
X139580952Y-66865333D01*
X139723809Y-66865333D01*
X139914285Y-66817714D01*
X140009523Y-66770095D01*
X140104761Y-66674857D01*
X140152380Y-66532000D01*
X140152380Y-66436761D01*
X140104761Y-66293904D01*
X140057142Y-66246285D01*
X139723809Y-66246285D01*
X139723809Y-66436761D01*
X140152380Y-65817714D02*
X139152380Y-65817714D01*
X140152380Y-65246285D01*
X139152380Y-65246285D01*
X140152380Y-64770095D02*
X139152380Y-64770095D01*
X139152380Y-64532000D01*
X139200000Y-64389142D01*
X139295238Y-64293904D01*
X139390476Y-64246285D01*
X139580952Y-64198666D01*
X139723809Y-64198666D01*
X139914285Y-64246285D01*
X140009523Y-64293904D01*
X140104761Y-64389142D01*
X140152380Y-64532000D01*
X140152380Y-64770095D01*
X128422157Y-80668761D02*
X128559062Y-80716380D01*
X128797157Y-80716380D01*
X128898348Y-80668761D01*
X128951919Y-80621142D01*
X129011443Y-80525904D01*
X129023348Y-80430666D01*
X128987633Y-80335428D01*
X128945967Y-80287809D01*
X128856681Y-80240190D01*
X128672157Y-80192571D01*
X128582872Y-80144952D01*
X128541205Y-80097333D01*
X128505491Y-80002095D01*
X128517395Y-79906857D01*
X128576919Y-79811619D01*
X128630491Y-79764000D01*
X128731681Y-79716380D01*
X128969776Y-79716380D01*
X129106681Y-79764000D01*
X129416205Y-80716380D02*
X129541205Y-79716380D01*
X129922157Y-79716380D01*
X130011443Y-79764000D01*
X130053110Y-79811619D01*
X130088824Y-79906857D01*
X130070967Y-80049714D01*
X130011443Y-80144952D01*
X129957872Y-80192571D01*
X129856681Y-80240190D01*
X129475729Y-80240190D01*
X130416205Y-80716380D02*
X130541205Y-79716380D01*
D11*
X137414000Y-81026000D02*
X128270000Y-81026000D01*
X144780000Y-61468000D02*
X144780000Y-65786000D01*
D10*
X144168761Y-64951175D02*
X144216380Y-64814270D01*
X144216380Y-64576175D01*
X144168761Y-64474985D01*
X144121142Y-64421413D01*
X144025904Y-64361889D01*
X143930666Y-64349985D01*
X143835428Y-64385699D01*
X143787809Y-64427366D01*
X143740190Y-64516651D01*
X143692571Y-64701175D01*
X143644952Y-64790461D01*
X143597333Y-64832127D01*
X143502095Y-64867842D01*
X143406857Y-64855937D01*
X143311619Y-64796413D01*
X143264000Y-64742842D01*
X143216380Y-64641651D01*
X143216380Y-64403556D01*
X143264000Y-64266651D01*
X143216380Y-63927366D02*
X144216380Y-63814270D01*
X143502095Y-63534508D01*
X144216380Y-63433318D01*
X143216380Y-63070223D01*
X144216380Y-62814270D02*
X143216380Y-62689270D01*
X143216380Y-62451175D01*
X143264000Y-62314270D01*
X143359238Y-62230937D01*
X143454476Y-62195223D01*
X143644952Y-62171413D01*
X143787809Y-62189270D01*
X143978285Y-62260699D01*
X144073523Y-62320223D01*
X144168761Y-62427366D01*
X144216380Y-62576175D01*
X144216380Y-62814270D01*
X130389761Y-74580476D02*
X130437380Y-74437619D01*
X130437380Y-74199523D01*
X130389761Y-74104285D01*
X130342142Y-74056666D01*
X130246904Y-74009047D01*
X130151666Y-74009047D01*
X130056428Y-74056666D01*
X130008809Y-74104285D01*
X129961190Y-74199523D01*
X129913571Y-74390000D01*
X129865952Y-74485238D01*
X129818333Y-74532857D01*
X129723095Y-74580476D01*
X129627857Y-74580476D01*
X129532619Y-74532857D01*
X129485000Y-74485238D01*
X129437380Y-74390000D01*
X129437380Y-74151904D01*
X129485000Y-74009047D01*
X129437380Y-73723333D02*
X129437380Y-73151904D01*
X130437380Y-73437619D02*
X129437380Y-73437619D01*
X130437380Y-72818571D02*
X129437380Y-72818571D01*
X130151666Y-72485238D01*
X129437380Y-72151904D01*
X130437380Y-72151904D01*
X129437380Y-71770952D02*
X129437380Y-71151904D01*
X129818333Y-71485238D01*
X129818333Y-71342380D01*
X129865952Y-71247142D01*
X129913571Y-71199523D01*
X130008809Y-71151904D01*
X130246904Y-71151904D01*
X130342142Y-71199523D01*
X130389761Y-71247142D01*
X130437380Y-71342380D01*
X130437380Y-71628095D01*
X130389761Y-71723333D01*
X130342142Y-71770952D01*
X129532619Y-70770952D02*
X129485000Y-70723333D01*
X129437380Y-70628095D01*
X129437380Y-70390000D01*
X129485000Y-70294761D01*
X129532619Y-70247142D01*
X129627857Y-70199523D01*
X129723095Y-70199523D01*
X129865952Y-70247142D01*
X130437380Y-70818571D01*
X130437380Y-70199523D01*
X131135000Y-74556666D02*
X131087380Y-74651904D01*
X131087380Y-74794761D01*
X131135000Y-74937619D01*
X131230238Y-75032857D01*
X131325476Y-75080476D01*
X131515952Y-75128095D01*
X131658809Y-75128095D01*
X131849285Y-75080476D01*
X131944523Y-75032857D01*
X132039761Y-74937619D01*
X132087380Y-74794761D01*
X132087380Y-74699523D01*
X132039761Y-74556666D01*
X131992142Y-74509047D01*
X131658809Y-74509047D01*
X131658809Y-74699523D01*
X131420714Y-73651904D02*
X132087380Y-73651904D01*
X131039761Y-73890000D02*
X131754047Y-74128095D01*
X131754047Y-73509047D01*
X131420714Y-72699523D02*
X132087380Y-72699523D01*
X131039761Y-72937619D02*
X131754047Y-73175714D01*
X131754047Y-72556666D01*
X132087380Y-71651904D02*
X132087380Y-72223333D01*
X132087380Y-71937619D02*
X131087380Y-71937619D01*
X131230238Y-72032857D01*
X131325476Y-72128095D01*
X131373095Y-72223333D01*
X132087380Y-71223333D02*
X131087380Y-71223333D01*
X132087380Y-70651904D02*
X131515952Y-71080476D01*
X131087380Y-70651904D02*
X131658809Y-71223333D01*
X131563571Y-69890000D02*
X131611190Y-69747142D01*
X131658809Y-69699523D01*
X131754047Y-69651904D01*
X131896904Y-69651904D01*
X131992142Y-69699523D01*
X132039761Y-69747142D01*
X132087380Y-69842380D01*
X132087380Y-70223333D01*
X131087380Y-70223333D01*
X131087380Y-69890000D01*
X131135000Y-69794761D01*
X131182619Y-69747142D01*
X131277857Y-69699523D01*
X131373095Y-69699523D01*
X131468333Y-69747142D01*
X131515952Y-69794761D01*
X131563571Y-69890000D01*
X131563571Y-70223333D01*
X104608380Y-76532857D02*
X104608380Y-75961428D01*
X105608380Y-76247142D02*
X104608380Y-76247142D01*
X105084571Y-75294761D02*
X105132190Y-75151904D01*
X105179809Y-75104285D01*
X105275047Y-75056666D01*
X105417904Y-75056666D01*
X105513142Y-75104285D01*
X105560761Y-75151904D01*
X105608380Y-75247142D01*
X105608380Y-75628095D01*
X104608380Y-75628095D01*
X104608380Y-75294761D01*
X104656000Y-75199523D01*
X104703619Y-75151904D01*
X104798857Y-75104285D01*
X104894095Y-75104285D01*
X104989333Y-75151904D01*
X105036952Y-75199523D01*
X105084571Y-75294761D01*
X105084571Y-75628095D01*
X104608380Y-74199523D02*
X104608380Y-74390000D01*
X104656000Y-74485238D01*
X104703619Y-74532857D01*
X104846476Y-74628095D01*
X105036952Y-74675714D01*
X105417904Y-74675714D01*
X105513142Y-74628095D01*
X105560761Y-74580476D01*
X105608380Y-74485238D01*
X105608380Y-74294761D01*
X105560761Y-74199523D01*
X105513142Y-74151904D01*
X105417904Y-74104285D01*
X105179809Y-74104285D01*
X105084571Y-74151904D01*
X105036952Y-74199523D01*
X104989333Y-74294761D01*
X104989333Y-74485238D01*
X105036952Y-74580476D01*
X105084571Y-74628095D01*
X105179809Y-74675714D01*
X104608380Y-73247142D02*
X104608380Y-73437619D01*
X104656000Y-73532857D01*
X104703619Y-73580476D01*
X104846476Y-73675714D01*
X105036952Y-73723333D01*
X105417904Y-73723333D01*
X105513142Y-73675714D01*
X105560761Y-73628095D01*
X105608380Y-73532857D01*
X105608380Y-73342380D01*
X105560761Y-73247142D01*
X105513142Y-73199523D01*
X105417904Y-73151904D01*
X105179809Y-73151904D01*
X105084571Y-73199523D01*
X105036952Y-73247142D01*
X104989333Y-73342380D01*
X104989333Y-73532857D01*
X105036952Y-73628095D01*
X105084571Y-73675714D01*
X105179809Y-73723333D01*
X105608380Y-72199523D02*
X105608380Y-72770952D01*
X105608380Y-72485238D02*
X104608380Y-72485238D01*
X104751238Y-72580476D01*
X104846476Y-72675714D01*
X104894095Y-72770952D01*
X104703619Y-71818571D02*
X104656000Y-71770952D01*
X104608380Y-71675714D01*
X104608380Y-71437619D01*
X104656000Y-71342380D01*
X104703619Y-71294761D01*
X104798857Y-71247142D01*
X104894095Y-71247142D01*
X105036952Y-71294761D01*
X105608380Y-71866190D01*
X105608380Y-71247142D01*
X105084571Y-70485238D02*
X105084571Y-70818571D01*
X105608380Y-70818571D02*
X104608380Y-70818571D01*
X104608380Y-70342380D01*
X105608380Y-69961428D02*
X104608380Y-69961428D01*
X105608380Y-69390000D01*
X104608380Y-69390000D01*
X104656000Y-68390000D02*
X104608380Y-68485238D01*
X104608380Y-68628095D01*
X104656000Y-68770952D01*
X104751238Y-68866190D01*
X104846476Y-68913809D01*
X105036952Y-68961428D01*
X105179809Y-68961428D01*
X105370285Y-68913809D01*
X105465523Y-68866190D01*
X105560761Y-68770952D01*
X105608380Y-68628095D01*
X105608380Y-68532857D01*
X105560761Y-68390000D01*
X105513142Y-68342380D01*
X105179809Y-68342380D01*
X105179809Y-68532857D01*
X137612380Y-65190666D02*
X137136190Y-65524000D01*
X137612380Y-65762095D02*
X136612380Y-65762095D01*
X136612380Y-65381142D01*
X136660000Y-65285904D01*
X136707619Y-65238285D01*
X136802857Y-65190666D01*
X136945714Y-65190666D01*
X137040952Y-65238285D01*
X137088571Y-65285904D01*
X137136190Y-65381142D01*
X137136190Y-65762095D01*
X136612380Y-64857333D02*
X137612380Y-64190666D01*
X136612380Y-64190666D02*
X137612380Y-64857333D01*
X134072380Y-65785904D02*
X134072380Y-65214476D01*
X135072380Y-65500190D02*
X134072380Y-65500190D01*
X134072380Y-64976380D02*
X135072380Y-64309714D01*
X134072380Y-64309714D02*
X135072380Y-64976380D01*
X101100000Y-66137214D02*
X101052380Y-66232452D01*
X101052380Y-66375309D01*
X101100000Y-66518166D01*
X101195238Y-66613404D01*
X101290476Y-66661023D01*
X101480952Y-66708642D01*
X101623809Y-66708642D01*
X101814285Y-66661023D01*
X101909523Y-66613404D01*
X102004761Y-66518166D01*
X102052380Y-66375309D01*
X102052380Y-66280071D01*
X102004761Y-66137214D01*
X101957142Y-66089595D01*
X101623809Y-66089595D01*
X101623809Y-66280071D01*
X102052380Y-65661023D02*
X101052380Y-65661023D01*
X102052380Y-65089595D01*
X101052380Y-65089595D01*
X102052380Y-64613404D02*
X101052380Y-64613404D01*
X101052380Y-64375309D01*
X101100000Y-64232452D01*
X101195238Y-64137214D01*
X101290476Y-64089595D01*
X101480952Y-64041976D01*
X101623809Y-64041976D01*
X101814285Y-64089595D01*
X101909523Y-64137214D01*
X102004761Y-64232452D01*
X102052380Y-64375309D01*
X102052380Y-64613404D01*
X110821357Y-64968380D02*
X110821357Y-63968380D01*
X111154690Y-64682666D01*
X111488023Y-63968380D01*
X111488023Y-64968380D01*
X111916595Y-64063619D02*
X111964214Y-64016000D01*
X112059452Y-63968380D01*
X112297547Y-63968380D01*
X112392785Y-64016000D01*
X112440404Y-64063619D01*
X112488023Y-64158857D01*
X112488023Y-64254095D01*
X112440404Y-64396952D01*
X111868976Y-64968380D01*
X112488023Y-64968380D01*
X99512380Y-65708642D02*
X98512380Y-65708642D01*
X99226666Y-65375309D01*
X98512380Y-65041976D01*
X99512380Y-65041976D01*
X99512380Y-64041976D02*
X99512380Y-64613404D01*
X99512380Y-64327690D02*
X98512380Y-64327690D01*
X98655238Y-64422928D01*
X98750476Y-64518166D01*
X98798095Y-64613404D01*
X104068571Y-67422928D02*
X104068571Y-67089595D01*
X104592380Y-66946738D02*
X104592380Y-67422928D01*
X103592380Y-67422928D01*
X103592380Y-66946738D01*
X104592380Y-66518166D02*
X103592380Y-66518166D01*
X104592380Y-65946738D01*
X103592380Y-65946738D01*
X104497142Y-64899119D02*
X104544761Y-64946738D01*
X104592380Y-65089595D01*
X104592380Y-65184833D01*
X104544761Y-65327690D01*
X104449523Y-65422928D01*
X104354285Y-65470547D01*
X104163809Y-65518166D01*
X104020952Y-65518166D01*
X103830476Y-65470547D01*
X103735238Y-65422928D01*
X103640000Y-65327690D01*
X103592380Y-65184833D01*
X103592380Y-65089595D01*
X103640000Y-64946738D01*
X103687619Y-64899119D01*
X104306666Y-64518166D02*
X104306666Y-64041976D01*
X104592380Y-64613404D02*
X103592380Y-64280071D01*
X104592380Y-63946738D01*
X108672380Y-66470547D02*
X108672380Y-65851500D01*
X109053333Y-66184833D01*
X109053333Y-66041976D01*
X109100952Y-65946738D01*
X109148571Y-65899119D01*
X109243809Y-65851500D01*
X109481904Y-65851500D01*
X109577142Y-65899119D01*
X109624761Y-65946738D01*
X109672380Y-66041976D01*
X109672380Y-66327690D01*
X109624761Y-66422928D01*
X109577142Y-66470547D01*
X108672380Y-65565785D02*
X109672380Y-65232452D01*
X108672380Y-64899119D01*
X108672380Y-64661023D02*
X108672380Y-64041976D01*
X109053333Y-64375309D01*
X109053333Y-64232452D01*
X109100952Y-64137214D01*
X109148571Y-64089595D01*
X109243809Y-64041976D01*
X109481904Y-64041976D01*
X109577142Y-64089595D01*
X109624761Y-64137214D01*
X109672380Y-64232452D01*
X109672380Y-64518166D01*
X109624761Y-64613404D01*
X109577142Y-64661023D01*
X106608571Y-67565785D02*
X106608571Y-67232452D01*
X107132380Y-67089595D02*
X107132380Y-67565785D01*
X106132380Y-67565785D01*
X106132380Y-67089595D01*
X107132380Y-66661023D02*
X106132380Y-66661023D01*
X107132380Y-66089595D01*
X106132380Y-66089595D01*
X107037142Y-65041976D02*
X107084761Y-65089595D01*
X107132380Y-65232452D01*
X107132380Y-65327690D01*
X107084761Y-65470547D01*
X106989523Y-65565785D01*
X106894285Y-65613404D01*
X106703809Y-65661023D01*
X106560952Y-65661023D01*
X106370476Y-65613404D01*
X106275238Y-65565785D01*
X106180000Y-65470547D01*
X106132380Y-65327690D01*
X106132380Y-65232452D01*
X106180000Y-65089595D01*
X106227619Y-65041976D01*
X106608571Y-64280071D02*
X106656190Y-64137214D01*
X106703809Y-64089595D01*
X106799047Y-64041976D01*
X106941904Y-64041976D01*
X107037142Y-64089595D01*
X107084761Y-64137214D01*
X107132380Y-64232452D01*
X107132380Y-64613404D01*
X106132380Y-64613404D01*
X106132380Y-64280071D01*
X106180000Y-64184833D01*
X106227619Y-64137214D01*
X106322857Y-64089595D01*
X106418095Y-64089595D01*
X106513333Y-64137214D01*
X106560952Y-64184833D01*
X106608571Y-64280071D01*
X106608571Y-64613404D01*
X112212380Y-80436404D02*
X111212380Y-80436404D01*
X111926666Y-80103071D01*
X111212380Y-79769738D01*
X112212380Y-79769738D01*
X111307619Y-79341166D02*
X111260000Y-79293547D01*
X111212380Y-79198309D01*
X111212380Y-78960214D01*
X111260000Y-78864976D01*
X111307619Y-78817357D01*
X111402857Y-78769738D01*
X111498095Y-78769738D01*
X111640952Y-78817357D01*
X112212380Y-79388785D01*
X112212380Y-78769738D01*
X108672380Y-80531642D02*
X108672380Y-79912595D01*
X109053333Y-80245928D01*
X109053333Y-80103071D01*
X109100952Y-80007833D01*
X109148571Y-79960214D01*
X109243809Y-79912595D01*
X109481904Y-79912595D01*
X109577142Y-79960214D01*
X109624761Y-80007833D01*
X109672380Y-80103071D01*
X109672380Y-80388785D01*
X109624761Y-80484023D01*
X109577142Y-80531642D01*
X108672380Y-79626880D02*
X109672380Y-79293547D01*
X108672380Y-78960214D01*
X108672380Y-78722119D02*
X108672380Y-78103071D01*
X109053333Y-78436404D01*
X109053333Y-78293547D01*
X109100952Y-78198309D01*
X109148571Y-78150690D01*
X109243809Y-78103071D01*
X109481904Y-78103071D01*
X109577142Y-78150690D01*
X109624761Y-78198309D01*
X109672380Y-78293547D01*
X109672380Y-78579261D01*
X109624761Y-78674500D01*
X109577142Y-78722119D01*
X106608571Y-80436404D02*
X106608571Y-80103071D01*
X107132380Y-79960214D02*
X107132380Y-80436404D01*
X106132380Y-80436404D01*
X106132380Y-79960214D01*
X107132380Y-79531642D02*
X106132380Y-79531642D01*
X107132380Y-78960214D01*
X106132380Y-78960214D01*
X107037142Y-77912595D02*
X107084761Y-77960214D01*
X107132380Y-78103071D01*
X107132380Y-78198309D01*
X107084761Y-78341166D01*
X106989523Y-78436404D01*
X106894285Y-78484023D01*
X106703809Y-78531642D01*
X106560952Y-78531642D01*
X106370476Y-78484023D01*
X106275238Y-78436404D01*
X106180000Y-78341166D01*
X106132380Y-78198309D01*
X106132380Y-78103071D01*
X106180000Y-77960214D01*
X106227619Y-77912595D01*
X106608571Y-77150690D02*
X106656190Y-77007833D01*
X106703809Y-76960214D01*
X106799047Y-76912595D01*
X106941904Y-76912595D01*
X107037142Y-76960214D01*
X107084761Y-77007833D01*
X107132380Y-77103071D01*
X107132380Y-77484023D01*
X106132380Y-77484023D01*
X106132380Y-77150690D01*
X106180000Y-77055452D01*
X106227619Y-77007833D01*
X106322857Y-76960214D01*
X106418095Y-76960214D01*
X106513333Y-77007833D01*
X106560952Y-77055452D01*
X106608571Y-77150690D01*
X106608571Y-77484023D01*
X104068571Y-80436404D02*
X104068571Y-80103071D01*
X104592380Y-79960214D02*
X104592380Y-80436404D01*
X103592380Y-80436404D01*
X103592380Y-79960214D01*
X104592380Y-79531642D02*
X103592380Y-79531642D01*
X104592380Y-78960214D01*
X103592380Y-78960214D01*
X104497142Y-77912595D02*
X104544761Y-77960214D01*
X104592380Y-78103071D01*
X104592380Y-78198309D01*
X104544761Y-78341166D01*
X104449523Y-78436404D01*
X104354285Y-78484023D01*
X104163809Y-78531642D01*
X104020952Y-78531642D01*
X103830476Y-78484023D01*
X103735238Y-78436404D01*
X103640000Y-78341166D01*
X103592380Y-78198309D01*
X103592380Y-78103071D01*
X103640000Y-77960214D01*
X103687619Y-77912595D01*
X104306666Y-77531642D02*
X104306666Y-77055452D01*
X104592380Y-77626880D02*
X103592380Y-77293547D01*
X104592380Y-76960214D01*
X101100000Y-79912595D02*
X101052380Y-80007833D01*
X101052380Y-80150690D01*
X101100000Y-80293547D01*
X101195238Y-80388785D01*
X101290476Y-80436404D01*
X101480952Y-80484023D01*
X101623809Y-80484023D01*
X101814285Y-80436404D01*
X101909523Y-80388785D01*
X102004761Y-80293547D01*
X102052380Y-80150690D01*
X102052380Y-80055452D01*
X102004761Y-79912595D01*
X101957142Y-79864976D01*
X101623809Y-79864976D01*
X101623809Y-80055452D01*
X102052380Y-79436404D02*
X101052380Y-79436404D01*
X102052380Y-78864976D01*
X101052380Y-78864976D01*
X102052380Y-78388785D02*
X101052380Y-78388785D01*
X101052380Y-78150690D01*
X101100000Y-78007833D01*
X101195238Y-77912595D01*
X101290476Y-77864976D01*
X101480952Y-77817357D01*
X101623809Y-77817357D01*
X101814285Y-77864976D01*
X101909523Y-77912595D01*
X102004761Y-78007833D01*
X102052380Y-78150690D01*
X102052380Y-78388785D01*
X99512380Y-80436404D02*
X98512380Y-80436404D01*
X99226666Y-80103071D01*
X98512380Y-79769738D01*
X99512380Y-79769738D01*
X99512380Y-78769738D02*
X99512380Y-79341166D01*
X99512380Y-79055452D02*
X98512380Y-79055452D01*
X98655238Y-79150690D01*
X98750476Y-79245928D01*
X98798095Y-79341166D01*
X121420000Y-80009904D02*
X121372380Y-80105142D01*
X121372380Y-80248000D01*
X121420000Y-80390857D01*
X121515238Y-80486095D01*
X121610476Y-80533714D01*
X121800952Y-80581333D01*
X121943809Y-80581333D01*
X122134285Y-80533714D01*
X122229523Y-80486095D01*
X122324761Y-80390857D01*
X122372380Y-80248000D01*
X122372380Y-80152761D01*
X122324761Y-80009904D01*
X122277142Y-79962285D01*
X121943809Y-79962285D01*
X121943809Y-80152761D01*
X122372380Y-79533714D02*
X121372380Y-79533714D01*
X122372380Y-78962285D01*
X121372380Y-78962285D01*
X122372380Y-78486095D02*
X121372380Y-78486095D01*
X121372380Y-78248000D01*
X121420000Y-78105142D01*
X121515238Y-78009904D01*
X121610476Y-77962285D01*
X121800952Y-77914666D01*
X121943809Y-77914666D01*
X122134285Y-77962285D01*
X122229523Y-78009904D01*
X122324761Y-78105142D01*
X122372380Y-78248000D01*
X122372380Y-78486095D01*
X119086380Y-80295523D02*
X120086380Y-79962190D01*
X119086380Y-79628857D01*
X120086380Y-79295523D02*
X119086380Y-79295523D01*
X119800666Y-78962190D01*
X119086380Y-78628857D01*
X120086380Y-78628857D01*
X119086380Y-77962190D02*
X119086380Y-77771714D01*
X119134000Y-77676476D01*
X119229238Y-77581238D01*
X119419714Y-77533619D01*
X119753047Y-77533619D01*
X119943523Y-77581238D01*
X120038761Y-77676476D01*
X120086380Y-77771714D01*
X120086380Y-77962190D01*
X120038761Y-78057428D01*
X119943523Y-78152666D01*
X119753047Y-78200285D01*
X119419714Y-78200285D01*
X119229238Y-78152666D01*
X119134000Y-78057428D01*
X119086380Y-77962190D01*
X119086380Y-77247904D02*
X119086380Y-76676476D01*
X120086380Y-76962190D02*
X119086380Y-76962190D01*
X119840952Y-61428380D02*
X119840952Y-62142666D01*
X119793333Y-62285523D01*
X119698095Y-62380761D01*
X119555238Y-62428380D01*
X119460000Y-62428380D01*
X120793333Y-62428380D02*
X120317142Y-62428380D01*
X120317142Y-61428380D01*
X121698095Y-62333142D02*
X121650476Y-62380761D01*
X121507619Y-62428380D01*
X121412380Y-62428380D01*
X121269523Y-62380761D01*
X121174285Y-62285523D01*
X121126666Y-62190285D01*
X121079047Y-61999809D01*
X121079047Y-61856952D01*
X121126666Y-61666476D01*
X121174285Y-61571238D01*
X121269523Y-61476000D01*
X121412380Y-61428380D01*
X121507619Y-61428380D01*
X121650476Y-61476000D01*
X121698095Y-61523619D01*
X122412380Y-61428380D02*
X122412380Y-62142666D01*
X122364761Y-62285523D01*
X122269523Y-62380761D01*
X122126666Y-62428380D01*
X122031428Y-62428380D01*
X123364761Y-62428380D02*
X122888571Y-62428380D01*
X122888571Y-61428380D01*
X124269523Y-62333142D02*
X124221904Y-62380761D01*
X124079047Y-62428380D01*
X123983809Y-62428380D01*
X123840952Y-62380761D01*
X123745714Y-62285523D01*
X123698095Y-62190285D01*
X123650476Y-61999809D01*
X123650476Y-61856952D01*
X123698095Y-61666476D01*
X123745714Y-61571238D01*
X123840952Y-61476000D01*
X123983809Y-61428380D01*
X124079047Y-61428380D01*
X124221904Y-61476000D01*
X124269523Y-61523619D01*
X124983809Y-61428380D02*
X124983809Y-62142666D01*
X124936190Y-62285523D01*
X124840952Y-62380761D01*
X124698095Y-62428380D01*
X124602857Y-62428380D01*
X125936190Y-62428380D02*
X125460000Y-62428380D01*
X125460000Y-61428380D01*
X126840952Y-62333142D02*
X126793333Y-62380761D01*
X126650476Y-62428380D01*
X126555238Y-62428380D01*
X126412380Y-62380761D01*
X126317142Y-62285523D01*
X126269523Y-62190285D01*
X126221904Y-61999809D01*
X126221904Y-61856952D01*
X126269523Y-61666476D01*
X126317142Y-61571238D01*
X126412380Y-61476000D01*
X126555238Y-61428380D01*
X126650476Y-61428380D01*
X126793333Y-61476000D01*
X126840952Y-61523619D01*
X127555238Y-61428380D02*
X127555238Y-62142666D01*
X127507619Y-62285523D01*
X127412380Y-62380761D01*
X127269523Y-62428380D01*
X127174285Y-62428380D01*
X128507619Y-62428380D02*
X128031428Y-62428380D01*
X128031428Y-61428380D01*
X129412380Y-62333142D02*
X129364761Y-62380761D01*
X129221904Y-62428380D01*
X129126666Y-62428380D01*
X128983809Y-62380761D01*
X128888571Y-62285523D01*
X128840952Y-62190285D01*
X128793333Y-61999809D01*
X128793333Y-61856952D01*
X128840952Y-61666476D01*
X128888571Y-61571238D01*
X128983809Y-61476000D01*
X129126666Y-61428380D01*
X129221904Y-61428380D01*
X129364761Y-61476000D01*
X129412380Y-61523619D01*
D11*
%TO.C,SW1*%
X122680000Y-67290000D02*
X122680000Y-68290000D01*
X121680000Y-67290000D02*
X122680000Y-67290000D01*
X120680000Y-69290000D02*
X118080000Y-69290000D01*
X120680000Y-75490000D02*
X118080000Y-75490000D01*
X116130000Y-75390000D02*
X116130000Y-69390000D01*
X122630000Y-75290000D02*
X122630000Y-69490000D01*
%TO.C,R5*%
X131586500Y-63292258D02*
X131586500Y-62817742D01*
X130541500Y-63292258D02*
X130541500Y-62817742D01*
%TO.C,R3*%
X125492742Y-82437500D02*
X125967258Y-82437500D01*
X125492742Y-81392500D02*
X125967258Y-81392500D01*
%TO.C,D3*%
X131853000Y-61570000D02*
X131853000Y-63855000D01*
X133323000Y-61570000D02*
X131853000Y-61570000D01*
X133323000Y-63855000D02*
X133323000Y-61570000D01*
%TO.C,Y1*%
X127760000Y-60975000D02*
X121360000Y-60975000D01*
X127760000Y-66025000D02*
X121360000Y-66025000D01*
X121360000Y-60975000D02*
G75*
G03*
X121360000Y-66025000I0J-2525000D01*
G01*
X127760000Y-60975000D02*
G75*
G02*
X127760000Y-66025000I0J-2525000D01*
G01*
%TO.C,U4*%
X142780000Y-69870000D02*
X145230000Y-69870000D01*
X144580000Y-66650000D02*
X142780000Y-66650000D01*
D10*
%TO.C,U3*%
X102535000Y-68290000D02*
X100935000Y-68290000D01*
X102535000Y-76715000D02*
X108285000Y-76715000D01*
X102535000Y-68065000D02*
X108285000Y-68065000D01*
X102535000Y-76715000D02*
X102535000Y-76415000D01*
X108285000Y-76715000D02*
X108285000Y-76415000D01*
X108285000Y-68065000D02*
X108285000Y-68365000D01*
X102535000Y-68065000D02*
X102535000Y-68290000D01*
D11*
%TO.C,U2*%
X144470000Y-75690000D02*
X144470000Y-74230000D01*
X147630000Y-75690000D02*
X147630000Y-73530000D01*
X147630000Y-75690000D02*
X146700000Y-75690000D01*
X144470000Y-75690000D02*
X145400000Y-75690000D01*
%TO.C,U1*%
X127200000Y-69080000D02*
X125885000Y-69080000D01*
X127200000Y-68780000D02*
X127200000Y-69080000D01*
X127500000Y-68780000D02*
X127200000Y-68780000D01*
X134420000Y-68780000D02*
X134420000Y-69080000D01*
X134120000Y-68780000D02*
X134420000Y-68780000D01*
X127200000Y-76000000D02*
X127200000Y-75700000D01*
X127500000Y-76000000D02*
X127200000Y-76000000D01*
X134420000Y-76000000D02*
X134420000Y-75700000D01*
X134120000Y-76000000D02*
X134420000Y-76000000D01*
%TO.C,R1*%
X137239742Y-80532500D02*
X137714258Y-80532500D01*
X137239742Y-79487500D02*
X137714258Y-79487500D01*
%TO.C,R4*%
X123302500Y-78528242D02*
X123302500Y-79002758D01*
X124347500Y-78528242D02*
X124347500Y-79002758D01*
%TO.C,R2*%
X99582500Y-72437258D02*
X99582500Y-71962742D01*
X98537500Y-72437258D02*
X98537500Y-71962742D01*
%TO.C,J4*%
X153730000Y-60900000D02*
X153730000Y-62230000D01*
X152400000Y-60900000D02*
X153730000Y-60900000D01*
X153730000Y-63500000D02*
X153730000Y-66100000D01*
X151130000Y-63500000D02*
X153730000Y-63500000D01*
X151130000Y-60900000D02*
X151130000Y-63500000D01*
X153730000Y-66100000D02*
X145990000Y-66100000D01*
X151130000Y-60900000D02*
X145990000Y-60900000D01*
X145990000Y-60900000D02*
X145990000Y-66100000D01*
%TO.C,J1*%
X152720000Y-68630000D02*
X150740000Y-68630000D01*
X150740000Y-68630000D02*
X150740000Y-69050000D01*
X154690000Y-68630000D02*
X155090000Y-68630000D01*
X155090000Y-76150000D02*
X154690000Y-76150000D01*
X152720000Y-76150000D02*
X150740000Y-76150000D01*
X150740000Y-76150000D02*
X150740000Y-75730000D01*
X150060000Y-73700000D02*
X150060000Y-74150000D01*
X150510000Y-74150000D02*
X150060000Y-74150000D01*
%TO.C,D2*%
X126211000Y-80250500D02*
X126211000Y-77965500D01*
X124741000Y-80250500D02*
X126211000Y-80250500D01*
X124741000Y-77965500D02*
X124741000Y-80250500D01*
%TO.C,D1*%
X142872000Y-77090000D02*
X148272000Y-77090000D01*
X142872000Y-80390000D02*
X148272000Y-80390000D01*
X142872000Y-77090000D02*
X142872000Y-80390000D01*
%TO.C,C9*%
X116584000Y-64121420D02*
X116584000Y-64402580D01*
X117604000Y-64121420D02*
X117604000Y-64402580D01*
%TO.C,C7*%
X131304420Y-65915000D02*
X131585580Y-65915000D01*
X131304420Y-64895000D02*
X131585580Y-64895000D01*
%TO.C,C12*%
X110615000Y-76834420D02*
X110615000Y-77115580D01*
X111635000Y-76834420D02*
X111635000Y-77115580D01*
%TO.C,C11*%
X112930000Y-78163748D02*
X112930000Y-78686252D01*
X114400000Y-78163748D02*
X114400000Y-78686252D01*
%TO.C,C10*%
X111635000Y-66942580D02*
X111635000Y-66661420D01*
X110615000Y-66942580D02*
X110615000Y-66661420D01*
%TO.C,C8*%
X113765000Y-66838252D02*
X113765000Y-66315748D01*
X112295000Y-66838252D02*
X112295000Y-66315748D01*
%TO.C,C5*%
X125730580Y-67435000D02*
X125449420Y-67435000D01*
X125730580Y-68455000D02*
X125449420Y-68455000D01*
%TO.C,C3*%
X137285000Y-76784420D02*
X137285000Y-77065580D01*
X138305000Y-76784420D02*
X138305000Y-77065580D01*
%TO.C,C2*%
X133844420Y-79250000D02*
X134125580Y-79250000D01*
X133844420Y-78230000D02*
X134125580Y-78230000D01*
%TO.C,C1*%
X138965000Y-76888748D02*
X138965000Y-77411252D01*
X140435000Y-76888748D02*
X140435000Y-77411252D01*
%TO.C,C6*%
X145788748Y-72490000D02*
X146311252Y-72490000D01*
X145788748Y-71020000D02*
X146311252Y-71020000D01*
%TO.C,C4*%
X151818748Y-79475000D02*
X152341252Y-79475000D01*
X151818748Y-78005000D02*
X152341252Y-78005000D01*
%TO.C,R3*%
D10*
X125563333Y-83764380D02*
X125230000Y-83288190D01*
X124991904Y-83764380D02*
X124991904Y-82764380D01*
X125372857Y-82764380D01*
X125468095Y-82812000D01*
X125515714Y-82859619D01*
X125563333Y-82954857D01*
X125563333Y-83097714D01*
X125515714Y-83192952D01*
X125468095Y-83240571D01*
X125372857Y-83288190D01*
X124991904Y-83288190D01*
X125896666Y-82764380D02*
X126515714Y-82764380D01*
X126182380Y-83145333D01*
X126325238Y-83145333D01*
X126420476Y-83192952D01*
X126468095Y-83240571D01*
X126515714Y-83335809D01*
X126515714Y-83573904D01*
X126468095Y-83669142D01*
X126420476Y-83716761D01*
X126325238Y-83764380D01*
X126039523Y-83764380D01*
X125944285Y-83716761D01*
X125896666Y-83669142D01*
%TO.C,R1*%
X139533333Y-80462380D02*
X139200000Y-79986190D01*
X138961904Y-80462380D02*
X138961904Y-79462380D01*
X139342857Y-79462380D01*
X139438095Y-79510000D01*
X139485714Y-79557619D01*
X139533333Y-79652857D01*
X139533333Y-79795714D01*
X139485714Y-79890952D01*
X139438095Y-79938571D01*
X139342857Y-79986190D01*
X138961904Y-79986190D01*
X140485714Y-80462380D02*
X139914285Y-80462380D01*
X140200000Y-80462380D02*
X140200000Y-79462380D01*
X140104761Y-79605238D01*
X140009523Y-79700476D01*
X139914285Y-79748095D01*
%TO.C,R4*%
X124404380Y-76366666D02*
X123928190Y-76700000D01*
X124404380Y-76938095D02*
X123404380Y-76938095D01*
X123404380Y-76557142D01*
X123452000Y-76461904D01*
X123499619Y-76414285D01*
X123594857Y-76366666D01*
X123737714Y-76366666D01*
X123832952Y-76414285D01*
X123880571Y-76461904D01*
X123928190Y-76557142D01*
X123928190Y-76938095D01*
X123737714Y-75509523D02*
X124404380Y-75509523D01*
X123356761Y-75747619D02*
X124071047Y-75985714D01*
X124071047Y-75366666D01*
%TO.C,R2*%
X98893333Y-70302380D02*
X98560000Y-69826190D01*
X98321904Y-70302380D02*
X98321904Y-69302380D01*
X98702857Y-69302380D01*
X98798095Y-69350000D01*
X98845714Y-69397619D01*
X98893333Y-69492857D01*
X98893333Y-69635714D01*
X98845714Y-69730952D01*
X98798095Y-69778571D01*
X98702857Y-69826190D01*
X98321904Y-69826190D01*
X99274285Y-69397619D02*
X99321904Y-69350000D01*
X99417142Y-69302380D01*
X99655238Y-69302380D01*
X99750476Y-69350000D01*
X99798095Y-69397619D01*
X99845714Y-69492857D01*
X99845714Y-69588095D01*
X99798095Y-69730952D01*
X99226666Y-70302380D01*
X99845714Y-70302380D01*
%TO.C,D2*%
X126515904Y-79446380D02*
X126515904Y-78446380D01*
X126754000Y-78446380D01*
X126896857Y-78494000D01*
X126992095Y-78589238D01*
X127039714Y-78684476D01*
X127087333Y-78874952D01*
X127087333Y-79017809D01*
X127039714Y-79208285D01*
X126992095Y-79303523D01*
X126896857Y-79398761D01*
X126754000Y-79446380D01*
X126515904Y-79446380D01*
X127468285Y-78541619D02*
X127515904Y-78494000D01*
X127611142Y-78446380D01*
X127849238Y-78446380D01*
X127944476Y-78494000D01*
X127992095Y-78541619D01*
X128039714Y-78636857D01*
X128039714Y-78732095D01*
X127992095Y-78874952D01*
X127420666Y-79446380D01*
X128039714Y-79446380D01*
%TO.C,C9*%
X115149333Y-64619142D02*
X115101714Y-64666761D01*
X114958857Y-64714380D01*
X114863619Y-64714380D01*
X114720761Y-64666761D01*
X114625523Y-64571523D01*
X114577904Y-64476285D01*
X114530285Y-64285809D01*
X114530285Y-64142952D01*
X114577904Y-63952476D01*
X114625523Y-63857238D01*
X114720761Y-63762000D01*
X114863619Y-63714380D01*
X114958857Y-63714380D01*
X115101714Y-63762000D01*
X115149333Y-63809619D01*
X115625523Y-64714380D02*
X115816000Y-64714380D01*
X115911238Y-64666761D01*
X115958857Y-64619142D01*
X116054095Y-64476285D01*
X116101714Y-64285809D01*
X116101714Y-63904857D01*
X116054095Y-63809619D01*
X116006476Y-63762000D01*
X115911238Y-63714380D01*
X115720761Y-63714380D01*
X115625523Y-63762000D01*
X115577904Y-63809619D01*
X115530285Y-63904857D01*
X115530285Y-64142952D01*
X115577904Y-64238190D01*
X115625523Y-64285809D01*
X115720761Y-64333428D01*
X115911238Y-64333428D01*
X116006476Y-64285809D01*
X116054095Y-64238190D01*
X116101714Y-64142952D01*
%TO.C,C12*%
X112387142Y-76049142D02*
X112339523Y-76096761D01*
X112196666Y-76144380D01*
X112101428Y-76144380D01*
X111958571Y-76096761D01*
X111863333Y-76001523D01*
X111815714Y-75906285D01*
X111768095Y-75715809D01*
X111768095Y-75572952D01*
X111815714Y-75382476D01*
X111863333Y-75287238D01*
X111958571Y-75192000D01*
X112101428Y-75144380D01*
X112196666Y-75144380D01*
X112339523Y-75192000D01*
X112387142Y-75239619D01*
X113339523Y-76144380D02*
X112768095Y-76144380D01*
X113053809Y-76144380D02*
X113053809Y-75144380D01*
X112958571Y-75287238D01*
X112863333Y-75382476D01*
X112768095Y-75430095D01*
X113720476Y-75239619D02*
X113768095Y-75192000D01*
X113863333Y-75144380D01*
X114101428Y-75144380D01*
X114196666Y-75192000D01*
X114244285Y-75239619D01*
X114291904Y-75334857D01*
X114291904Y-75430095D01*
X114244285Y-75572952D01*
X113672857Y-76144380D01*
X114291904Y-76144380D01*
%TO.C,C11*%
X115927142Y-79067857D02*
X115974761Y-79115476D01*
X116022380Y-79258333D01*
X116022380Y-79353571D01*
X115974761Y-79496428D01*
X115879523Y-79591666D01*
X115784285Y-79639285D01*
X115593809Y-79686904D01*
X115450952Y-79686904D01*
X115260476Y-79639285D01*
X115165238Y-79591666D01*
X115070000Y-79496428D01*
X115022380Y-79353571D01*
X115022380Y-79258333D01*
X115070000Y-79115476D01*
X115117619Y-79067857D01*
X116022380Y-78115476D02*
X116022380Y-78686904D01*
X116022380Y-78401190D02*
X115022380Y-78401190D01*
X115165238Y-78496428D01*
X115260476Y-78591666D01*
X115308095Y-78686904D01*
X116022380Y-77163095D02*
X116022380Y-77734523D01*
X116022380Y-77448809D02*
X115022380Y-77448809D01*
X115165238Y-77544047D01*
X115260476Y-77639285D01*
X115308095Y-77734523D01*
%TO.C,C10*%
X111609142Y-70238857D02*
X111656761Y-70286476D01*
X111704380Y-70429333D01*
X111704380Y-70524571D01*
X111656761Y-70667428D01*
X111561523Y-70762666D01*
X111466285Y-70810285D01*
X111275809Y-70857904D01*
X111132952Y-70857904D01*
X110942476Y-70810285D01*
X110847238Y-70762666D01*
X110752000Y-70667428D01*
X110704380Y-70524571D01*
X110704380Y-70429333D01*
X110752000Y-70286476D01*
X110799619Y-70238857D01*
X111704380Y-69286476D02*
X111704380Y-69857904D01*
X111704380Y-69572190D02*
X110704380Y-69572190D01*
X110847238Y-69667428D01*
X110942476Y-69762666D01*
X110990095Y-69857904D01*
X110704380Y-68667428D02*
X110704380Y-68572190D01*
X110752000Y-68476952D01*
X110799619Y-68429333D01*
X110894857Y-68381714D01*
X111085333Y-68334095D01*
X111323428Y-68334095D01*
X111513904Y-68381714D01*
X111609142Y-68429333D01*
X111656761Y-68476952D01*
X111704380Y-68572190D01*
X111704380Y-68667428D01*
X111656761Y-68762666D01*
X111609142Y-68810285D01*
X111513904Y-68857904D01*
X111323428Y-68905523D01*
X111085333Y-68905523D01*
X110894857Y-68857904D01*
X110799619Y-68810285D01*
X110752000Y-68762666D01*
X110704380Y-68667428D01*
%TO.C,C8*%
X113387142Y-69508666D02*
X113434761Y-69556285D01*
X113482380Y-69699142D01*
X113482380Y-69794380D01*
X113434761Y-69937238D01*
X113339523Y-70032476D01*
X113244285Y-70080095D01*
X113053809Y-70127714D01*
X112910952Y-70127714D01*
X112720476Y-70080095D01*
X112625238Y-70032476D01*
X112530000Y-69937238D01*
X112482380Y-69794380D01*
X112482380Y-69699142D01*
X112530000Y-69556285D01*
X112577619Y-69508666D01*
X112910952Y-68937238D02*
X112863333Y-69032476D01*
X112815714Y-69080095D01*
X112720476Y-69127714D01*
X112672857Y-69127714D01*
X112577619Y-69080095D01*
X112530000Y-69032476D01*
X112482380Y-68937238D01*
X112482380Y-68746761D01*
X112530000Y-68651523D01*
X112577619Y-68603904D01*
X112672857Y-68556285D01*
X112720476Y-68556285D01*
X112815714Y-68603904D01*
X112863333Y-68651523D01*
X112910952Y-68746761D01*
X112910952Y-68937238D01*
X112958571Y-69032476D01*
X113006190Y-69080095D01*
X113101428Y-69127714D01*
X113291904Y-69127714D01*
X113387142Y-69080095D01*
X113434761Y-69032476D01*
X113482380Y-68937238D01*
X113482380Y-68746761D01*
X113434761Y-68651523D01*
X113387142Y-68603904D01*
X113291904Y-68556285D01*
X113101428Y-68556285D01*
X113006190Y-68603904D01*
X112958571Y-68651523D01*
X112910952Y-68746761D01*
%TO.C,C5*%
X124293333Y-69732142D02*
X124245714Y-69779761D01*
X124102857Y-69827380D01*
X124007619Y-69827380D01*
X123864761Y-69779761D01*
X123769523Y-69684523D01*
X123721904Y-69589285D01*
X123674285Y-69398809D01*
X123674285Y-69255952D01*
X123721904Y-69065476D01*
X123769523Y-68970238D01*
X123864761Y-68875000D01*
X124007619Y-68827380D01*
X124102857Y-68827380D01*
X124245714Y-68875000D01*
X124293333Y-68922619D01*
X125198095Y-68827380D02*
X124721904Y-68827380D01*
X124674285Y-69303571D01*
X124721904Y-69255952D01*
X124817142Y-69208333D01*
X125055238Y-69208333D01*
X125150476Y-69255952D01*
X125198095Y-69303571D01*
X125245714Y-69398809D01*
X125245714Y-69636904D01*
X125198095Y-69732142D01*
X125150476Y-69779761D01*
X125055238Y-69827380D01*
X124817142Y-69827380D01*
X124721904Y-69779761D01*
X124674285Y-69732142D01*
%TO.C,C3*%
X137771142Y-74588666D02*
X137818761Y-74636285D01*
X137866380Y-74779142D01*
X137866380Y-74874380D01*
X137818761Y-75017238D01*
X137723523Y-75112476D01*
X137628285Y-75160095D01*
X137437809Y-75207714D01*
X137294952Y-75207714D01*
X137104476Y-75160095D01*
X137009238Y-75112476D01*
X136914000Y-75017238D01*
X136866380Y-74874380D01*
X136866380Y-74779142D01*
X136914000Y-74636285D01*
X136961619Y-74588666D01*
X136866380Y-74255333D02*
X136866380Y-73636285D01*
X137247333Y-73969619D01*
X137247333Y-73826761D01*
X137294952Y-73731523D01*
X137342571Y-73683904D01*
X137437809Y-73636285D01*
X137675904Y-73636285D01*
X137771142Y-73683904D01*
X137818761Y-73731523D01*
X137866380Y-73826761D01*
X137866380Y-74112476D01*
X137818761Y-74207714D01*
X137771142Y-74255333D01*
%TO.C,C2*%
X134961333Y-77827142D02*
X134913714Y-77874761D01*
X134770857Y-77922380D01*
X134675619Y-77922380D01*
X134532761Y-77874761D01*
X134437523Y-77779523D01*
X134389904Y-77684285D01*
X134342285Y-77493809D01*
X134342285Y-77350952D01*
X134389904Y-77160476D01*
X134437523Y-77065238D01*
X134532761Y-76970000D01*
X134675619Y-76922380D01*
X134770857Y-76922380D01*
X134913714Y-76970000D01*
X134961333Y-77017619D01*
X135342285Y-77017619D02*
X135389904Y-76970000D01*
X135485142Y-76922380D01*
X135723238Y-76922380D01*
X135818476Y-76970000D01*
X135866095Y-77017619D01*
X135913714Y-77112857D01*
X135913714Y-77208095D01*
X135866095Y-77350952D01*
X135294666Y-77922380D01*
X135913714Y-77922380D01*
%TO.C,C1*%
X139295142Y-74588666D02*
X139342761Y-74636285D01*
X139390380Y-74779142D01*
X139390380Y-74874380D01*
X139342761Y-75017238D01*
X139247523Y-75112476D01*
X139152285Y-75160095D01*
X138961809Y-75207714D01*
X138818952Y-75207714D01*
X138628476Y-75160095D01*
X138533238Y-75112476D01*
X138438000Y-75017238D01*
X138390380Y-74874380D01*
X138390380Y-74779142D01*
X138438000Y-74636285D01*
X138485619Y-74588666D01*
X139390380Y-73636285D02*
X139390380Y-74207714D01*
X139390380Y-73922000D02*
X138390380Y-73922000D01*
X138533238Y-74017238D01*
X138628476Y-74112476D01*
X138676095Y-74207714D01*
%TO.C,C6*%
X145883333Y-70432142D02*
X145835714Y-70479761D01*
X145692857Y-70527380D01*
X145597619Y-70527380D01*
X145454761Y-70479761D01*
X145359523Y-70384523D01*
X145311904Y-70289285D01*
X145264285Y-70098809D01*
X145264285Y-69955952D01*
X145311904Y-69765476D01*
X145359523Y-69670238D01*
X145454761Y-69575000D01*
X145597619Y-69527380D01*
X145692857Y-69527380D01*
X145835714Y-69575000D01*
X145883333Y-69622619D01*
X146740476Y-69527380D02*
X146550000Y-69527380D01*
X146454761Y-69575000D01*
X146407142Y-69622619D01*
X146311904Y-69765476D01*
X146264285Y-69955952D01*
X146264285Y-70336904D01*
X146311904Y-70432142D01*
X146359523Y-70479761D01*
X146454761Y-70527380D01*
X146645238Y-70527380D01*
X146740476Y-70479761D01*
X146788095Y-70432142D01*
X146835714Y-70336904D01*
X146835714Y-70098809D01*
X146788095Y-70003571D01*
X146740476Y-69955952D01*
X146645238Y-69908333D01*
X146454761Y-69908333D01*
X146359523Y-69955952D01*
X146311904Y-70003571D01*
X146264285Y-70098809D01*
%TO.C,C4*%
X151913333Y-77417142D02*
X151865714Y-77464761D01*
X151722857Y-77512380D01*
X151627619Y-77512380D01*
X151484761Y-77464761D01*
X151389523Y-77369523D01*
X151341904Y-77274285D01*
X151294285Y-77083809D01*
X151294285Y-76940952D01*
X151341904Y-76750476D01*
X151389523Y-76655238D01*
X151484761Y-76560000D01*
X151627619Y-76512380D01*
X151722857Y-76512380D01*
X151865714Y-76560000D01*
X151913333Y-76607619D01*
X152770476Y-76845714D02*
X152770476Y-77512380D01*
X152532380Y-76464761D02*
X152294285Y-77179047D01*
X152913333Y-77179047D01*
%TD*%
M02*
