%TF.GenerationSoftware,KiCad,Pcbnew,(5.1.9)-1*%
%TF.CreationDate,2021-05-16T17:52:49+02:00*%
%TF.ProjectId,SojournerST,536f6a6f-7572-46e6-9572-53542e6b6963,rev?*%
%TF.SameCoordinates,Original*%
%TF.FileFunction,Copper,L3,Inr*%
%TF.FilePolarity,Positive*%
%FSLAX46Y46*%
G04 Gerber Fmt 4.6, Leading zero omitted, Abs format (unit mm)*
G04 Created by KiCad (PCBNEW (5.1.9)-1) date 2021-05-16 17:52:49*
%MOMM*%
%LPD*%
G01*
G04 APERTURE LIST*
%TA.AperFunction,ComponentPad*%
%ADD10O,1.700000X1.700000*%
%TD*%
%TA.AperFunction,ComponentPad*%
%ADD11R,1.700000X1.700000*%
%TD*%
%TA.AperFunction,ComponentPad*%
%ADD12C,1.500000*%
%TD*%
%TA.AperFunction,ComponentPad*%
%ADD13O,1.550000X0.890000*%
%TD*%
%TA.AperFunction,ComponentPad*%
%ADD14O,0.950000X1.250000*%
%TD*%
%TA.AperFunction,ComponentPad*%
%ADD15C,2.600000*%
%TD*%
%TA.AperFunction,ViaPad*%
%ADD16C,0.800000*%
%TD*%
%TA.AperFunction,Conductor*%
%ADD17C,0.254000*%
%TD*%
%TA.AperFunction,Conductor*%
%ADD18C,0.100000*%
%TD*%
G04 APERTURE END LIST*
D10*
%TO.N,GND*%
%TO.C,J3*%
X139700000Y-62230000D03*
%TO.N,UART_RX*%
X137160000Y-62230000D03*
D11*
%TO.N,UART_TX*%
X134620000Y-62230000D03*
%TD*%
D10*
%TO.N,GND*%
%TO.C,J7*%
X121920000Y-82550000D03*
D11*
%TO.N,VM*%
X119380000Y-82550000D03*
%TD*%
D10*
%TO.N,GND*%
%TO.C,J2*%
X144780000Y-82550000D03*
%TO.N,+3V3*%
X142240000Y-82550000D03*
%TO.N,BOOT0*%
X139700000Y-82550000D03*
%TO.N,SPI_MOSI*%
X137160000Y-82550000D03*
%TO.N,SPI_MISO*%
X134620000Y-82550000D03*
%TO.N,SPI_CLK*%
X132080000Y-82550000D03*
D11*
%TO.N,SPI_CS*%
X129540000Y-82550000D03*
%TD*%
D12*
%TO.N,HSE_OUT*%
%TO.C,Y1*%
X122120000Y-63500000D03*
%TO.N,HSE_IN*%
X127000000Y-63500000D03*
%TD*%
D10*
%TO.N,M2_OUT2*%
%TO.C,J6*%
X111760000Y-82550000D03*
%TO.N,+3V3*%
X109220000Y-82550000D03*
%TO.N,M2_ENCB*%
X106680000Y-82550000D03*
%TO.N,M2_ENCA*%
X104140000Y-82550000D03*
%TO.N,GND*%
X101600000Y-82550000D03*
D11*
%TO.N,M2_OUT1*%
X99060000Y-82550000D03*
%TD*%
D10*
%TO.N,M1_OUT2*%
%TO.C,J5*%
X111760000Y-62230000D03*
%TO.N,+3V3*%
X109220000Y-62230000D03*
%TO.N,M1_ENCB*%
X106680000Y-62230000D03*
%TO.N,M1_ENCA*%
X104140000Y-62230000D03*
%TO.N,GND*%
X101600000Y-62230000D03*
D11*
%TO.N,M1_OUT1*%
X99060000Y-62230000D03*
%TD*%
D10*
%TO.N,SWO*%
%TO.C,J4*%
X147320000Y-64770000D03*
%TO.N,NRST*%
X147320000Y-62230000D03*
%TO.N,SWDIO*%
X149860000Y-64770000D03*
%TO.N,GND*%
X149860000Y-62230000D03*
%TO.N,SWCLK*%
X152400000Y-64770000D03*
D11*
%TO.N,+3V3*%
X152400000Y-62230000D03*
%TD*%
D13*
%TO.N,GND*%
%TO.C,J1*%
X153700000Y-68890000D03*
X153700000Y-75890000D03*
D14*
X151000000Y-69890000D03*
X151000000Y-74890000D03*
%TD*%
D15*
%TO.N,N/C*%
%TO.C,H2*%
X140970000Y-72390000D03*
%TD*%
%TO.N,N/C*%
%TO.C,H1*%
X113030000Y-72390000D03*
%TD*%
D16*
%TO.N,GND*%
X110490000Y-72390000D03*
X118745000Y-76835000D03*
X118745000Y-67945000D03*
X131826000Y-78232000D03*
X139700000Y-79248000D03*
X147828000Y-73914000D03*
X100139500Y-74358500D03*
X128524000Y-69596000D03*
X114046000Y-80772000D03*
X133350000Y-65532000D03*
X124839442Y-66802000D03*
X100139500Y-70421500D03*
%TO.N,BOOT0*%
X136652000Y-78613000D03*
X130302000Y-71374000D03*
%TO.N,M1_ENCB*%
X127596304Y-65386322D03*
%TO.N,M1_ENCA*%
X128016000Y-66293996D03*
%TO.N,M2_ENCA*%
X129285998Y-73151998D03*
%TO.N,SWDIO*%
X139065000Y-67437000D03*
%TO.N,M2_ENCB*%
X131063990Y-73660000D03*
%TO.N,+3V3*%
X107315000Y-70485000D03*
X109855000Y-67945000D03*
X123952000Y-82296000D03*
X133858000Y-79502000D03*
X141536999Y-75125001D03*
X143695999Y-75125001D03*
X136067000Y-76150000D03*
X99060000Y-73850500D03*
X126491992Y-66802000D03*
%TO.N,VM*%
X141732000Y-79502000D03*
X141732000Y-78486000D03*
X141732000Y-77470000D03*
%TO.N,M1_IN2*%
X121285000Y-70485000D03*
X132380313Y-69688179D03*
%TO.N,M1_IN1*%
X120015000Y-71120000D03*
X132842000Y-70866000D03*
%TO.N,LED_STATUS*%
X127254000Y-77978000D03*
X130509294Y-75000060D03*
%TO.N,UART_TX*%
X133604000Y-70103994D03*
%TO.N,UART_RX*%
X136525000Y-73025000D03*
%TO.N,Net-(R2-Pad2)*%
X100076000Y-72136000D03*
X107640000Y-72065000D03*
%TD*%
D17*
%TO.N,+3V3*%
X133131928Y-63080000D02*
X133144188Y-63204482D01*
X133180498Y-63324180D01*
X133239463Y-63434494D01*
X133318815Y-63531185D01*
X133415506Y-63610537D01*
X133525820Y-63669502D01*
X133645518Y-63705812D01*
X133770000Y-63718072D01*
X135470000Y-63718072D01*
X135594482Y-63705812D01*
X135714180Y-63669502D01*
X135824494Y-63610537D01*
X135921185Y-63531185D01*
X136000537Y-63434494D01*
X136059502Y-63324180D01*
X136081513Y-63251620D01*
X136213368Y-63383475D01*
X136456589Y-63545990D01*
X136726842Y-63657932D01*
X137013740Y-63715000D01*
X137306260Y-63715000D01*
X137593158Y-63657932D01*
X137863411Y-63545990D01*
X138106632Y-63383475D01*
X138313475Y-63176632D01*
X138430000Y-63002240D01*
X138546525Y-63176632D01*
X138753368Y-63383475D01*
X138996589Y-63545990D01*
X139266842Y-63657932D01*
X139553740Y-63715000D01*
X139846260Y-63715000D01*
X140133158Y-63657932D01*
X140403411Y-63545990D01*
X140646632Y-63383475D01*
X140853475Y-63176632D01*
X141015990Y-62933411D01*
X141127932Y-62663158D01*
X141185000Y-62376260D01*
X141185000Y-62083740D01*
X141127932Y-61796842D01*
X141096932Y-61722000D01*
X145923068Y-61722000D01*
X145892068Y-61796842D01*
X145835000Y-62083740D01*
X145835000Y-62376260D01*
X145892068Y-62663158D01*
X146004010Y-62933411D01*
X146166525Y-63176632D01*
X146373368Y-63383475D01*
X146547760Y-63500000D01*
X146373368Y-63616525D01*
X146166525Y-63823368D01*
X146004010Y-64066589D01*
X145892068Y-64336842D01*
X145835000Y-64623740D01*
X145835000Y-64916260D01*
X145892068Y-65203158D01*
X146004010Y-65473411D01*
X146166525Y-65716632D01*
X146373368Y-65923475D01*
X146616589Y-66085990D01*
X146886842Y-66197932D01*
X147173740Y-66255000D01*
X147466260Y-66255000D01*
X147753158Y-66197932D01*
X148023411Y-66085990D01*
X148266632Y-65923475D01*
X148473475Y-65716632D01*
X148590000Y-65542240D01*
X148706525Y-65716632D01*
X148913368Y-65923475D01*
X149156589Y-66085990D01*
X149426842Y-66197932D01*
X149713740Y-66255000D01*
X150006260Y-66255000D01*
X150293158Y-66197932D01*
X150563411Y-66085990D01*
X150806632Y-65923475D01*
X151013475Y-65716632D01*
X151130000Y-65542240D01*
X151246525Y-65716632D01*
X151453368Y-65923475D01*
X151696589Y-66085990D01*
X151966842Y-66197932D01*
X152253740Y-66255000D01*
X152546260Y-66255000D01*
X152833158Y-66197932D01*
X153103411Y-66085990D01*
X153346632Y-65923475D01*
X153553475Y-65716632D01*
X153715990Y-65473411D01*
X153827932Y-65203158D01*
X153885000Y-64916260D01*
X153885000Y-64623740D01*
X153827932Y-64336842D01*
X153715990Y-64066589D01*
X153553475Y-63823368D01*
X153421620Y-63691513D01*
X153494180Y-63669502D01*
X153604494Y-63610537D01*
X153701185Y-63531185D01*
X153780537Y-63434494D01*
X153839502Y-63324180D01*
X153875812Y-63204482D01*
X153888072Y-63080000D01*
X153885000Y-62515750D01*
X153726250Y-62357000D01*
X152527000Y-62357000D01*
X152527000Y-62377000D01*
X152273000Y-62377000D01*
X152273000Y-62357000D01*
X152253000Y-62357000D01*
X152253000Y-62103000D01*
X152273000Y-62103000D01*
X152273000Y-62083000D01*
X152527000Y-62083000D01*
X152527000Y-62103000D01*
X153726250Y-62103000D01*
X153885000Y-61944250D01*
X153886210Y-61722000D01*
X154178000Y-61722000D01*
X154178000Y-67819352D01*
X154083051Y-67810000D01*
X153316949Y-67810000D01*
X153158283Y-67825627D01*
X152954702Y-67887383D01*
X152767081Y-67987668D01*
X152602630Y-68122630D01*
X152467668Y-68287081D01*
X152367383Y-68474702D01*
X152305627Y-68678283D01*
X152284775Y-68890000D01*
X152305627Y-69101717D01*
X152367383Y-69305298D01*
X152467668Y-69492919D01*
X152602630Y-69657370D01*
X152767081Y-69792332D01*
X152954702Y-69892617D01*
X153158283Y-69954373D01*
X153316949Y-69970000D01*
X154083051Y-69970000D01*
X154178000Y-69960648D01*
X154178000Y-74819352D01*
X154083051Y-74810000D01*
X153316949Y-74810000D01*
X153158283Y-74825627D01*
X152954702Y-74887383D01*
X152767081Y-74987668D01*
X152602630Y-75122630D01*
X152467668Y-75287081D01*
X152367383Y-75474702D01*
X152305627Y-75678283D01*
X152284775Y-75890000D01*
X152305627Y-76101717D01*
X152367383Y-76305298D01*
X152467668Y-76492919D01*
X152602630Y-76657370D01*
X152767081Y-76792332D01*
X152954702Y-76892617D01*
X153158283Y-76954373D01*
X153316949Y-76970000D01*
X154083051Y-76970000D01*
X154178000Y-76960648D01*
X154178000Y-83058000D01*
X146176932Y-83058000D01*
X146207932Y-82983158D01*
X146265000Y-82696260D01*
X146265000Y-82403740D01*
X146207932Y-82116842D01*
X146095990Y-81846589D01*
X145933475Y-81603368D01*
X145726632Y-81396525D01*
X145483411Y-81234010D01*
X145213158Y-81122068D01*
X144926260Y-81065000D01*
X144633740Y-81065000D01*
X144346842Y-81122068D01*
X144076589Y-81234010D01*
X143833368Y-81396525D01*
X143626525Y-81603368D01*
X143504805Y-81785534D01*
X143435178Y-81668645D01*
X143240269Y-81452412D01*
X143006920Y-81278359D01*
X142744099Y-81153175D01*
X142596890Y-81108524D01*
X142367000Y-81229845D01*
X142367000Y-82423000D01*
X142387000Y-82423000D01*
X142387000Y-82677000D01*
X142367000Y-82677000D01*
X142367000Y-82697000D01*
X142113000Y-82697000D01*
X142113000Y-82677000D01*
X142093000Y-82677000D01*
X142093000Y-82423000D01*
X142113000Y-82423000D01*
X142113000Y-81229845D01*
X141883110Y-81108524D01*
X141735901Y-81153175D01*
X141473080Y-81278359D01*
X141239731Y-81452412D01*
X141044822Y-81668645D01*
X140975195Y-81785534D01*
X140853475Y-81603368D01*
X140646632Y-81396525D01*
X140403411Y-81234010D01*
X140133158Y-81122068D01*
X139846260Y-81065000D01*
X139553740Y-81065000D01*
X139266842Y-81122068D01*
X138996589Y-81234010D01*
X138753368Y-81396525D01*
X138546525Y-81603368D01*
X138430000Y-81777760D01*
X138313475Y-81603368D01*
X138106632Y-81396525D01*
X137863411Y-81234010D01*
X137593158Y-81122068D01*
X137306260Y-81065000D01*
X137013740Y-81065000D01*
X136726842Y-81122068D01*
X136456589Y-81234010D01*
X136213368Y-81396525D01*
X136006525Y-81603368D01*
X135890000Y-81777760D01*
X135773475Y-81603368D01*
X135566632Y-81396525D01*
X135323411Y-81234010D01*
X135053158Y-81122068D01*
X134766260Y-81065000D01*
X134473740Y-81065000D01*
X134186842Y-81122068D01*
X133916589Y-81234010D01*
X133673368Y-81396525D01*
X133466525Y-81603368D01*
X133350000Y-81777760D01*
X133233475Y-81603368D01*
X133026632Y-81396525D01*
X132783411Y-81234010D01*
X132513158Y-81122068D01*
X132226260Y-81065000D01*
X131933740Y-81065000D01*
X131646842Y-81122068D01*
X131376589Y-81234010D01*
X131133368Y-81396525D01*
X131001513Y-81528380D01*
X130979502Y-81455820D01*
X130920537Y-81345506D01*
X130841185Y-81248815D01*
X130744494Y-81169463D01*
X130634180Y-81110498D01*
X130514482Y-81074188D01*
X130390000Y-81061928D01*
X128690000Y-81061928D01*
X128565518Y-81074188D01*
X128445820Y-81110498D01*
X128335506Y-81169463D01*
X128238815Y-81248815D01*
X128159463Y-81345506D01*
X128100498Y-81455820D01*
X128064188Y-81575518D01*
X128051928Y-81700000D01*
X128051928Y-83058000D01*
X123316932Y-83058000D01*
X123347932Y-82983158D01*
X123405000Y-82696260D01*
X123405000Y-82403740D01*
X123347932Y-82116842D01*
X123235990Y-81846589D01*
X123073475Y-81603368D01*
X122866632Y-81396525D01*
X122623411Y-81234010D01*
X122353158Y-81122068D01*
X122066260Y-81065000D01*
X121773740Y-81065000D01*
X121486842Y-81122068D01*
X121216589Y-81234010D01*
X120973368Y-81396525D01*
X120841513Y-81528380D01*
X120819502Y-81455820D01*
X120760537Y-81345506D01*
X120681185Y-81248815D01*
X120584494Y-81169463D01*
X120474180Y-81110498D01*
X120354482Y-81074188D01*
X120230000Y-81061928D01*
X118530000Y-81061928D01*
X118405518Y-81074188D01*
X118285820Y-81110498D01*
X118175506Y-81169463D01*
X118078815Y-81248815D01*
X117999463Y-81345506D01*
X117940498Y-81455820D01*
X117904188Y-81575518D01*
X117891928Y-81700000D01*
X117891928Y-83058000D01*
X113156932Y-83058000D01*
X113187932Y-82983158D01*
X113245000Y-82696260D01*
X113245000Y-82403740D01*
X113187932Y-82116842D01*
X113075990Y-81846589D01*
X112913475Y-81603368D01*
X112706632Y-81396525D01*
X112463411Y-81234010D01*
X112193158Y-81122068D01*
X111906260Y-81065000D01*
X111613740Y-81065000D01*
X111326842Y-81122068D01*
X111056589Y-81234010D01*
X110813368Y-81396525D01*
X110606525Y-81603368D01*
X110484805Y-81785534D01*
X110415178Y-81668645D01*
X110220269Y-81452412D01*
X109986920Y-81278359D01*
X109724099Y-81153175D01*
X109576890Y-81108524D01*
X109347000Y-81229845D01*
X109347000Y-82423000D01*
X109367000Y-82423000D01*
X109367000Y-82677000D01*
X109347000Y-82677000D01*
X109347000Y-82697000D01*
X109093000Y-82697000D01*
X109093000Y-82677000D01*
X109073000Y-82677000D01*
X109073000Y-82423000D01*
X109093000Y-82423000D01*
X109093000Y-81229845D01*
X108863110Y-81108524D01*
X108715901Y-81153175D01*
X108453080Y-81278359D01*
X108219731Y-81452412D01*
X108024822Y-81668645D01*
X107955195Y-81785534D01*
X107833475Y-81603368D01*
X107626632Y-81396525D01*
X107383411Y-81234010D01*
X107113158Y-81122068D01*
X106826260Y-81065000D01*
X106533740Y-81065000D01*
X106246842Y-81122068D01*
X105976589Y-81234010D01*
X105733368Y-81396525D01*
X105526525Y-81603368D01*
X105410000Y-81777760D01*
X105293475Y-81603368D01*
X105086632Y-81396525D01*
X104843411Y-81234010D01*
X104573158Y-81122068D01*
X104286260Y-81065000D01*
X103993740Y-81065000D01*
X103706842Y-81122068D01*
X103436589Y-81234010D01*
X103193368Y-81396525D01*
X102986525Y-81603368D01*
X102870000Y-81777760D01*
X102753475Y-81603368D01*
X102546632Y-81396525D01*
X102303411Y-81234010D01*
X102033158Y-81122068D01*
X101746260Y-81065000D01*
X101453740Y-81065000D01*
X101166842Y-81122068D01*
X100896589Y-81234010D01*
X100653368Y-81396525D01*
X100521513Y-81528380D01*
X100499502Y-81455820D01*
X100440537Y-81345506D01*
X100361185Y-81248815D01*
X100264494Y-81169463D01*
X100154180Y-81110498D01*
X100034482Y-81074188D01*
X99910000Y-81061928D01*
X98552000Y-81061928D01*
X98552000Y-80670061D01*
X113011000Y-80670061D01*
X113011000Y-80873939D01*
X113050774Y-81073898D01*
X113128795Y-81262256D01*
X113242063Y-81431774D01*
X113386226Y-81575937D01*
X113555744Y-81689205D01*
X113744102Y-81767226D01*
X113944061Y-81807000D01*
X114147939Y-81807000D01*
X114347898Y-81767226D01*
X114536256Y-81689205D01*
X114705774Y-81575937D01*
X114849937Y-81431774D01*
X114963205Y-81262256D01*
X115041226Y-81073898D01*
X115081000Y-80873939D01*
X115081000Y-80670061D01*
X115041226Y-80470102D01*
X114963205Y-80281744D01*
X114849937Y-80112226D01*
X114705774Y-79968063D01*
X114536256Y-79854795D01*
X114347898Y-79776774D01*
X114147939Y-79737000D01*
X113944061Y-79737000D01*
X113744102Y-79776774D01*
X113555744Y-79854795D01*
X113386226Y-79968063D01*
X113242063Y-80112226D01*
X113128795Y-80281744D01*
X113050774Y-80470102D01*
X113011000Y-80670061D01*
X98552000Y-80670061D01*
X98552000Y-77876061D01*
X126219000Y-77876061D01*
X126219000Y-78079939D01*
X126258774Y-78279898D01*
X126336795Y-78468256D01*
X126450063Y-78637774D01*
X126594226Y-78781937D01*
X126763744Y-78895205D01*
X126952102Y-78973226D01*
X127152061Y-79013000D01*
X127355939Y-79013000D01*
X127555898Y-78973226D01*
X127744256Y-78895205D01*
X127913774Y-78781937D01*
X128057937Y-78637774D01*
X128171205Y-78468256D01*
X128249226Y-78279898D01*
X128279030Y-78130061D01*
X130791000Y-78130061D01*
X130791000Y-78333939D01*
X130830774Y-78533898D01*
X130908795Y-78722256D01*
X131022063Y-78891774D01*
X131166226Y-79035937D01*
X131335744Y-79149205D01*
X131524102Y-79227226D01*
X131724061Y-79267000D01*
X131927939Y-79267000D01*
X132127898Y-79227226D01*
X132316256Y-79149205D01*
X132485774Y-79035937D01*
X132629937Y-78891774D01*
X132743205Y-78722256D01*
X132821226Y-78533898D01*
X132825768Y-78511061D01*
X135617000Y-78511061D01*
X135617000Y-78714939D01*
X135656774Y-78914898D01*
X135734795Y-79103256D01*
X135848063Y-79272774D01*
X135992226Y-79416937D01*
X136161744Y-79530205D01*
X136350102Y-79608226D01*
X136550061Y-79648000D01*
X136753939Y-79648000D01*
X136953898Y-79608226D01*
X137142256Y-79530205D01*
X137311774Y-79416937D01*
X137455937Y-79272774D01*
X137540603Y-79146061D01*
X138665000Y-79146061D01*
X138665000Y-79349939D01*
X138704774Y-79549898D01*
X138782795Y-79738256D01*
X138896063Y-79907774D01*
X139040226Y-80051937D01*
X139209744Y-80165205D01*
X139398102Y-80243226D01*
X139598061Y-80283000D01*
X139801939Y-80283000D01*
X140001898Y-80243226D01*
X140190256Y-80165205D01*
X140359774Y-80051937D01*
X140503937Y-79907774D01*
X140617205Y-79738256D01*
X140695226Y-79549898D01*
X140697000Y-79540979D01*
X140697000Y-79603939D01*
X140736774Y-79803898D01*
X140814795Y-79992256D01*
X140928063Y-80161774D01*
X141072226Y-80305937D01*
X141241744Y-80419205D01*
X141430102Y-80497226D01*
X141630061Y-80537000D01*
X141833939Y-80537000D01*
X142033898Y-80497226D01*
X142222256Y-80419205D01*
X142391774Y-80305937D01*
X142535937Y-80161774D01*
X142649205Y-79992256D01*
X142727226Y-79803898D01*
X142767000Y-79603939D01*
X142767000Y-79400061D01*
X142727226Y-79200102D01*
X142649205Y-79011744D01*
X142637349Y-78994000D01*
X142649205Y-78976256D01*
X142727226Y-78787898D01*
X142767000Y-78587939D01*
X142767000Y-78384061D01*
X142727226Y-78184102D01*
X142649205Y-77995744D01*
X142637349Y-77978000D01*
X142649205Y-77960256D01*
X142727226Y-77771898D01*
X142767000Y-77571939D01*
X142767000Y-77368061D01*
X142727226Y-77168102D01*
X142649205Y-76979744D01*
X142535937Y-76810226D01*
X142391774Y-76666063D01*
X142222256Y-76552795D01*
X142033898Y-76474774D01*
X141833939Y-76435000D01*
X141630061Y-76435000D01*
X141430102Y-76474774D01*
X141241744Y-76552795D01*
X141072226Y-76666063D01*
X140928063Y-76810226D01*
X140814795Y-76979744D01*
X140736774Y-77168102D01*
X140697000Y-77368061D01*
X140697000Y-77571939D01*
X140736774Y-77771898D01*
X140814795Y-77960256D01*
X140826651Y-77978000D01*
X140814795Y-77995744D01*
X140736774Y-78184102D01*
X140697000Y-78384061D01*
X140697000Y-78587939D01*
X140736774Y-78787898D01*
X140814795Y-78976256D01*
X140826651Y-78994000D01*
X140814795Y-79011744D01*
X140736774Y-79200102D01*
X140735000Y-79209021D01*
X140735000Y-79146061D01*
X140695226Y-78946102D01*
X140617205Y-78757744D01*
X140503937Y-78588226D01*
X140359774Y-78444063D01*
X140190256Y-78330795D01*
X140001898Y-78252774D01*
X139801939Y-78213000D01*
X139598061Y-78213000D01*
X139398102Y-78252774D01*
X139209744Y-78330795D01*
X139040226Y-78444063D01*
X138896063Y-78588226D01*
X138782795Y-78757744D01*
X138704774Y-78946102D01*
X138665000Y-79146061D01*
X137540603Y-79146061D01*
X137569205Y-79103256D01*
X137647226Y-78914898D01*
X137687000Y-78714939D01*
X137687000Y-78511061D01*
X137647226Y-78311102D01*
X137569205Y-78122744D01*
X137455937Y-77953226D01*
X137311774Y-77809063D01*
X137142256Y-77695795D01*
X136953898Y-77617774D01*
X136753939Y-77578000D01*
X136550061Y-77578000D01*
X136350102Y-77617774D01*
X136161744Y-77695795D01*
X135992226Y-77809063D01*
X135848063Y-77953226D01*
X135734795Y-78122744D01*
X135656774Y-78311102D01*
X135617000Y-78511061D01*
X132825768Y-78511061D01*
X132861000Y-78333939D01*
X132861000Y-78130061D01*
X132821226Y-77930102D01*
X132743205Y-77741744D01*
X132629937Y-77572226D01*
X132485774Y-77428063D01*
X132316256Y-77314795D01*
X132127898Y-77236774D01*
X131927939Y-77197000D01*
X131724061Y-77197000D01*
X131524102Y-77236774D01*
X131335744Y-77314795D01*
X131166226Y-77428063D01*
X131022063Y-77572226D01*
X130908795Y-77741744D01*
X130830774Y-77930102D01*
X130791000Y-78130061D01*
X128279030Y-78130061D01*
X128289000Y-78079939D01*
X128289000Y-77876061D01*
X128249226Y-77676102D01*
X128171205Y-77487744D01*
X128057937Y-77318226D01*
X127913774Y-77174063D01*
X127744256Y-77060795D01*
X127555898Y-76982774D01*
X127355939Y-76943000D01*
X127152061Y-76943000D01*
X126952102Y-76982774D01*
X126763744Y-77060795D01*
X126594226Y-77174063D01*
X126450063Y-77318226D01*
X126336795Y-77487744D01*
X126258774Y-77676102D01*
X126219000Y-77876061D01*
X98552000Y-77876061D01*
X98552000Y-76733061D01*
X117710000Y-76733061D01*
X117710000Y-76936939D01*
X117749774Y-77136898D01*
X117827795Y-77325256D01*
X117941063Y-77494774D01*
X118085226Y-77638937D01*
X118254744Y-77752205D01*
X118443102Y-77830226D01*
X118643061Y-77870000D01*
X118846939Y-77870000D01*
X119046898Y-77830226D01*
X119235256Y-77752205D01*
X119404774Y-77638937D01*
X119548937Y-77494774D01*
X119662205Y-77325256D01*
X119740226Y-77136898D01*
X119780000Y-76936939D01*
X119780000Y-76733061D01*
X119740226Y-76533102D01*
X119662205Y-76344744D01*
X119548937Y-76175226D01*
X119404774Y-76031063D01*
X119235256Y-75917795D01*
X119046898Y-75839774D01*
X118846939Y-75800000D01*
X118643061Y-75800000D01*
X118443102Y-75839774D01*
X118254744Y-75917795D01*
X118085226Y-76031063D01*
X117941063Y-76175226D01*
X117827795Y-76344744D01*
X117749774Y-76533102D01*
X117710000Y-76733061D01*
X98552000Y-76733061D01*
X98552000Y-74256561D01*
X99104500Y-74256561D01*
X99104500Y-74460439D01*
X99144274Y-74660398D01*
X99222295Y-74848756D01*
X99335563Y-75018274D01*
X99479726Y-75162437D01*
X99649244Y-75275705D01*
X99837602Y-75353726D01*
X100037561Y-75393500D01*
X100241439Y-75393500D01*
X100441398Y-75353726D01*
X100629756Y-75275705D01*
X100799274Y-75162437D01*
X100943437Y-75018274D01*
X101056705Y-74848756D01*
X101134726Y-74660398D01*
X101174500Y-74460439D01*
X101174500Y-74256561D01*
X101134726Y-74056602D01*
X101056705Y-73868244D01*
X100943437Y-73698726D01*
X100799274Y-73554563D01*
X100629756Y-73441295D01*
X100441398Y-73363274D01*
X100241439Y-73323500D01*
X100037561Y-73323500D01*
X99837602Y-73363274D01*
X99649244Y-73441295D01*
X99479726Y-73554563D01*
X99335563Y-73698726D01*
X99222295Y-73868244D01*
X99144274Y-74056602D01*
X99104500Y-74256561D01*
X98552000Y-74256561D01*
X98552000Y-72034061D01*
X99041000Y-72034061D01*
X99041000Y-72237939D01*
X99080774Y-72437898D01*
X99158795Y-72626256D01*
X99272063Y-72795774D01*
X99416226Y-72939937D01*
X99585744Y-73053205D01*
X99774102Y-73131226D01*
X99974061Y-73171000D01*
X100177939Y-73171000D01*
X100377898Y-73131226D01*
X100566256Y-73053205D01*
X100735774Y-72939937D01*
X100879937Y-72795774D01*
X100993205Y-72626256D01*
X101071226Y-72437898D01*
X101111000Y-72237939D01*
X101111000Y-72034061D01*
X101096878Y-71963061D01*
X106605000Y-71963061D01*
X106605000Y-72166939D01*
X106644774Y-72366898D01*
X106722795Y-72555256D01*
X106836063Y-72724774D01*
X106980226Y-72868937D01*
X107149744Y-72982205D01*
X107338102Y-73060226D01*
X107538061Y-73100000D01*
X107741939Y-73100000D01*
X107941898Y-73060226D01*
X108130256Y-72982205D01*
X108299774Y-72868937D01*
X108443937Y-72724774D01*
X108557205Y-72555256D01*
X108635226Y-72366898D01*
X108650907Y-72288061D01*
X109455000Y-72288061D01*
X109455000Y-72491939D01*
X109494774Y-72691898D01*
X109572795Y-72880256D01*
X109686063Y-73049774D01*
X109830226Y-73193937D01*
X109999744Y-73307205D01*
X110188102Y-73385226D01*
X110388061Y-73425000D01*
X110591939Y-73425000D01*
X110791898Y-73385226D01*
X110980256Y-73307205D01*
X111149774Y-73193937D01*
X111233777Y-73109934D01*
X111315225Y-73306566D01*
X111526987Y-73623491D01*
X111796509Y-73893013D01*
X112113434Y-74104775D01*
X112465581Y-74250639D01*
X112839419Y-74325000D01*
X113220581Y-74325000D01*
X113594419Y-74250639D01*
X113946566Y-74104775D01*
X114263491Y-73893013D01*
X114533013Y-73623491D01*
X114744775Y-73306566D01*
X114851023Y-73050059D01*
X128250998Y-73050059D01*
X128250998Y-73253937D01*
X128290772Y-73453896D01*
X128368793Y-73642254D01*
X128482061Y-73811772D01*
X128626224Y-73955935D01*
X128795742Y-74069203D01*
X128984100Y-74147224D01*
X129184059Y-74186998D01*
X129387937Y-74186998D01*
X129587896Y-74147224D01*
X129776254Y-74069203D01*
X129945772Y-73955935D01*
X130047369Y-73854338D01*
X130068764Y-73961898D01*
X130104247Y-74047560D01*
X130019038Y-74082855D01*
X129849520Y-74196123D01*
X129705357Y-74340286D01*
X129592089Y-74509804D01*
X129514068Y-74698162D01*
X129474294Y-74898121D01*
X129474294Y-75101999D01*
X129514068Y-75301958D01*
X129592089Y-75490316D01*
X129705357Y-75659834D01*
X129849520Y-75803997D01*
X130019038Y-75917265D01*
X130207396Y-75995286D01*
X130407355Y-76035060D01*
X130611233Y-76035060D01*
X130811192Y-75995286D01*
X130999550Y-75917265D01*
X131169068Y-75803997D01*
X131313231Y-75659834D01*
X131426499Y-75490316D01*
X131504520Y-75301958D01*
X131544294Y-75101999D01*
X131544294Y-74898121D01*
X131504520Y-74698162D01*
X131469037Y-74612500D01*
X131554246Y-74577205D01*
X131723764Y-74463937D01*
X131867927Y-74319774D01*
X131981195Y-74150256D01*
X132059216Y-73961898D01*
X132098990Y-73761939D01*
X132098990Y-73558061D01*
X132059216Y-73358102D01*
X131981195Y-73169744D01*
X131867927Y-73000226D01*
X131790762Y-72923061D01*
X135490000Y-72923061D01*
X135490000Y-73126939D01*
X135529774Y-73326898D01*
X135607795Y-73515256D01*
X135721063Y-73684774D01*
X135865226Y-73828937D01*
X136034744Y-73942205D01*
X136223102Y-74020226D01*
X136423061Y-74060000D01*
X136626939Y-74060000D01*
X136826898Y-74020226D01*
X137015256Y-73942205D01*
X137184774Y-73828937D01*
X137328937Y-73684774D01*
X137442205Y-73515256D01*
X137520226Y-73326898D01*
X137560000Y-73126939D01*
X137560000Y-72923061D01*
X137520226Y-72723102D01*
X137442205Y-72534744D01*
X137328937Y-72365226D01*
X137184774Y-72221063D01*
X137152382Y-72199419D01*
X139035000Y-72199419D01*
X139035000Y-72580581D01*
X139109361Y-72954419D01*
X139255225Y-73306566D01*
X139466987Y-73623491D01*
X139736509Y-73893013D01*
X140053434Y-74104775D01*
X140405581Y-74250639D01*
X140779419Y-74325000D01*
X141160581Y-74325000D01*
X141534419Y-74250639D01*
X141886566Y-74104775D01*
X142203491Y-73893013D01*
X142284443Y-73812061D01*
X146793000Y-73812061D01*
X146793000Y-74015939D01*
X146832774Y-74215898D01*
X146910795Y-74404256D01*
X147024063Y-74573774D01*
X147168226Y-74717937D01*
X147337744Y-74831205D01*
X147526102Y-74909226D01*
X147726061Y-74949000D01*
X147929939Y-74949000D01*
X148129898Y-74909226D01*
X148318256Y-74831205D01*
X148487774Y-74717937D01*
X148520231Y-74685480D01*
X149890000Y-74685480D01*
X149890000Y-75094521D01*
X149906062Y-75257598D01*
X149969532Y-75466834D01*
X150072604Y-75659666D01*
X150211315Y-75828686D01*
X150380335Y-75967396D01*
X150573167Y-76070468D01*
X150782403Y-76133938D01*
X151000000Y-76155370D01*
X151217598Y-76133938D01*
X151426834Y-76070468D01*
X151619666Y-75967396D01*
X151788686Y-75828686D01*
X151927396Y-75659666D01*
X152030468Y-75466833D01*
X152093938Y-75257597D01*
X152110000Y-75094520D01*
X152110000Y-74685479D01*
X152093938Y-74522402D01*
X152030468Y-74313166D01*
X151927396Y-74120334D01*
X151788686Y-73951314D01*
X151619666Y-73812604D01*
X151426833Y-73709532D01*
X151217597Y-73646062D01*
X151000000Y-73624630D01*
X150782402Y-73646062D01*
X150573166Y-73709532D01*
X150380334Y-73812604D01*
X150211314Y-73951314D01*
X150072604Y-74120334D01*
X149969532Y-74313167D01*
X149906062Y-74522403D01*
X149890000Y-74685480D01*
X148520231Y-74685480D01*
X148631937Y-74573774D01*
X148745205Y-74404256D01*
X148823226Y-74215898D01*
X148863000Y-74015939D01*
X148863000Y-73812061D01*
X148823226Y-73612102D01*
X148745205Y-73423744D01*
X148631937Y-73254226D01*
X148487774Y-73110063D01*
X148318256Y-72996795D01*
X148129898Y-72918774D01*
X147929939Y-72879000D01*
X147726061Y-72879000D01*
X147526102Y-72918774D01*
X147337744Y-72996795D01*
X147168226Y-73110063D01*
X147024063Y-73254226D01*
X146910795Y-73423744D01*
X146832774Y-73612102D01*
X146793000Y-73812061D01*
X142284443Y-73812061D01*
X142473013Y-73623491D01*
X142684775Y-73306566D01*
X142830639Y-72954419D01*
X142905000Y-72580581D01*
X142905000Y-72199419D01*
X142830639Y-71825581D01*
X142684775Y-71473434D01*
X142473013Y-71156509D01*
X142203491Y-70886987D01*
X141886566Y-70675225D01*
X141534419Y-70529361D01*
X141160581Y-70455000D01*
X140779419Y-70455000D01*
X140405581Y-70529361D01*
X140053434Y-70675225D01*
X139736509Y-70886987D01*
X139466987Y-71156509D01*
X139255225Y-71473434D01*
X139109361Y-71825581D01*
X139035000Y-72199419D01*
X137152382Y-72199419D01*
X137015256Y-72107795D01*
X136826898Y-72029774D01*
X136626939Y-71990000D01*
X136423061Y-71990000D01*
X136223102Y-72029774D01*
X136034744Y-72107795D01*
X135865226Y-72221063D01*
X135721063Y-72365226D01*
X135607795Y-72534744D01*
X135529774Y-72723102D01*
X135490000Y-72923061D01*
X131790762Y-72923061D01*
X131723764Y-72856063D01*
X131554246Y-72742795D01*
X131365888Y-72664774D01*
X131165929Y-72625000D01*
X130962051Y-72625000D01*
X130762092Y-72664774D01*
X130573734Y-72742795D01*
X130404216Y-72856063D01*
X130302619Y-72957660D01*
X130281224Y-72850100D01*
X130203203Y-72661742D01*
X130089935Y-72492224D01*
X129945772Y-72348061D01*
X129940498Y-72344537D01*
X130000102Y-72369226D01*
X130200061Y-72409000D01*
X130403939Y-72409000D01*
X130603898Y-72369226D01*
X130792256Y-72291205D01*
X130961774Y-72177937D01*
X131105937Y-72033774D01*
X131219205Y-71864256D01*
X131297226Y-71675898D01*
X131337000Y-71475939D01*
X131337000Y-71272061D01*
X131297226Y-71072102D01*
X131219205Y-70883744D01*
X131105937Y-70714226D01*
X130961774Y-70570063D01*
X130792256Y-70456795D01*
X130603898Y-70378774D01*
X130403939Y-70339000D01*
X130200061Y-70339000D01*
X130000102Y-70378774D01*
X129811744Y-70456795D01*
X129642226Y-70570063D01*
X129498063Y-70714226D01*
X129384795Y-70883744D01*
X129306774Y-71072102D01*
X129267000Y-71272061D01*
X129267000Y-71475939D01*
X129306774Y-71675898D01*
X129384795Y-71864256D01*
X129498063Y-72033774D01*
X129642226Y-72177937D01*
X129647500Y-72181461D01*
X129587896Y-72156772D01*
X129387937Y-72116998D01*
X129184059Y-72116998D01*
X128984100Y-72156772D01*
X128795742Y-72234793D01*
X128626224Y-72348061D01*
X128482061Y-72492224D01*
X128368793Y-72661742D01*
X128290772Y-72850100D01*
X128250998Y-73050059D01*
X114851023Y-73050059D01*
X114890639Y-72954419D01*
X114965000Y-72580581D01*
X114965000Y-72199419D01*
X114890639Y-71825581D01*
X114744775Y-71473434D01*
X114533013Y-71156509D01*
X114394565Y-71018061D01*
X118980000Y-71018061D01*
X118980000Y-71221939D01*
X119019774Y-71421898D01*
X119097795Y-71610256D01*
X119211063Y-71779774D01*
X119355226Y-71923937D01*
X119524744Y-72037205D01*
X119713102Y-72115226D01*
X119913061Y-72155000D01*
X120116939Y-72155000D01*
X120316898Y-72115226D01*
X120505256Y-72037205D01*
X120674774Y-71923937D01*
X120818937Y-71779774D01*
X120932205Y-71610256D01*
X120985840Y-71480771D01*
X121183061Y-71520000D01*
X121386939Y-71520000D01*
X121586898Y-71480226D01*
X121775256Y-71402205D01*
X121944774Y-71288937D01*
X122088937Y-71144774D01*
X122202205Y-70975256D01*
X122280226Y-70786898D01*
X122320000Y-70586939D01*
X122320000Y-70383061D01*
X122280226Y-70183102D01*
X122202205Y-69994744D01*
X122088937Y-69825226D01*
X121944774Y-69681063D01*
X121775256Y-69567795D01*
X121597248Y-69494061D01*
X127489000Y-69494061D01*
X127489000Y-69697939D01*
X127528774Y-69897898D01*
X127606795Y-70086256D01*
X127720063Y-70255774D01*
X127864226Y-70399937D01*
X128033744Y-70513205D01*
X128222102Y-70591226D01*
X128422061Y-70631000D01*
X128625939Y-70631000D01*
X128825898Y-70591226D01*
X129014256Y-70513205D01*
X129183774Y-70399937D01*
X129327937Y-70255774D01*
X129441205Y-70086256D01*
X129519226Y-69897898D01*
X129559000Y-69697939D01*
X129559000Y-69586240D01*
X131345313Y-69586240D01*
X131345313Y-69790118D01*
X131385087Y-69990077D01*
X131463108Y-70178435D01*
X131576376Y-70347953D01*
X131720539Y-70492116D01*
X131844604Y-70575013D01*
X131807000Y-70764061D01*
X131807000Y-70967939D01*
X131846774Y-71167898D01*
X131924795Y-71356256D01*
X132038063Y-71525774D01*
X132182226Y-71669937D01*
X132351744Y-71783205D01*
X132540102Y-71861226D01*
X132740061Y-71901000D01*
X132943939Y-71901000D01*
X133143898Y-71861226D01*
X133332256Y-71783205D01*
X133501774Y-71669937D01*
X133645937Y-71525774D01*
X133759205Y-71356256D01*
X133837226Y-71167898D01*
X133848621Y-71110613D01*
X133905898Y-71099220D01*
X134094256Y-71021199D01*
X134263774Y-70907931D01*
X134407937Y-70763768D01*
X134521205Y-70594250D01*
X134599226Y-70405892D01*
X134639000Y-70205933D01*
X134639000Y-70002055D01*
X134599226Y-69802096D01*
X134550922Y-69685480D01*
X149890000Y-69685480D01*
X149890000Y-70094521D01*
X149906062Y-70257598D01*
X149969532Y-70466834D01*
X150072604Y-70659666D01*
X150211315Y-70828686D01*
X150380335Y-70967396D01*
X150573167Y-71070468D01*
X150782403Y-71133938D01*
X151000000Y-71155370D01*
X151217598Y-71133938D01*
X151426834Y-71070468D01*
X151619666Y-70967396D01*
X151788686Y-70828686D01*
X151927396Y-70659666D01*
X152030468Y-70466833D01*
X152093938Y-70257597D01*
X152110000Y-70094520D01*
X152110000Y-69685479D01*
X152093938Y-69522402D01*
X152030468Y-69313166D01*
X151927396Y-69120334D01*
X151788686Y-68951314D01*
X151619666Y-68812604D01*
X151426833Y-68709532D01*
X151217597Y-68646062D01*
X151000000Y-68624630D01*
X150782402Y-68646062D01*
X150573166Y-68709532D01*
X150380334Y-68812604D01*
X150211314Y-68951314D01*
X150072604Y-69120334D01*
X149969532Y-69313167D01*
X149906062Y-69522403D01*
X149890000Y-69685480D01*
X134550922Y-69685480D01*
X134521205Y-69613738D01*
X134407937Y-69444220D01*
X134263774Y-69300057D01*
X134094256Y-69186789D01*
X133905898Y-69108768D01*
X133705939Y-69068994D01*
X133502061Y-69068994D01*
X133302102Y-69108768D01*
X133251854Y-69129582D01*
X133184250Y-69028405D01*
X133040087Y-68884242D01*
X132870569Y-68770974D01*
X132682211Y-68692953D01*
X132482252Y-68653179D01*
X132278374Y-68653179D01*
X132078415Y-68692953D01*
X131890057Y-68770974D01*
X131720539Y-68884242D01*
X131576376Y-69028405D01*
X131463108Y-69197923D01*
X131385087Y-69386281D01*
X131345313Y-69586240D01*
X129559000Y-69586240D01*
X129559000Y-69494061D01*
X129519226Y-69294102D01*
X129441205Y-69105744D01*
X129327937Y-68936226D01*
X129183774Y-68792063D01*
X129014256Y-68678795D01*
X128825898Y-68600774D01*
X128625939Y-68561000D01*
X128422061Y-68561000D01*
X128222102Y-68600774D01*
X128033744Y-68678795D01*
X127864226Y-68792063D01*
X127720063Y-68936226D01*
X127606795Y-69105744D01*
X127528774Y-69294102D01*
X127489000Y-69494061D01*
X121597248Y-69494061D01*
X121586898Y-69489774D01*
X121386939Y-69450000D01*
X121183061Y-69450000D01*
X120983102Y-69489774D01*
X120794744Y-69567795D01*
X120625226Y-69681063D01*
X120481063Y-69825226D01*
X120367795Y-69994744D01*
X120314160Y-70124229D01*
X120116939Y-70085000D01*
X119913061Y-70085000D01*
X119713102Y-70124774D01*
X119524744Y-70202795D01*
X119355226Y-70316063D01*
X119211063Y-70460226D01*
X119097795Y-70629744D01*
X119019774Y-70818102D01*
X118980000Y-71018061D01*
X114394565Y-71018061D01*
X114263491Y-70886987D01*
X113946566Y-70675225D01*
X113594419Y-70529361D01*
X113220581Y-70455000D01*
X112839419Y-70455000D01*
X112465581Y-70529361D01*
X112113434Y-70675225D01*
X111796509Y-70886987D01*
X111526987Y-71156509D01*
X111315225Y-71473434D01*
X111233777Y-71670066D01*
X111149774Y-71586063D01*
X110980256Y-71472795D01*
X110791898Y-71394774D01*
X110591939Y-71355000D01*
X110388061Y-71355000D01*
X110188102Y-71394774D01*
X109999744Y-71472795D01*
X109830226Y-71586063D01*
X109686063Y-71730226D01*
X109572795Y-71899744D01*
X109494774Y-72088102D01*
X109455000Y-72288061D01*
X108650907Y-72288061D01*
X108675000Y-72166939D01*
X108675000Y-71963061D01*
X108635226Y-71763102D01*
X108557205Y-71574744D01*
X108443937Y-71405226D01*
X108299774Y-71261063D01*
X108130256Y-71147795D01*
X107941898Y-71069774D01*
X107741939Y-71030000D01*
X107538061Y-71030000D01*
X107338102Y-71069774D01*
X107149744Y-71147795D01*
X106980226Y-71261063D01*
X106836063Y-71405226D01*
X106722795Y-71574744D01*
X106644774Y-71763102D01*
X106605000Y-71963061D01*
X101096878Y-71963061D01*
X101071226Y-71834102D01*
X100993205Y-71645744D01*
X100879937Y-71476226D01*
X100735774Y-71332063D01*
X100687735Y-71299965D01*
X100799274Y-71225437D01*
X100943437Y-71081274D01*
X101056705Y-70911756D01*
X101134726Y-70723398D01*
X101174500Y-70523439D01*
X101174500Y-70319561D01*
X101134726Y-70119602D01*
X101056705Y-69931244D01*
X100943437Y-69761726D01*
X100799274Y-69617563D01*
X100629756Y-69504295D01*
X100441398Y-69426274D01*
X100241439Y-69386500D01*
X100037561Y-69386500D01*
X99837602Y-69426274D01*
X99649244Y-69504295D01*
X99479726Y-69617563D01*
X99335563Y-69761726D01*
X99222295Y-69931244D01*
X99144274Y-70119602D01*
X99104500Y-70319561D01*
X99104500Y-70523439D01*
X99144274Y-70723398D01*
X99222295Y-70911756D01*
X99335563Y-71081274D01*
X99479726Y-71225437D01*
X99527765Y-71257535D01*
X99416226Y-71332063D01*
X99272063Y-71476226D01*
X99158795Y-71645744D01*
X99080774Y-71834102D01*
X99041000Y-72034061D01*
X98552000Y-72034061D01*
X98552000Y-67843061D01*
X117710000Y-67843061D01*
X117710000Y-68046939D01*
X117749774Y-68246898D01*
X117827795Y-68435256D01*
X117941063Y-68604774D01*
X118085226Y-68748937D01*
X118254744Y-68862205D01*
X118443102Y-68940226D01*
X118643061Y-68980000D01*
X118846939Y-68980000D01*
X119046898Y-68940226D01*
X119235256Y-68862205D01*
X119404774Y-68748937D01*
X119548937Y-68604774D01*
X119662205Y-68435256D01*
X119740226Y-68246898D01*
X119780000Y-68046939D01*
X119780000Y-67843061D01*
X119740226Y-67643102D01*
X119662205Y-67454744D01*
X119548937Y-67285226D01*
X119404774Y-67141063D01*
X119235256Y-67027795D01*
X119046898Y-66949774D01*
X118846939Y-66910000D01*
X118643061Y-66910000D01*
X118443102Y-66949774D01*
X118254744Y-67027795D01*
X118085226Y-67141063D01*
X117941063Y-67285226D01*
X117827795Y-67454744D01*
X117749774Y-67643102D01*
X117710000Y-67843061D01*
X98552000Y-67843061D01*
X98552000Y-66700061D01*
X123804442Y-66700061D01*
X123804442Y-66903939D01*
X123844216Y-67103898D01*
X123922237Y-67292256D01*
X124035505Y-67461774D01*
X124179668Y-67605937D01*
X124349186Y-67719205D01*
X124537544Y-67797226D01*
X124737503Y-67837000D01*
X124941381Y-67837000D01*
X125141340Y-67797226D01*
X125329698Y-67719205D01*
X125499216Y-67605937D01*
X125643379Y-67461774D01*
X125728045Y-67335061D01*
X138030000Y-67335061D01*
X138030000Y-67538939D01*
X138069774Y-67738898D01*
X138147795Y-67927256D01*
X138261063Y-68096774D01*
X138405226Y-68240937D01*
X138574744Y-68354205D01*
X138763102Y-68432226D01*
X138963061Y-68472000D01*
X139166939Y-68472000D01*
X139366898Y-68432226D01*
X139555256Y-68354205D01*
X139724774Y-68240937D01*
X139868937Y-68096774D01*
X139982205Y-67927256D01*
X140060226Y-67738898D01*
X140100000Y-67538939D01*
X140100000Y-67335061D01*
X140060226Y-67135102D01*
X139982205Y-66946744D01*
X139868937Y-66777226D01*
X139724774Y-66633063D01*
X139555256Y-66519795D01*
X139366898Y-66441774D01*
X139166939Y-66402000D01*
X138963061Y-66402000D01*
X138763102Y-66441774D01*
X138574744Y-66519795D01*
X138405226Y-66633063D01*
X138261063Y-66777226D01*
X138147795Y-66946744D01*
X138069774Y-67135102D01*
X138030000Y-67335061D01*
X125728045Y-67335061D01*
X125756647Y-67292256D01*
X125834668Y-67103898D01*
X125874442Y-66903939D01*
X125874442Y-66700061D01*
X125834668Y-66500102D01*
X125756647Y-66311744D01*
X125643379Y-66142226D01*
X125499216Y-65998063D01*
X125329698Y-65884795D01*
X125141340Y-65806774D01*
X124941381Y-65767000D01*
X124737503Y-65767000D01*
X124537544Y-65806774D01*
X124349186Y-65884795D01*
X124179668Y-65998063D01*
X124035505Y-66142226D01*
X123922237Y-66311744D01*
X123844216Y-66500102D01*
X123804442Y-66700061D01*
X98552000Y-66700061D01*
X98552000Y-63718072D01*
X99910000Y-63718072D01*
X100034482Y-63705812D01*
X100154180Y-63669502D01*
X100264494Y-63610537D01*
X100361185Y-63531185D01*
X100440537Y-63434494D01*
X100499502Y-63324180D01*
X100521513Y-63251620D01*
X100653368Y-63383475D01*
X100896589Y-63545990D01*
X101166842Y-63657932D01*
X101453740Y-63715000D01*
X101746260Y-63715000D01*
X102033158Y-63657932D01*
X102303411Y-63545990D01*
X102546632Y-63383475D01*
X102753475Y-63176632D01*
X102870000Y-63002240D01*
X102986525Y-63176632D01*
X103193368Y-63383475D01*
X103436589Y-63545990D01*
X103706842Y-63657932D01*
X103993740Y-63715000D01*
X104286260Y-63715000D01*
X104573158Y-63657932D01*
X104843411Y-63545990D01*
X105086632Y-63383475D01*
X105293475Y-63176632D01*
X105410000Y-63002240D01*
X105526525Y-63176632D01*
X105733368Y-63383475D01*
X105976589Y-63545990D01*
X106246842Y-63657932D01*
X106533740Y-63715000D01*
X106826260Y-63715000D01*
X107113158Y-63657932D01*
X107383411Y-63545990D01*
X107626632Y-63383475D01*
X107833475Y-63176632D01*
X107955195Y-62994466D01*
X108024822Y-63111355D01*
X108219731Y-63327588D01*
X108453080Y-63501641D01*
X108715901Y-63626825D01*
X108863110Y-63671476D01*
X109093000Y-63550155D01*
X109093000Y-62357000D01*
X109073000Y-62357000D01*
X109073000Y-62103000D01*
X109093000Y-62103000D01*
X109093000Y-62083000D01*
X109347000Y-62083000D01*
X109347000Y-62103000D01*
X109367000Y-62103000D01*
X109367000Y-62357000D01*
X109347000Y-62357000D01*
X109347000Y-63550155D01*
X109576890Y-63671476D01*
X109724099Y-63626825D01*
X109986920Y-63501641D01*
X110220269Y-63327588D01*
X110415178Y-63111355D01*
X110484805Y-62994466D01*
X110606525Y-63176632D01*
X110813368Y-63383475D01*
X111056589Y-63545990D01*
X111326842Y-63657932D01*
X111613740Y-63715000D01*
X111906260Y-63715000D01*
X112193158Y-63657932D01*
X112463411Y-63545990D01*
X112706632Y-63383475D01*
X112726518Y-63363589D01*
X120735000Y-63363589D01*
X120735000Y-63636411D01*
X120788225Y-63903989D01*
X120892629Y-64156043D01*
X121044201Y-64382886D01*
X121237114Y-64575799D01*
X121463957Y-64727371D01*
X121716011Y-64831775D01*
X121983589Y-64885000D01*
X122256411Y-64885000D01*
X122523989Y-64831775D01*
X122776043Y-64727371D01*
X123002886Y-64575799D01*
X123195799Y-64382886D01*
X123347371Y-64156043D01*
X123451775Y-63903989D01*
X123505000Y-63636411D01*
X123505000Y-63363589D01*
X125615000Y-63363589D01*
X125615000Y-63636411D01*
X125668225Y-63903989D01*
X125772629Y-64156043D01*
X125924201Y-64382886D01*
X126117114Y-64575799D01*
X126343957Y-64727371D01*
X126596011Y-64831775D01*
X126707269Y-64853906D01*
X126679099Y-64896066D01*
X126601078Y-65084424D01*
X126561304Y-65284383D01*
X126561304Y-65488261D01*
X126601078Y-65688220D01*
X126679099Y-65876578D01*
X126792367Y-66046096D01*
X126936530Y-66190259D01*
X126981000Y-66219973D01*
X126981000Y-66395935D01*
X127020774Y-66595894D01*
X127098795Y-66784252D01*
X127212063Y-66953770D01*
X127356226Y-67097933D01*
X127525744Y-67211201D01*
X127714102Y-67289222D01*
X127914061Y-67328996D01*
X128117939Y-67328996D01*
X128317898Y-67289222D01*
X128506256Y-67211201D01*
X128675774Y-67097933D01*
X128819937Y-66953770D01*
X128933205Y-66784252D01*
X129011226Y-66595894D01*
X129051000Y-66395935D01*
X129051000Y-66192057D01*
X129011226Y-65992098D01*
X128933205Y-65803740D01*
X128819937Y-65634222D01*
X128675774Y-65490059D01*
X128631304Y-65460345D01*
X128631304Y-65430061D01*
X132315000Y-65430061D01*
X132315000Y-65633939D01*
X132354774Y-65833898D01*
X132432795Y-66022256D01*
X132546063Y-66191774D01*
X132690226Y-66335937D01*
X132859744Y-66449205D01*
X133048102Y-66527226D01*
X133248061Y-66567000D01*
X133451939Y-66567000D01*
X133651898Y-66527226D01*
X133840256Y-66449205D01*
X134009774Y-66335937D01*
X134153937Y-66191774D01*
X134267205Y-66022256D01*
X134345226Y-65833898D01*
X134385000Y-65633939D01*
X134385000Y-65430061D01*
X134345226Y-65230102D01*
X134267205Y-65041744D01*
X134153937Y-64872226D01*
X134009774Y-64728063D01*
X133840256Y-64614795D01*
X133651898Y-64536774D01*
X133451939Y-64497000D01*
X133248061Y-64497000D01*
X133048102Y-64536774D01*
X132859744Y-64614795D01*
X132690226Y-64728063D01*
X132546063Y-64872226D01*
X132432795Y-65041744D01*
X132354774Y-65230102D01*
X132315000Y-65430061D01*
X128631304Y-65430061D01*
X128631304Y-65284383D01*
X128591530Y-65084424D01*
X128513509Y-64896066D01*
X128400241Y-64726548D01*
X128256078Y-64582385D01*
X128086560Y-64469117D01*
X128017976Y-64440709D01*
X128075799Y-64382886D01*
X128227371Y-64156043D01*
X128331775Y-63903989D01*
X128385000Y-63636411D01*
X128385000Y-63363589D01*
X128331775Y-63096011D01*
X128227371Y-62843957D01*
X128075799Y-62617114D01*
X127882886Y-62424201D01*
X127656043Y-62272629D01*
X127403989Y-62168225D01*
X127136411Y-62115000D01*
X126863589Y-62115000D01*
X126596011Y-62168225D01*
X126343957Y-62272629D01*
X126117114Y-62424201D01*
X125924201Y-62617114D01*
X125772629Y-62843957D01*
X125668225Y-63096011D01*
X125615000Y-63363589D01*
X123505000Y-63363589D01*
X123451775Y-63096011D01*
X123347371Y-62843957D01*
X123195799Y-62617114D01*
X123002886Y-62424201D01*
X122776043Y-62272629D01*
X122523989Y-62168225D01*
X122256411Y-62115000D01*
X121983589Y-62115000D01*
X121716011Y-62168225D01*
X121463957Y-62272629D01*
X121237114Y-62424201D01*
X121044201Y-62617114D01*
X120892629Y-62843957D01*
X120788225Y-63096011D01*
X120735000Y-63363589D01*
X112726518Y-63363589D01*
X112913475Y-63176632D01*
X113075990Y-62933411D01*
X113187932Y-62663158D01*
X113245000Y-62376260D01*
X113245000Y-62083740D01*
X113187932Y-61796842D01*
X113156932Y-61722000D01*
X133131928Y-61722000D01*
X133131928Y-63080000D01*
%TA.AperFunction,Conductor*%
D18*
G36*
X133131928Y-63080000D02*
G01*
X133144188Y-63204482D01*
X133180498Y-63324180D01*
X133239463Y-63434494D01*
X133318815Y-63531185D01*
X133415506Y-63610537D01*
X133525820Y-63669502D01*
X133645518Y-63705812D01*
X133770000Y-63718072D01*
X135470000Y-63718072D01*
X135594482Y-63705812D01*
X135714180Y-63669502D01*
X135824494Y-63610537D01*
X135921185Y-63531185D01*
X136000537Y-63434494D01*
X136059502Y-63324180D01*
X136081513Y-63251620D01*
X136213368Y-63383475D01*
X136456589Y-63545990D01*
X136726842Y-63657932D01*
X137013740Y-63715000D01*
X137306260Y-63715000D01*
X137593158Y-63657932D01*
X137863411Y-63545990D01*
X138106632Y-63383475D01*
X138313475Y-63176632D01*
X138430000Y-63002240D01*
X138546525Y-63176632D01*
X138753368Y-63383475D01*
X138996589Y-63545990D01*
X139266842Y-63657932D01*
X139553740Y-63715000D01*
X139846260Y-63715000D01*
X140133158Y-63657932D01*
X140403411Y-63545990D01*
X140646632Y-63383475D01*
X140853475Y-63176632D01*
X141015990Y-62933411D01*
X141127932Y-62663158D01*
X141185000Y-62376260D01*
X141185000Y-62083740D01*
X141127932Y-61796842D01*
X141096932Y-61722000D01*
X145923068Y-61722000D01*
X145892068Y-61796842D01*
X145835000Y-62083740D01*
X145835000Y-62376260D01*
X145892068Y-62663158D01*
X146004010Y-62933411D01*
X146166525Y-63176632D01*
X146373368Y-63383475D01*
X146547760Y-63500000D01*
X146373368Y-63616525D01*
X146166525Y-63823368D01*
X146004010Y-64066589D01*
X145892068Y-64336842D01*
X145835000Y-64623740D01*
X145835000Y-64916260D01*
X145892068Y-65203158D01*
X146004010Y-65473411D01*
X146166525Y-65716632D01*
X146373368Y-65923475D01*
X146616589Y-66085990D01*
X146886842Y-66197932D01*
X147173740Y-66255000D01*
X147466260Y-66255000D01*
X147753158Y-66197932D01*
X148023411Y-66085990D01*
X148266632Y-65923475D01*
X148473475Y-65716632D01*
X148590000Y-65542240D01*
X148706525Y-65716632D01*
X148913368Y-65923475D01*
X149156589Y-66085990D01*
X149426842Y-66197932D01*
X149713740Y-66255000D01*
X150006260Y-66255000D01*
X150293158Y-66197932D01*
X150563411Y-66085990D01*
X150806632Y-65923475D01*
X151013475Y-65716632D01*
X151130000Y-65542240D01*
X151246525Y-65716632D01*
X151453368Y-65923475D01*
X151696589Y-66085990D01*
X151966842Y-66197932D01*
X152253740Y-66255000D01*
X152546260Y-66255000D01*
X152833158Y-66197932D01*
X153103411Y-66085990D01*
X153346632Y-65923475D01*
X153553475Y-65716632D01*
X153715990Y-65473411D01*
X153827932Y-65203158D01*
X153885000Y-64916260D01*
X153885000Y-64623740D01*
X153827932Y-64336842D01*
X153715990Y-64066589D01*
X153553475Y-63823368D01*
X153421620Y-63691513D01*
X153494180Y-63669502D01*
X153604494Y-63610537D01*
X153701185Y-63531185D01*
X153780537Y-63434494D01*
X153839502Y-63324180D01*
X153875812Y-63204482D01*
X153888072Y-63080000D01*
X153885000Y-62515750D01*
X153726250Y-62357000D01*
X152527000Y-62357000D01*
X152527000Y-62377000D01*
X152273000Y-62377000D01*
X152273000Y-62357000D01*
X152253000Y-62357000D01*
X152253000Y-62103000D01*
X152273000Y-62103000D01*
X152273000Y-62083000D01*
X152527000Y-62083000D01*
X152527000Y-62103000D01*
X153726250Y-62103000D01*
X153885000Y-61944250D01*
X153886210Y-61722000D01*
X154178000Y-61722000D01*
X154178000Y-67819352D01*
X154083051Y-67810000D01*
X153316949Y-67810000D01*
X153158283Y-67825627D01*
X152954702Y-67887383D01*
X152767081Y-67987668D01*
X152602630Y-68122630D01*
X152467668Y-68287081D01*
X152367383Y-68474702D01*
X152305627Y-68678283D01*
X152284775Y-68890000D01*
X152305627Y-69101717D01*
X152367383Y-69305298D01*
X152467668Y-69492919D01*
X152602630Y-69657370D01*
X152767081Y-69792332D01*
X152954702Y-69892617D01*
X153158283Y-69954373D01*
X153316949Y-69970000D01*
X154083051Y-69970000D01*
X154178000Y-69960648D01*
X154178000Y-74819352D01*
X154083051Y-74810000D01*
X153316949Y-74810000D01*
X153158283Y-74825627D01*
X152954702Y-74887383D01*
X152767081Y-74987668D01*
X152602630Y-75122630D01*
X152467668Y-75287081D01*
X152367383Y-75474702D01*
X152305627Y-75678283D01*
X152284775Y-75890000D01*
X152305627Y-76101717D01*
X152367383Y-76305298D01*
X152467668Y-76492919D01*
X152602630Y-76657370D01*
X152767081Y-76792332D01*
X152954702Y-76892617D01*
X153158283Y-76954373D01*
X153316949Y-76970000D01*
X154083051Y-76970000D01*
X154178000Y-76960648D01*
X154178000Y-83058000D01*
X146176932Y-83058000D01*
X146207932Y-82983158D01*
X146265000Y-82696260D01*
X146265000Y-82403740D01*
X146207932Y-82116842D01*
X146095990Y-81846589D01*
X145933475Y-81603368D01*
X145726632Y-81396525D01*
X145483411Y-81234010D01*
X145213158Y-81122068D01*
X144926260Y-81065000D01*
X144633740Y-81065000D01*
X144346842Y-81122068D01*
X144076589Y-81234010D01*
X143833368Y-81396525D01*
X143626525Y-81603368D01*
X143504805Y-81785534D01*
X143435178Y-81668645D01*
X143240269Y-81452412D01*
X143006920Y-81278359D01*
X142744099Y-81153175D01*
X142596890Y-81108524D01*
X142367000Y-81229845D01*
X142367000Y-82423000D01*
X142387000Y-82423000D01*
X142387000Y-82677000D01*
X142367000Y-82677000D01*
X142367000Y-82697000D01*
X142113000Y-82697000D01*
X142113000Y-82677000D01*
X142093000Y-82677000D01*
X142093000Y-82423000D01*
X142113000Y-82423000D01*
X142113000Y-81229845D01*
X141883110Y-81108524D01*
X141735901Y-81153175D01*
X141473080Y-81278359D01*
X141239731Y-81452412D01*
X141044822Y-81668645D01*
X140975195Y-81785534D01*
X140853475Y-81603368D01*
X140646632Y-81396525D01*
X140403411Y-81234010D01*
X140133158Y-81122068D01*
X139846260Y-81065000D01*
X139553740Y-81065000D01*
X139266842Y-81122068D01*
X138996589Y-81234010D01*
X138753368Y-81396525D01*
X138546525Y-81603368D01*
X138430000Y-81777760D01*
X138313475Y-81603368D01*
X138106632Y-81396525D01*
X137863411Y-81234010D01*
X137593158Y-81122068D01*
X137306260Y-81065000D01*
X137013740Y-81065000D01*
X136726842Y-81122068D01*
X136456589Y-81234010D01*
X136213368Y-81396525D01*
X136006525Y-81603368D01*
X135890000Y-81777760D01*
X135773475Y-81603368D01*
X135566632Y-81396525D01*
X135323411Y-81234010D01*
X135053158Y-81122068D01*
X134766260Y-81065000D01*
X134473740Y-81065000D01*
X134186842Y-81122068D01*
X133916589Y-81234010D01*
X133673368Y-81396525D01*
X133466525Y-81603368D01*
X133350000Y-81777760D01*
X133233475Y-81603368D01*
X133026632Y-81396525D01*
X132783411Y-81234010D01*
X132513158Y-81122068D01*
X132226260Y-81065000D01*
X131933740Y-81065000D01*
X131646842Y-81122068D01*
X131376589Y-81234010D01*
X131133368Y-81396525D01*
X131001513Y-81528380D01*
X130979502Y-81455820D01*
X130920537Y-81345506D01*
X130841185Y-81248815D01*
X130744494Y-81169463D01*
X130634180Y-81110498D01*
X130514482Y-81074188D01*
X130390000Y-81061928D01*
X128690000Y-81061928D01*
X128565518Y-81074188D01*
X128445820Y-81110498D01*
X128335506Y-81169463D01*
X128238815Y-81248815D01*
X128159463Y-81345506D01*
X128100498Y-81455820D01*
X128064188Y-81575518D01*
X128051928Y-81700000D01*
X128051928Y-83058000D01*
X123316932Y-83058000D01*
X123347932Y-82983158D01*
X123405000Y-82696260D01*
X123405000Y-82403740D01*
X123347932Y-82116842D01*
X123235990Y-81846589D01*
X123073475Y-81603368D01*
X122866632Y-81396525D01*
X122623411Y-81234010D01*
X122353158Y-81122068D01*
X122066260Y-81065000D01*
X121773740Y-81065000D01*
X121486842Y-81122068D01*
X121216589Y-81234010D01*
X120973368Y-81396525D01*
X120841513Y-81528380D01*
X120819502Y-81455820D01*
X120760537Y-81345506D01*
X120681185Y-81248815D01*
X120584494Y-81169463D01*
X120474180Y-81110498D01*
X120354482Y-81074188D01*
X120230000Y-81061928D01*
X118530000Y-81061928D01*
X118405518Y-81074188D01*
X118285820Y-81110498D01*
X118175506Y-81169463D01*
X118078815Y-81248815D01*
X117999463Y-81345506D01*
X117940498Y-81455820D01*
X117904188Y-81575518D01*
X117891928Y-81700000D01*
X117891928Y-83058000D01*
X113156932Y-83058000D01*
X113187932Y-82983158D01*
X113245000Y-82696260D01*
X113245000Y-82403740D01*
X113187932Y-82116842D01*
X113075990Y-81846589D01*
X112913475Y-81603368D01*
X112706632Y-81396525D01*
X112463411Y-81234010D01*
X112193158Y-81122068D01*
X111906260Y-81065000D01*
X111613740Y-81065000D01*
X111326842Y-81122068D01*
X111056589Y-81234010D01*
X110813368Y-81396525D01*
X110606525Y-81603368D01*
X110484805Y-81785534D01*
X110415178Y-81668645D01*
X110220269Y-81452412D01*
X109986920Y-81278359D01*
X109724099Y-81153175D01*
X109576890Y-81108524D01*
X109347000Y-81229845D01*
X109347000Y-82423000D01*
X109367000Y-82423000D01*
X109367000Y-82677000D01*
X109347000Y-82677000D01*
X109347000Y-82697000D01*
X109093000Y-82697000D01*
X109093000Y-82677000D01*
X109073000Y-82677000D01*
X109073000Y-82423000D01*
X109093000Y-82423000D01*
X109093000Y-81229845D01*
X108863110Y-81108524D01*
X108715901Y-81153175D01*
X108453080Y-81278359D01*
X108219731Y-81452412D01*
X108024822Y-81668645D01*
X107955195Y-81785534D01*
X107833475Y-81603368D01*
X107626632Y-81396525D01*
X107383411Y-81234010D01*
X107113158Y-81122068D01*
X106826260Y-81065000D01*
X106533740Y-81065000D01*
X106246842Y-81122068D01*
X105976589Y-81234010D01*
X105733368Y-81396525D01*
X105526525Y-81603368D01*
X105410000Y-81777760D01*
X105293475Y-81603368D01*
X105086632Y-81396525D01*
X104843411Y-81234010D01*
X104573158Y-81122068D01*
X104286260Y-81065000D01*
X103993740Y-81065000D01*
X103706842Y-81122068D01*
X103436589Y-81234010D01*
X103193368Y-81396525D01*
X102986525Y-81603368D01*
X102870000Y-81777760D01*
X102753475Y-81603368D01*
X102546632Y-81396525D01*
X102303411Y-81234010D01*
X102033158Y-81122068D01*
X101746260Y-81065000D01*
X101453740Y-81065000D01*
X101166842Y-81122068D01*
X100896589Y-81234010D01*
X100653368Y-81396525D01*
X100521513Y-81528380D01*
X100499502Y-81455820D01*
X100440537Y-81345506D01*
X100361185Y-81248815D01*
X100264494Y-81169463D01*
X100154180Y-81110498D01*
X100034482Y-81074188D01*
X99910000Y-81061928D01*
X98552000Y-81061928D01*
X98552000Y-80670061D01*
X113011000Y-80670061D01*
X113011000Y-80873939D01*
X113050774Y-81073898D01*
X113128795Y-81262256D01*
X113242063Y-81431774D01*
X113386226Y-81575937D01*
X113555744Y-81689205D01*
X113744102Y-81767226D01*
X113944061Y-81807000D01*
X114147939Y-81807000D01*
X114347898Y-81767226D01*
X114536256Y-81689205D01*
X114705774Y-81575937D01*
X114849937Y-81431774D01*
X114963205Y-81262256D01*
X115041226Y-81073898D01*
X115081000Y-80873939D01*
X115081000Y-80670061D01*
X115041226Y-80470102D01*
X114963205Y-80281744D01*
X114849937Y-80112226D01*
X114705774Y-79968063D01*
X114536256Y-79854795D01*
X114347898Y-79776774D01*
X114147939Y-79737000D01*
X113944061Y-79737000D01*
X113744102Y-79776774D01*
X113555744Y-79854795D01*
X113386226Y-79968063D01*
X113242063Y-80112226D01*
X113128795Y-80281744D01*
X113050774Y-80470102D01*
X113011000Y-80670061D01*
X98552000Y-80670061D01*
X98552000Y-77876061D01*
X126219000Y-77876061D01*
X126219000Y-78079939D01*
X126258774Y-78279898D01*
X126336795Y-78468256D01*
X126450063Y-78637774D01*
X126594226Y-78781937D01*
X126763744Y-78895205D01*
X126952102Y-78973226D01*
X127152061Y-79013000D01*
X127355939Y-79013000D01*
X127555898Y-78973226D01*
X127744256Y-78895205D01*
X127913774Y-78781937D01*
X128057937Y-78637774D01*
X128171205Y-78468256D01*
X128249226Y-78279898D01*
X128279030Y-78130061D01*
X130791000Y-78130061D01*
X130791000Y-78333939D01*
X130830774Y-78533898D01*
X130908795Y-78722256D01*
X131022063Y-78891774D01*
X131166226Y-79035937D01*
X131335744Y-79149205D01*
X131524102Y-79227226D01*
X131724061Y-79267000D01*
X131927939Y-79267000D01*
X132127898Y-79227226D01*
X132316256Y-79149205D01*
X132485774Y-79035937D01*
X132629937Y-78891774D01*
X132743205Y-78722256D01*
X132821226Y-78533898D01*
X132825768Y-78511061D01*
X135617000Y-78511061D01*
X135617000Y-78714939D01*
X135656774Y-78914898D01*
X135734795Y-79103256D01*
X135848063Y-79272774D01*
X135992226Y-79416937D01*
X136161744Y-79530205D01*
X136350102Y-79608226D01*
X136550061Y-79648000D01*
X136753939Y-79648000D01*
X136953898Y-79608226D01*
X137142256Y-79530205D01*
X137311774Y-79416937D01*
X137455937Y-79272774D01*
X137540603Y-79146061D01*
X138665000Y-79146061D01*
X138665000Y-79349939D01*
X138704774Y-79549898D01*
X138782795Y-79738256D01*
X138896063Y-79907774D01*
X139040226Y-80051937D01*
X139209744Y-80165205D01*
X139398102Y-80243226D01*
X139598061Y-80283000D01*
X139801939Y-80283000D01*
X140001898Y-80243226D01*
X140190256Y-80165205D01*
X140359774Y-80051937D01*
X140503937Y-79907774D01*
X140617205Y-79738256D01*
X140695226Y-79549898D01*
X140697000Y-79540979D01*
X140697000Y-79603939D01*
X140736774Y-79803898D01*
X140814795Y-79992256D01*
X140928063Y-80161774D01*
X141072226Y-80305937D01*
X141241744Y-80419205D01*
X141430102Y-80497226D01*
X141630061Y-80537000D01*
X141833939Y-80537000D01*
X142033898Y-80497226D01*
X142222256Y-80419205D01*
X142391774Y-80305937D01*
X142535937Y-80161774D01*
X142649205Y-79992256D01*
X142727226Y-79803898D01*
X142767000Y-79603939D01*
X142767000Y-79400061D01*
X142727226Y-79200102D01*
X142649205Y-79011744D01*
X142637349Y-78994000D01*
X142649205Y-78976256D01*
X142727226Y-78787898D01*
X142767000Y-78587939D01*
X142767000Y-78384061D01*
X142727226Y-78184102D01*
X142649205Y-77995744D01*
X142637349Y-77978000D01*
X142649205Y-77960256D01*
X142727226Y-77771898D01*
X142767000Y-77571939D01*
X142767000Y-77368061D01*
X142727226Y-77168102D01*
X142649205Y-76979744D01*
X142535937Y-76810226D01*
X142391774Y-76666063D01*
X142222256Y-76552795D01*
X142033898Y-76474774D01*
X141833939Y-76435000D01*
X141630061Y-76435000D01*
X141430102Y-76474774D01*
X141241744Y-76552795D01*
X141072226Y-76666063D01*
X140928063Y-76810226D01*
X140814795Y-76979744D01*
X140736774Y-77168102D01*
X140697000Y-77368061D01*
X140697000Y-77571939D01*
X140736774Y-77771898D01*
X140814795Y-77960256D01*
X140826651Y-77978000D01*
X140814795Y-77995744D01*
X140736774Y-78184102D01*
X140697000Y-78384061D01*
X140697000Y-78587939D01*
X140736774Y-78787898D01*
X140814795Y-78976256D01*
X140826651Y-78994000D01*
X140814795Y-79011744D01*
X140736774Y-79200102D01*
X140735000Y-79209021D01*
X140735000Y-79146061D01*
X140695226Y-78946102D01*
X140617205Y-78757744D01*
X140503937Y-78588226D01*
X140359774Y-78444063D01*
X140190256Y-78330795D01*
X140001898Y-78252774D01*
X139801939Y-78213000D01*
X139598061Y-78213000D01*
X139398102Y-78252774D01*
X139209744Y-78330795D01*
X139040226Y-78444063D01*
X138896063Y-78588226D01*
X138782795Y-78757744D01*
X138704774Y-78946102D01*
X138665000Y-79146061D01*
X137540603Y-79146061D01*
X137569205Y-79103256D01*
X137647226Y-78914898D01*
X137687000Y-78714939D01*
X137687000Y-78511061D01*
X137647226Y-78311102D01*
X137569205Y-78122744D01*
X137455937Y-77953226D01*
X137311774Y-77809063D01*
X137142256Y-77695795D01*
X136953898Y-77617774D01*
X136753939Y-77578000D01*
X136550061Y-77578000D01*
X136350102Y-77617774D01*
X136161744Y-77695795D01*
X135992226Y-77809063D01*
X135848063Y-77953226D01*
X135734795Y-78122744D01*
X135656774Y-78311102D01*
X135617000Y-78511061D01*
X132825768Y-78511061D01*
X132861000Y-78333939D01*
X132861000Y-78130061D01*
X132821226Y-77930102D01*
X132743205Y-77741744D01*
X132629937Y-77572226D01*
X132485774Y-77428063D01*
X132316256Y-77314795D01*
X132127898Y-77236774D01*
X131927939Y-77197000D01*
X131724061Y-77197000D01*
X131524102Y-77236774D01*
X131335744Y-77314795D01*
X131166226Y-77428063D01*
X131022063Y-77572226D01*
X130908795Y-77741744D01*
X130830774Y-77930102D01*
X130791000Y-78130061D01*
X128279030Y-78130061D01*
X128289000Y-78079939D01*
X128289000Y-77876061D01*
X128249226Y-77676102D01*
X128171205Y-77487744D01*
X128057937Y-77318226D01*
X127913774Y-77174063D01*
X127744256Y-77060795D01*
X127555898Y-76982774D01*
X127355939Y-76943000D01*
X127152061Y-76943000D01*
X126952102Y-76982774D01*
X126763744Y-77060795D01*
X126594226Y-77174063D01*
X126450063Y-77318226D01*
X126336795Y-77487744D01*
X126258774Y-77676102D01*
X126219000Y-77876061D01*
X98552000Y-77876061D01*
X98552000Y-76733061D01*
X117710000Y-76733061D01*
X117710000Y-76936939D01*
X117749774Y-77136898D01*
X117827795Y-77325256D01*
X117941063Y-77494774D01*
X118085226Y-77638937D01*
X118254744Y-77752205D01*
X118443102Y-77830226D01*
X118643061Y-77870000D01*
X118846939Y-77870000D01*
X119046898Y-77830226D01*
X119235256Y-77752205D01*
X119404774Y-77638937D01*
X119548937Y-77494774D01*
X119662205Y-77325256D01*
X119740226Y-77136898D01*
X119780000Y-76936939D01*
X119780000Y-76733061D01*
X119740226Y-76533102D01*
X119662205Y-76344744D01*
X119548937Y-76175226D01*
X119404774Y-76031063D01*
X119235256Y-75917795D01*
X119046898Y-75839774D01*
X118846939Y-75800000D01*
X118643061Y-75800000D01*
X118443102Y-75839774D01*
X118254744Y-75917795D01*
X118085226Y-76031063D01*
X117941063Y-76175226D01*
X117827795Y-76344744D01*
X117749774Y-76533102D01*
X117710000Y-76733061D01*
X98552000Y-76733061D01*
X98552000Y-74256561D01*
X99104500Y-74256561D01*
X99104500Y-74460439D01*
X99144274Y-74660398D01*
X99222295Y-74848756D01*
X99335563Y-75018274D01*
X99479726Y-75162437D01*
X99649244Y-75275705D01*
X99837602Y-75353726D01*
X100037561Y-75393500D01*
X100241439Y-75393500D01*
X100441398Y-75353726D01*
X100629756Y-75275705D01*
X100799274Y-75162437D01*
X100943437Y-75018274D01*
X101056705Y-74848756D01*
X101134726Y-74660398D01*
X101174500Y-74460439D01*
X101174500Y-74256561D01*
X101134726Y-74056602D01*
X101056705Y-73868244D01*
X100943437Y-73698726D01*
X100799274Y-73554563D01*
X100629756Y-73441295D01*
X100441398Y-73363274D01*
X100241439Y-73323500D01*
X100037561Y-73323500D01*
X99837602Y-73363274D01*
X99649244Y-73441295D01*
X99479726Y-73554563D01*
X99335563Y-73698726D01*
X99222295Y-73868244D01*
X99144274Y-74056602D01*
X99104500Y-74256561D01*
X98552000Y-74256561D01*
X98552000Y-72034061D01*
X99041000Y-72034061D01*
X99041000Y-72237939D01*
X99080774Y-72437898D01*
X99158795Y-72626256D01*
X99272063Y-72795774D01*
X99416226Y-72939937D01*
X99585744Y-73053205D01*
X99774102Y-73131226D01*
X99974061Y-73171000D01*
X100177939Y-73171000D01*
X100377898Y-73131226D01*
X100566256Y-73053205D01*
X100735774Y-72939937D01*
X100879937Y-72795774D01*
X100993205Y-72626256D01*
X101071226Y-72437898D01*
X101111000Y-72237939D01*
X101111000Y-72034061D01*
X101096878Y-71963061D01*
X106605000Y-71963061D01*
X106605000Y-72166939D01*
X106644774Y-72366898D01*
X106722795Y-72555256D01*
X106836063Y-72724774D01*
X106980226Y-72868937D01*
X107149744Y-72982205D01*
X107338102Y-73060226D01*
X107538061Y-73100000D01*
X107741939Y-73100000D01*
X107941898Y-73060226D01*
X108130256Y-72982205D01*
X108299774Y-72868937D01*
X108443937Y-72724774D01*
X108557205Y-72555256D01*
X108635226Y-72366898D01*
X108650907Y-72288061D01*
X109455000Y-72288061D01*
X109455000Y-72491939D01*
X109494774Y-72691898D01*
X109572795Y-72880256D01*
X109686063Y-73049774D01*
X109830226Y-73193937D01*
X109999744Y-73307205D01*
X110188102Y-73385226D01*
X110388061Y-73425000D01*
X110591939Y-73425000D01*
X110791898Y-73385226D01*
X110980256Y-73307205D01*
X111149774Y-73193937D01*
X111233777Y-73109934D01*
X111315225Y-73306566D01*
X111526987Y-73623491D01*
X111796509Y-73893013D01*
X112113434Y-74104775D01*
X112465581Y-74250639D01*
X112839419Y-74325000D01*
X113220581Y-74325000D01*
X113594419Y-74250639D01*
X113946566Y-74104775D01*
X114263491Y-73893013D01*
X114533013Y-73623491D01*
X114744775Y-73306566D01*
X114851023Y-73050059D01*
X128250998Y-73050059D01*
X128250998Y-73253937D01*
X128290772Y-73453896D01*
X128368793Y-73642254D01*
X128482061Y-73811772D01*
X128626224Y-73955935D01*
X128795742Y-74069203D01*
X128984100Y-74147224D01*
X129184059Y-74186998D01*
X129387937Y-74186998D01*
X129587896Y-74147224D01*
X129776254Y-74069203D01*
X129945772Y-73955935D01*
X130047369Y-73854338D01*
X130068764Y-73961898D01*
X130104247Y-74047560D01*
X130019038Y-74082855D01*
X129849520Y-74196123D01*
X129705357Y-74340286D01*
X129592089Y-74509804D01*
X129514068Y-74698162D01*
X129474294Y-74898121D01*
X129474294Y-75101999D01*
X129514068Y-75301958D01*
X129592089Y-75490316D01*
X129705357Y-75659834D01*
X129849520Y-75803997D01*
X130019038Y-75917265D01*
X130207396Y-75995286D01*
X130407355Y-76035060D01*
X130611233Y-76035060D01*
X130811192Y-75995286D01*
X130999550Y-75917265D01*
X131169068Y-75803997D01*
X131313231Y-75659834D01*
X131426499Y-75490316D01*
X131504520Y-75301958D01*
X131544294Y-75101999D01*
X131544294Y-74898121D01*
X131504520Y-74698162D01*
X131469037Y-74612500D01*
X131554246Y-74577205D01*
X131723764Y-74463937D01*
X131867927Y-74319774D01*
X131981195Y-74150256D01*
X132059216Y-73961898D01*
X132098990Y-73761939D01*
X132098990Y-73558061D01*
X132059216Y-73358102D01*
X131981195Y-73169744D01*
X131867927Y-73000226D01*
X131790762Y-72923061D01*
X135490000Y-72923061D01*
X135490000Y-73126939D01*
X135529774Y-73326898D01*
X135607795Y-73515256D01*
X135721063Y-73684774D01*
X135865226Y-73828937D01*
X136034744Y-73942205D01*
X136223102Y-74020226D01*
X136423061Y-74060000D01*
X136626939Y-74060000D01*
X136826898Y-74020226D01*
X137015256Y-73942205D01*
X137184774Y-73828937D01*
X137328937Y-73684774D01*
X137442205Y-73515256D01*
X137520226Y-73326898D01*
X137560000Y-73126939D01*
X137560000Y-72923061D01*
X137520226Y-72723102D01*
X137442205Y-72534744D01*
X137328937Y-72365226D01*
X137184774Y-72221063D01*
X137152382Y-72199419D01*
X139035000Y-72199419D01*
X139035000Y-72580581D01*
X139109361Y-72954419D01*
X139255225Y-73306566D01*
X139466987Y-73623491D01*
X139736509Y-73893013D01*
X140053434Y-74104775D01*
X140405581Y-74250639D01*
X140779419Y-74325000D01*
X141160581Y-74325000D01*
X141534419Y-74250639D01*
X141886566Y-74104775D01*
X142203491Y-73893013D01*
X142284443Y-73812061D01*
X146793000Y-73812061D01*
X146793000Y-74015939D01*
X146832774Y-74215898D01*
X146910795Y-74404256D01*
X147024063Y-74573774D01*
X147168226Y-74717937D01*
X147337744Y-74831205D01*
X147526102Y-74909226D01*
X147726061Y-74949000D01*
X147929939Y-74949000D01*
X148129898Y-74909226D01*
X148318256Y-74831205D01*
X148487774Y-74717937D01*
X148520231Y-74685480D01*
X149890000Y-74685480D01*
X149890000Y-75094521D01*
X149906062Y-75257598D01*
X149969532Y-75466834D01*
X150072604Y-75659666D01*
X150211315Y-75828686D01*
X150380335Y-75967396D01*
X150573167Y-76070468D01*
X150782403Y-76133938D01*
X151000000Y-76155370D01*
X151217598Y-76133938D01*
X151426834Y-76070468D01*
X151619666Y-75967396D01*
X151788686Y-75828686D01*
X151927396Y-75659666D01*
X152030468Y-75466833D01*
X152093938Y-75257597D01*
X152110000Y-75094520D01*
X152110000Y-74685479D01*
X152093938Y-74522402D01*
X152030468Y-74313166D01*
X151927396Y-74120334D01*
X151788686Y-73951314D01*
X151619666Y-73812604D01*
X151426833Y-73709532D01*
X151217597Y-73646062D01*
X151000000Y-73624630D01*
X150782402Y-73646062D01*
X150573166Y-73709532D01*
X150380334Y-73812604D01*
X150211314Y-73951314D01*
X150072604Y-74120334D01*
X149969532Y-74313167D01*
X149906062Y-74522403D01*
X149890000Y-74685480D01*
X148520231Y-74685480D01*
X148631937Y-74573774D01*
X148745205Y-74404256D01*
X148823226Y-74215898D01*
X148863000Y-74015939D01*
X148863000Y-73812061D01*
X148823226Y-73612102D01*
X148745205Y-73423744D01*
X148631937Y-73254226D01*
X148487774Y-73110063D01*
X148318256Y-72996795D01*
X148129898Y-72918774D01*
X147929939Y-72879000D01*
X147726061Y-72879000D01*
X147526102Y-72918774D01*
X147337744Y-72996795D01*
X147168226Y-73110063D01*
X147024063Y-73254226D01*
X146910795Y-73423744D01*
X146832774Y-73612102D01*
X146793000Y-73812061D01*
X142284443Y-73812061D01*
X142473013Y-73623491D01*
X142684775Y-73306566D01*
X142830639Y-72954419D01*
X142905000Y-72580581D01*
X142905000Y-72199419D01*
X142830639Y-71825581D01*
X142684775Y-71473434D01*
X142473013Y-71156509D01*
X142203491Y-70886987D01*
X141886566Y-70675225D01*
X141534419Y-70529361D01*
X141160581Y-70455000D01*
X140779419Y-70455000D01*
X140405581Y-70529361D01*
X140053434Y-70675225D01*
X139736509Y-70886987D01*
X139466987Y-71156509D01*
X139255225Y-71473434D01*
X139109361Y-71825581D01*
X139035000Y-72199419D01*
X137152382Y-72199419D01*
X137015256Y-72107795D01*
X136826898Y-72029774D01*
X136626939Y-71990000D01*
X136423061Y-71990000D01*
X136223102Y-72029774D01*
X136034744Y-72107795D01*
X135865226Y-72221063D01*
X135721063Y-72365226D01*
X135607795Y-72534744D01*
X135529774Y-72723102D01*
X135490000Y-72923061D01*
X131790762Y-72923061D01*
X131723764Y-72856063D01*
X131554246Y-72742795D01*
X131365888Y-72664774D01*
X131165929Y-72625000D01*
X130962051Y-72625000D01*
X130762092Y-72664774D01*
X130573734Y-72742795D01*
X130404216Y-72856063D01*
X130302619Y-72957660D01*
X130281224Y-72850100D01*
X130203203Y-72661742D01*
X130089935Y-72492224D01*
X129945772Y-72348061D01*
X129940498Y-72344537D01*
X130000102Y-72369226D01*
X130200061Y-72409000D01*
X130403939Y-72409000D01*
X130603898Y-72369226D01*
X130792256Y-72291205D01*
X130961774Y-72177937D01*
X131105937Y-72033774D01*
X131219205Y-71864256D01*
X131297226Y-71675898D01*
X131337000Y-71475939D01*
X131337000Y-71272061D01*
X131297226Y-71072102D01*
X131219205Y-70883744D01*
X131105937Y-70714226D01*
X130961774Y-70570063D01*
X130792256Y-70456795D01*
X130603898Y-70378774D01*
X130403939Y-70339000D01*
X130200061Y-70339000D01*
X130000102Y-70378774D01*
X129811744Y-70456795D01*
X129642226Y-70570063D01*
X129498063Y-70714226D01*
X129384795Y-70883744D01*
X129306774Y-71072102D01*
X129267000Y-71272061D01*
X129267000Y-71475939D01*
X129306774Y-71675898D01*
X129384795Y-71864256D01*
X129498063Y-72033774D01*
X129642226Y-72177937D01*
X129647500Y-72181461D01*
X129587896Y-72156772D01*
X129387937Y-72116998D01*
X129184059Y-72116998D01*
X128984100Y-72156772D01*
X128795742Y-72234793D01*
X128626224Y-72348061D01*
X128482061Y-72492224D01*
X128368793Y-72661742D01*
X128290772Y-72850100D01*
X128250998Y-73050059D01*
X114851023Y-73050059D01*
X114890639Y-72954419D01*
X114965000Y-72580581D01*
X114965000Y-72199419D01*
X114890639Y-71825581D01*
X114744775Y-71473434D01*
X114533013Y-71156509D01*
X114394565Y-71018061D01*
X118980000Y-71018061D01*
X118980000Y-71221939D01*
X119019774Y-71421898D01*
X119097795Y-71610256D01*
X119211063Y-71779774D01*
X119355226Y-71923937D01*
X119524744Y-72037205D01*
X119713102Y-72115226D01*
X119913061Y-72155000D01*
X120116939Y-72155000D01*
X120316898Y-72115226D01*
X120505256Y-72037205D01*
X120674774Y-71923937D01*
X120818937Y-71779774D01*
X120932205Y-71610256D01*
X120985840Y-71480771D01*
X121183061Y-71520000D01*
X121386939Y-71520000D01*
X121586898Y-71480226D01*
X121775256Y-71402205D01*
X121944774Y-71288937D01*
X122088937Y-71144774D01*
X122202205Y-70975256D01*
X122280226Y-70786898D01*
X122320000Y-70586939D01*
X122320000Y-70383061D01*
X122280226Y-70183102D01*
X122202205Y-69994744D01*
X122088937Y-69825226D01*
X121944774Y-69681063D01*
X121775256Y-69567795D01*
X121597248Y-69494061D01*
X127489000Y-69494061D01*
X127489000Y-69697939D01*
X127528774Y-69897898D01*
X127606795Y-70086256D01*
X127720063Y-70255774D01*
X127864226Y-70399937D01*
X128033744Y-70513205D01*
X128222102Y-70591226D01*
X128422061Y-70631000D01*
X128625939Y-70631000D01*
X128825898Y-70591226D01*
X129014256Y-70513205D01*
X129183774Y-70399937D01*
X129327937Y-70255774D01*
X129441205Y-70086256D01*
X129519226Y-69897898D01*
X129559000Y-69697939D01*
X129559000Y-69586240D01*
X131345313Y-69586240D01*
X131345313Y-69790118D01*
X131385087Y-69990077D01*
X131463108Y-70178435D01*
X131576376Y-70347953D01*
X131720539Y-70492116D01*
X131844604Y-70575013D01*
X131807000Y-70764061D01*
X131807000Y-70967939D01*
X131846774Y-71167898D01*
X131924795Y-71356256D01*
X132038063Y-71525774D01*
X132182226Y-71669937D01*
X132351744Y-71783205D01*
X132540102Y-71861226D01*
X132740061Y-71901000D01*
X132943939Y-71901000D01*
X133143898Y-71861226D01*
X133332256Y-71783205D01*
X133501774Y-71669937D01*
X133645937Y-71525774D01*
X133759205Y-71356256D01*
X133837226Y-71167898D01*
X133848621Y-71110613D01*
X133905898Y-71099220D01*
X134094256Y-71021199D01*
X134263774Y-70907931D01*
X134407937Y-70763768D01*
X134521205Y-70594250D01*
X134599226Y-70405892D01*
X134639000Y-70205933D01*
X134639000Y-70002055D01*
X134599226Y-69802096D01*
X134550922Y-69685480D01*
X149890000Y-69685480D01*
X149890000Y-70094521D01*
X149906062Y-70257598D01*
X149969532Y-70466834D01*
X150072604Y-70659666D01*
X150211315Y-70828686D01*
X150380335Y-70967396D01*
X150573167Y-71070468D01*
X150782403Y-71133938D01*
X151000000Y-71155370D01*
X151217598Y-71133938D01*
X151426834Y-71070468D01*
X151619666Y-70967396D01*
X151788686Y-70828686D01*
X151927396Y-70659666D01*
X152030468Y-70466833D01*
X152093938Y-70257597D01*
X152110000Y-70094520D01*
X152110000Y-69685479D01*
X152093938Y-69522402D01*
X152030468Y-69313166D01*
X151927396Y-69120334D01*
X151788686Y-68951314D01*
X151619666Y-68812604D01*
X151426833Y-68709532D01*
X151217597Y-68646062D01*
X151000000Y-68624630D01*
X150782402Y-68646062D01*
X150573166Y-68709532D01*
X150380334Y-68812604D01*
X150211314Y-68951314D01*
X150072604Y-69120334D01*
X149969532Y-69313167D01*
X149906062Y-69522403D01*
X149890000Y-69685480D01*
X134550922Y-69685480D01*
X134521205Y-69613738D01*
X134407937Y-69444220D01*
X134263774Y-69300057D01*
X134094256Y-69186789D01*
X133905898Y-69108768D01*
X133705939Y-69068994D01*
X133502061Y-69068994D01*
X133302102Y-69108768D01*
X133251854Y-69129582D01*
X133184250Y-69028405D01*
X133040087Y-68884242D01*
X132870569Y-68770974D01*
X132682211Y-68692953D01*
X132482252Y-68653179D01*
X132278374Y-68653179D01*
X132078415Y-68692953D01*
X131890057Y-68770974D01*
X131720539Y-68884242D01*
X131576376Y-69028405D01*
X131463108Y-69197923D01*
X131385087Y-69386281D01*
X131345313Y-69586240D01*
X129559000Y-69586240D01*
X129559000Y-69494061D01*
X129519226Y-69294102D01*
X129441205Y-69105744D01*
X129327937Y-68936226D01*
X129183774Y-68792063D01*
X129014256Y-68678795D01*
X128825898Y-68600774D01*
X128625939Y-68561000D01*
X128422061Y-68561000D01*
X128222102Y-68600774D01*
X128033744Y-68678795D01*
X127864226Y-68792063D01*
X127720063Y-68936226D01*
X127606795Y-69105744D01*
X127528774Y-69294102D01*
X127489000Y-69494061D01*
X121597248Y-69494061D01*
X121586898Y-69489774D01*
X121386939Y-69450000D01*
X121183061Y-69450000D01*
X120983102Y-69489774D01*
X120794744Y-69567795D01*
X120625226Y-69681063D01*
X120481063Y-69825226D01*
X120367795Y-69994744D01*
X120314160Y-70124229D01*
X120116939Y-70085000D01*
X119913061Y-70085000D01*
X119713102Y-70124774D01*
X119524744Y-70202795D01*
X119355226Y-70316063D01*
X119211063Y-70460226D01*
X119097795Y-70629744D01*
X119019774Y-70818102D01*
X118980000Y-71018061D01*
X114394565Y-71018061D01*
X114263491Y-70886987D01*
X113946566Y-70675225D01*
X113594419Y-70529361D01*
X113220581Y-70455000D01*
X112839419Y-70455000D01*
X112465581Y-70529361D01*
X112113434Y-70675225D01*
X111796509Y-70886987D01*
X111526987Y-71156509D01*
X111315225Y-71473434D01*
X111233777Y-71670066D01*
X111149774Y-71586063D01*
X110980256Y-71472795D01*
X110791898Y-71394774D01*
X110591939Y-71355000D01*
X110388061Y-71355000D01*
X110188102Y-71394774D01*
X109999744Y-71472795D01*
X109830226Y-71586063D01*
X109686063Y-71730226D01*
X109572795Y-71899744D01*
X109494774Y-72088102D01*
X109455000Y-72288061D01*
X108650907Y-72288061D01*
X108675000Y-72166939D01*
X108675000Y-71963061D01*
X108635226Y-71763102D01*
X108557205Y-71574744D01*
X108443937Y-71405226D01*
X108299774Y-71261063D01*
X108130256Y-71147795D01*
X107941898Y-71069774D01*
X107741939Y-71030000D01*
X107538061Y-71030000D01*
X107338102Y-71069774D01*
X107149744Y-71147795D01*
X106980226Y-71261063D01*
X106836063Y-71405226D01*
X106722795Y-71574744D01*
X106644774Y-71763102D01*
X106605000Y-71963061D01*
X101096878Y-71963061D01*
X101071226Y-71834102D01*
X100993205Y-71645744D01*
X100879937Y-71476226D01*
X100735774Y-71332063D01*
X100687735Y-71299965D01*
X100799274Y-71225437D01*
X100943437Y-71081274D01*
X101056705Y-70911756D01*
X101134726Y-70723398D01*
X101174500Y-70523439D01*
X101174500Y-70319561D01*
X101134726Y-70119602D01*
X101056705Y-69931244D01*
X100943437Y-69761726D01*
X100799274Y-69617563D01*
X100629756Y-69504295D01*
X100441398Y-69426274D01*
X100241439Y-69386500D01*
X100037561Y-69386500D01*
X99837602Y-69426274D01*
X99649244Y-69504295D01*
X99479726Y-69617563D01*
X99335563Y-69761726D01*
X99222295Y-69931244D01*
X99144274Y-70119602D01*
X99104500Y-70319561D01*
X99104500Y-70523439D01*
X99144274Y-70723398D01*
X99222295Y-70911756D01*
X99335563Y-71081274D01*
X99479726Y-71225437D01*
X99527765Y-71257535D01*
X99416226Y-71332063D01*
X99272063Y-71476226D01*
X99158795Y-71645744D01*
X99080774Y-71834102D01*
X99041000Y-72034061D01*
X98552000Y-72034061D01*
X98552000Y-67843061D01*
X117710000Y-67843061D01*
X117710000Y-68046939D01*
X117749774Y-68246898D01*
X117827795Y-68435256D01*
X117941063Y-68604774D01*
X118085226Y-68748937D01*
X118254744Y-68862205D01*
X118443102Y-68940226D01*
X118643061Y-68980000D01*
X118846939Y-68980000D01*
X119046898Y-68940226D01*
X119235256Y-68862205D01*
X119404774Y-68748937D01*
X119548937Y-68604774D01*
X119662205Y-68435256D01*
X119740226Y-68246898D01*
X119780000Y-68046939D01*
X119780000Y-67843061D01*
X119740226Y-67643102D01*
X119662205Y-67454744D01*
X119548937Y-67285226D01*
X119404774Y-67141063D01*
X119235256Y-67027795D01*
X119046898Y-66949774D01*
X118846939Y-66910000D01*
X118643061Y-66910000D01*
X118443102Y-66949774D01*
X118254744Y-67027795D01*
X118085226Y-67141063D01*
X117941063Y-67285226D01*
X117827795Y-67454744D01*
X117749774Y-67643102D01*
X117710000Y-67843061D01*
X98552000Y-67843061D01*
X98552000Y-66700061D01*
X123804442Y-66700061D01*
X123804442Y-66903939D01*
X123844216Y-67103898D01*
X123922237Y-67292256D01*
X124035505Y-67461774D01*
X124179668Y-67605937D01*
X124349186Y-67719205D01*
X124537544Y-67797226D01*
X124737503Y-67837000D01*
X124941381Y-67837000D01*
X125141340Y-67797226D01*
X125329698Y-67719205D01*
X125499216Y-67605937D01*
X125643379Y-67461774D01*
X125728045Y-67335061D01*
X138030000Y-67335061D01*
X138030000Y-67538939D01*
X138069774Y-67738898D01*
X138147795Y-67927256D01*
X138261063Y-68096774D01*
X138405226Y-68240937D01*
X138574744Y-68354205D01*
X138763102Y-68432226D01*
X138963061Y-68472000D01*
X139166939Y-68472000D01*
X139366898Y-68432226D01*
X139555256Y-68354205D01*
X139724774Y-68240937D01*
X139868937Y-68096774D01*
X139982205Y-67927256D01*
X140060226Y-67738898D01*
X140100000Y-67538939D01*
X140100000Y-67335061D01*
X140060226Y-67135102D01*
X139982205Y-66946744D01*
X139868937Y-66777226D01*
X139724774Y-66633063D01*
X139555256Y-66519795D01*
X139366898Y-66441774D01*
X139166939Y-66402000D01*
X138963061Y-66402000D01*
X138763102Y-66441774D01*
X138574744Y-66519795D01*
X138405226Y-66633063D01*
X138261063Y-66777226D01*
X138147795Y-66946744D01*
X138069774Y-67135102D01*
X138030000Y-67335061D01*
X125728045Y-67335061D01*
X125756647Y-67292256D01*
X125834668Y-67103898D01*
X125874442Y-66903939D01*
X125874442Y-66700061D01*
X125834668Y-66500102D01*
X125756647Y-66311744D01*
X125643379Y-66142226D01*
X125499216Y-65998063D01*
X125329698Y-65884795D01*
X125141340Y-65806774D01*
X124941381Y-65767000D01*
X124737503Y-65767000D01*
X124537544Y-65806774D01*
X124349186Y-65884795D01*
X124179668Y-65998063D01*
X124035505Y-66142226D01*
X123922237Y-66311744D01*
X123844216Y-66500102D01*
X123804442Y-66700061D01*
X98552000Y-66700061D01*
X98552000Y-63718072D01*
X99910000Y-63718072D01*
X100034482Y-63705812D01*
X100154180Y-63669502D01*
X100264494Y-63610537D01*
X100361185Y-63531185D01*
X100440537Y-63434494D01*
X100499502Y-63324180D01*
X100521513Y-63251620D01*
X100653368Y-63383475D01*
X100896589Y-63545990D01*
X101166842Y-63657932D01*
X101453740Y-63715000D01*
X101746260Y-63715000D01*
X102033158Y-63657932D01*
X102303411Y-63545990D01*
X102546632Y-63383475D01*
X102753475Y-63176632D01*
X102870000Y-63002240D01*
X102986525Y-63176632D01*
X103193368Y-63383475D01*
X103436589Y-63545990D01*
X103706842Y-63657932D01*
X103993740Y-63715000D01*
X104286260Y-63715000D01*
X104573158Y-63657932D01*
X104843411Y-63545990D01*
X105086632Y-63383475D01*
X105293475Y-63176632D01*
X105410000Y-63002240D01*
X105526525Y-63176632D01*
X105733368Y-63383475D01*
X105976589Y-63545990D01*
X106246842Y-63657932D01*
X106533740Y-63715000D01*
X106826260Y-63715000D01*
X107113158Y-63657932D01*
X107383411Y-63545990D01*
X107626632Y-63383475D01*
X107833475Y-63176632D01*
X107955195Y-62994466D01*
X108024822Y-63111355D01*
X108219731Y-63327588D01*
X108453080Y-63501641D01*
X108715901Y-63626825D01*
X108863110Y-63671476D01*
X109093000Y-63550155D01*
X109093000Y-62357000D01*
X109073000Y-62357000D01*
X109073000Y-62103000D01*
X109093000Y-62103000D01*
X109093000Y-62083000D01*
X109347000Y-62083000D01*
X109347000Y-62103000D01*
X109367000Y-62103000D01*
X109367000Y-62357000D01*
X109347000Y-62357000D01*
X109347000Y-63550155D01*
X109576890Y-63671476D01*
X109724099Y-63626825D01*
X109986920Y-63501641D01*
X110220269Y-63327588D01*
X110415178Y-63111355D01*
X110484805Y-62994466D01*
X110606525Y-63176632D01*
X110813368Y-63383475D01*
X111056589Y-63545990D01*
X111326842Y-63657932D01*
X111613740Y-63715000D01*
X111906260Y-63715000D01*
X112193158Y-63657932D01*
X112463411Y-63545990D01*
X112706632Y-63383475D01*
X112726518Y-63363589D01*
X120735000Y-63363589D01*
X120735000Y-63636411D01*
X120788225Y-63903989D01*
X120892629Y-64156043D01*
X121044201Y-64382886D01*
X121237114Y-64575799D01*
X121463957Y-64727371D01*
X121716011Y-64831775D01*
X121983589Y-64885000D01*
X122256411Y-64885000D01*
X122523989Y-64831775D01*
X122776043Y-64727371D01*
X123002886Y-64575799D01*
X123195799Y-64382886D01*
X123347371Y-64156043D01*
X123451775Y-63903989D01*
X123505000Y-63636411D01*
X123505000Y-63363589D01*
X125615000Y-63363589D01*
X125615000Y-63636411D01*
X125668225Y-63903989D01*
X125772629Y-64156043D01*
X125924201Y-64382886D01*
X126117114Y-64575799D01*
X126343957Y-64727371D01*
X126596011Y-64831775D01*
X126707269Y-64853906D01*
X126679099Y-64896066D01*
X126601078Y-65084424D01*
X126561304Y-65284383D01*
X126561304Y-65488261D01*
X126601078Y-65688220D01*
X126679099Y-65876578D01*
X126792367Y-66046096D01*
X126936530Y-66190259D01*
X126981000Y-66219973D01*
X126981000Y-66395935D01*
X127020774Y-66595894D01*
X127098795Y-66784252D01*
X127212063Y-66953770D01*
X127356226Y-67097933D01*
X127525744Y-67211201D01*
X127714102Y-67289222D01*
X127914061Y-67328996D01*
X128117939Y-67328996D01*
X128317898Y-67289222D01*
X128506256Y-67211201D01*
X128675774Y-67097933D01*
X128819937Y-66953770D01*
X128933205Y-66784252D01*
X129011226Y-66595894D01*
X129051000Y-66395935D01*
X129051000Y-66192057D01*
X129011226Y-65992098D01*
X128933205Y-65803740D01*
X128819937Y-65634222D01*
X128675774Y-65490059D01*
X128631304Y-65460345D01*
X128631304Y-65430061D01*
X132315000Y-65430061D01*
X132315000Y-65633939D01*
X132354774Y-65833898D01*
X132432795Y-66022256D01*
X132546063Y-66191774D01*
X132690226Y-66335937D01*
X132859744Y-66449205D01*
X133048102Y-66527226D01*
X133248061Y-66567000D01*
X133451939Y-66567000D01*
X133651898Y-66527226D01*
X133840256Y-66449205D01*
X134009774Y-66335937D01*
X134153937Y-66191774D01*
X134267205Y-66022256D01*
X134345226Y-65833898D01*
X134385000Y-65633939D01*
X134385000Y-65430061D01*
X134345226Y-65230102D01*
X134267205Y-65041744D01*
X134153937Y-64872226D01*
X134009774Y-64728063D01*
X133840256Y-64614795D01*
X133651898Y-64536774D01*
X133451939Y-64497000D01*
X133248061Y-64497000D01*
X133048102Y-64536774D01*
X132859744Y-64614795D01*
X132690226Y-64728063D01*
X132546063Y-64872226D01*
X132432795Y-65041744D01*
X132354774Y-65230102D01*
X132315000Y-65430061D01*
X128631304Y-65430061D01*
X128631304Y-65284383D01*
X128591530Y-65084424D01*
X128513509Y-64896066D01*
X128400241Y-64726548D01*
X128256078Y-64582385D01*
X128086560Y-64469117D01*
X128017976Y-64440709D01*
X128075799Y-64382886D01*
X128227371Y-64156043D01*
X128331775Y-63903989D01*
X128385000Y-63636411D01*
X128385000Y-63363589D01*
X128331775Y-63096011D01*
X128227371Y-62843957D01*
X128075799Y-62617114D01*
X127882886Y-62424201D01*
X127656043Y-62272629D01*
X127403989Y-62168225D01*
X127136411Y-62115000D01*
X126863589Y-62115000D01*
X126596011Y-62168225D01*
X126343957Y-62272629D01*
X126117114Y-62424201D01*
X125924201Y-62617114D01*
X125772629Y-62843957D01*
X125668225Y-63096011D01*
X125615000Y-63363589D01*
X123505000Y-63363589D01*
X123451775Y-63096011D01*
X123347371Y-62843957D01*
X123195799Y-62617114D01*
X123002886Y-62424201D01*
X122776043Y-62272629D01*
X122523989Y-62168225D01*
X122256411Y-62115000D01*
X121983589Y-62115000D01*
X121716011Y-62168225D01*
X121463957Y-62272629D01*
X121237114Y-62424201D01*
X121044201Y-62617114D01*
X120892629Y-62843957D01*
X120788225Y-63096011D01*
X120735000Y-63363589D01*
X112726518Y-63363589D01*
X112913475Y-63176632D01*
X113075990Y-62933411D01*
X113187932Y-62663158D01*
X113245000Y-62376260D01*
X113245000Y-62083740D01*
X113187932Y-61796842D01*
X113156932Y-61722000D01*
X133131928Y-61722000D01*
X133131928Y-63080000D01*
G37*
%TD.AperFunction*%
%TD*%
M02*
