%TF.GenerationSoftware,KiCad,Pcbnew,(5.1.9)-1*%
%TF.CreationDate,2021-05-16T17:52:49+02:00*%
%TF.ProjectId,SojournerST,536f6a6f-7572-46e6-9572-53542e6b6963,rev?*%
%TF.SameCoordinates,Original*%
%TF.FileFunction,Soldermask,Top*%
%TF.FilePolarity,Negative*%
%FSLAX46Y46*%
G04 Gerber Fmt 4.6, Leading zero omitted, Abs format (unit mm)*
G04 Created by KiCad (PCBNEW (5.1.9)-1) date 2021-05-16 17:52:49*
%MOMM*%
%LPD*%
G01*
G04 APERTURE LIST*
%ADD10O,1.700000X1.700000*%
%ADD11R,1.700000X1.700000*%
%ADD12R,1.400000X1.600000*%
%ADD13C,1.500000*%
%ADD14R,1.060000X0.650000*%
%ADD15R,1.750000X0.450000*%
%ADD16R,0.800000X0.900000*%
%ADD17O,1.550000X0.890000*%
%ADD18R,1.550000X1.200000*%
%ADD19R,1.550000X1.500000*%
%ADD20O,0.950000X1.250000*%
%ADD21R,1.350000X0.400000*%
%ADD22C,3.800000*%
%ADD23C,2.600000*%
%ADD24R,2.500000X1.800000*%
G04 APERTURE END LIST*
D10*
%TO.C,J3*%
X139700000Y-62230000D03*
X137160000Y-62230000D03*
D11*
X134620000Y-62230000D03*
%TD*%
D12*
%TO.C,SW1*%
X117130000Y-68390000D03*
X117130000Y-76390000D03*
X121630000Y-68390000D03*
X121630000Y-76390000D03*
%TD*%
%TO.C,R5*%
G36*
G01*
X131339000Y-62630000D02*
X130789000Y-62630000D01*
G75*
G02*
X130589000Y-62430000I0J200000D01*
G01*
X130589000Y-62030000D01*
G75*
G02*
X130789000Y-61830000I200000J0D01*
G01*
X131339000Y-61830000D01*
G75*
G02*
X131539000Y-62030000I0J-200000D01*
G01*
X131539000Y-62430000D01*
G75*
G02*
X131339000Y-62630000I-200000J0D01*
G01*
G37*
G36*
G01*
X131339000Y-64280000D02*
X130789000Y-64280000D01*
G75*
G02*
X130589000Y-64080000I0J200000D01*
G01*
X130589000Y-63680000D01*
G75*
G02*
X130789000Y-63480000I200000J0D01*
G01*
X131339000Y-63480000D01*
G75*
G02*
X131539000Y-63680000I0J-200000D01*
G01*
X131539000Y-64080000D01*
G75*
G02*
X131339000Y-64280000I-200000J0D01*
G01*
G37*
%TD*%
%TO.C,R3*%
G36*
G01*
X126155000Y-82190000D02*
X126155000Y-81640000D01*
G75*
G02*
X126355000Y-81440000I200000J0D01*
G01*
X126755000Y-81440000D01*
G75*
G02*
X126955000Y-81640000I0J-200000D01*
G01*
X126955000Y-82190000D01*
G75*
G02*
X126755000Y-82390000I-200000J0D01*
G01*
X126355000Y-82390000D01*
G75*
G02*
X126155000Y-82190000I0J200000D01*
G01*
G37*
G36*
G01*
X124505000Y-82190000D02*
X124505000Y-81640000D01*
G75*
G02*
X124705000Y-81440000I200000J0D01*
G01*
X125105000Y-81440000D01*
G75*
G02*
X125305000Y-81640000I0J-200000D01*
G01*
X125305000Y-82190000D01*
G75*
G02*
X125105000Y-82390000I-200000J0D01*
G01*
X124705000Y-82390000D01*
G75*
G02*
X124505000Y-82190000I0J200000D01*
G01*
G37*
%TD*%
D10*
%TO.C,J7*%
X121920000Y-82550000D03*
D11*
X119380000Y-82550000D03*
%TD*%
D10*
%TO.C,J2*%
X144780000Y-82550000D03*
X142240000Y-82550000D03*
X139700000Y-82550000D03*
X137160000Y-82550000D03*
X134620000Y-82550000D03*
X132080000Y-82550000D03*
D11*
X129540000Y-82550000D03*
%TD*%
%TO.C,D3*%
G36*
G01*
X132331750Y-63405000D02*
X132844250Y-63405000D01*
G75*
G02*
X133063000Y-63623750I0J-218750D01*
G01*
X133063000Y-64061250D01*
G75*
G02*
X132844250Y-64280000I-218750J0D01*
G01*
X132331750Y-64280000D01*
G75*
G02*
X132113000Y-64061250I0J218750D01*
G01*
X132113000Y-63623750D01*
G75*
G02*
X132331750Y-63405000I218750J0D01*
G01*
G37*
G36*
G01*
X132331750Y-61830000D02*
X132844250Y-61830000D01*
G75*
G02*
X133063000Y-62048750I0J-218750D01*
G01*
X133063000Y-62486250D01*
G75*
G02*
X132844250Y-62705000I-218750J0D01*
G01*
X132331750Y-62705000D01*
G75*
G02*
X132113000Y-62486250I0J218750D01*
G01*
X132113000Y-62048750D01*
G75*
G02*
X132331750Y-61830000I218750J0D01*
G01*
G37*
%TD*%
D13*
%TO.C,Y1*%
X122120000Y-63500000D03*
X127000000Y-63500000D03*
%TD*%
D14*
%TO.C,U4*%
X142580000Y-68260000D03*
X142580000Y-69210000D03*
X142580000Y-67310000D03*
X144780000Y-67310000D03*
X144780000Y-68260000D03*
X144780000Y-69210000D03*
%TD*%
D15*
%TO.C,U3*%
X109010000Y-68815000D03*
X109010000Y-69465000D03*
X109010000Y-70115000D03*
X109010000Y-70765000D03*
X109010000Y-71415000D03*
X109010000Y-72065000D03*
X109010000Y-72715000D03*
X109010000Y-73365000D03*
X109010000Y-74015000D03*
X109010000Y-74665000D03*
X109010000Y-75315000D03*
X109010000Y-75965000D03*
X101810000Y-75965000D03*
X101810000Y-75315000D03*
X101810000Y-74665000D03*
X101810000Y-74015000D03*
X101810000Y-73365000D03*
X101810000Y-72715000D03*
X101810000Y-72065000D03*
X101810000Y-71415000D03*
X101810000Y-70765000D03*
X101810000Y-70115000D03*
X101810000Y-69465000D03*
X101810000Y-68815000D03*
%TD*%
D16*
%TO.C,U2*%
X146050000Y-75930000D03*
X145100000Y-73930000D03*
X147000000Y-73930000D03*
%TD*%
%TO.C,U1*%
G36*
G01*
X127760000Y-68840000D02*
X127760000Y-67590000D01*
G75*
G02*
X127885000Y-67465000I125000J0D01*
G01*
X128135000Y-67465000D01*
G75*
G02*
X128260000Y-67590000I0J-125000D01*
G01*
X128260000Y-68840000D01*
G75*
G02*
X128135000Y-68965000I-125000J0D01*
G01*
X127885000Y-68965000D01*
G75*
G02*
X127760000Y-68840000I0J125000D01*
G01*
G37*
G36*
G01*
X128560000Y-68840000D02*
X128560000Y-67590000D01*
G75*
G02*
X128685000Y-67465000I125000J0D01*
G01*
X128935000Y-67465000D01*
G75*
G02*
X129060000Y-67590000I0J-125000D01*
G01*
X129060000Y-68840000D01*
G75*
G02*
X128935000Y-68965000I-125000J0D01*
G01*
X128685000Y-68965000D01*
G75*
G02*
X128560000Y-68840000I0J125000D01*
G01*
G37*
G36*
G01*
X129360000Y-68840000D02*
X129360000Y-67590000D01*
G75*
G02*
X129485000Y-67465000I125000J0D01*
G01*
X129735000Y-67465000D01*
G75*
G02*
X129860000Y-67590000I0J-125000D01*
G01*
X129860000Y-68840000D01*
G75*
G02*
X129735000Y-68965000I-125000J0D01*
G01*
X129485000Y-68965000D01*
G75*
G02*
X129360000Y-68840000I0J125000D01*
G01*
G37*
G36*
G01*
X130160000Y-68840000D02*
X130160000Y-67590000D01*
G75*
G02*
X130285000Y-67465000I125000J0D01*
G01*
X130535000Y-67465000D01*
G75*
G02*
X130660000Y-67590000I0J-125000D01*
G01*
X130660000Y-68840000D01*
G75*
G02*
X130535000Y-68965000I-125000J0D01*
G01*
X130285000Y-68965000D01*
G75*
G02*
X130160000Y-68840000I0J125000D01*
G01*
G37*
G36*
G01*
X130960000Y-68840000D02*
X130960000Y-67590000D01*
G75*
G02*
X131085000Y-67465000I125000J0D01*
G01*
X131335000Y-67465000D01*
G75*
G02*
X131460000Y-67590000I0J-125000D01*
G01*
X131460000Y-68840000D01*
G75*
G02*
X131335000Y-68965000I-125000J0D01*
G01*
X131085000Y-68965000D01*
G75*
G02*
X130960000Y-68840000I0J125000D01*
G01*
G37*
G36*
G01*
X131760000Y-68840000D02*
X131760000Y-67590000D01*
G75*
G02*
X131885000Y-67465000I125000J0D01*
G01*
X132135000Y-67465000D01*
G75*
G02*
X132260000Y-67590000I0J-125000D01*
G01*
X132260000Y-68840000D01*
G75*
G02*
X132135000Y-68965000I-125000J0D01*
G01*
X131885000Y-68965000D01*
G75*
G02*
X131760000Y-68840000I0J125000D01*
G01*
G37*
G36*
G01*
X132560000Y-68840000D02*
X132560000Y-67590000D01*
G75*
G02*
X132685000Y-67465000I125000J0D01*
G01*
X132935000Y-67465000D01*
G75*
G02*
X133060000Y-67590000I0J-125000D01*
G01*
X133060000Y-68840000D01*
G75*
G02*
X132935000Y-68965000I-125000J0D01*
G01*
X132685000Y-68965000D01*
G75*
G02*
X132560000Y-68840000I0J125000D01*
G01*
G37*
G36*
G01*
X133360000Y-68840000D02*
X133360000Y-67590000D01*
G75*
G02*
X133485000Y-67465000I125000J0D01*
G01*
X133735000Y-67465000D01*
G75*
G02*
X133860000Y-67590000I0J-125000D01*
G01*
X133860000Y-68840000D01*
G75*
G02*
X133735000Y-68965000I-125000J0D01*
G01*
X133485000Y-68965000D01*
G75*
G02*
X133360000Y-68840000I0J125000D01*
G01*
G37*
G36*
G01*
X134235000Y-69715000D02*
X134235000Y-69465000D01*
G75*
G02*
X134360000Y-69340000I125000J0D01*
G01*
X135610000Y-69340000D01*
G75*
G02*
X135735000Y-69465000I0J-125000D01*
G01*
X135735000Y-69715000D01*
G75*
G02*
X135610000Y-69840000I-125000J0D01*
G01*
X134360000Y-69840000D01*
G75*
G02*
X134235000Y-69715000I0J125000D01*
G01*
G37*
G36*
G01*
X134235000Y-70515000D02*
X134235000Y-70265000D01*
G75*
G02*
X134360000Y-70140000I125000J0D01*
G01*
X135610000Y-70140000D01*
G75*
G02*
X135735000Y-70265000I0J-125000D01*
G01*
X135735000Y-70515000D01*
G75*
G02*
X135610000Y-70640000I-125000J0D01*
G01*
X134360000Y-70640000D01*
G75*
G02*
X134235000Y-70515000I0J125000D01*
G01*
G37*
G36*
G01*
X134235000Y-71315000D02*
X134235000Y-71065000D01*
G75*
G02*
X134360000Y-70940000I125000J0D01*
G01*
X135610000Y-70940000D01*
G75*
G02*
X135735000Y-71065000I0J-125000D01*
G01*
X135735000Y-71315000D01*
G75*
G02*
X135610000Y-71440000I-125000J0D01*
G01*
X134360000Y-71440000D01*
G75*
G02*
X134235000Y-71315000I0J125000D01*
G01*
G37*
G36*
G01*
X134235000Y-72115000D02*
X134235000Y-71865000D01*
G75*
G02*
X134360000Y-71740000I125000J0D01*
G01*
X135610000Y-71740000D01*
G75*
G02*
X135735000Y-71865000I0J-125000D01*
G01*
X135735000Y-72115000D01*
G75*
G02*
X135610000Y-72240000I-125000J0D01*
G01*
X134360000Y-72240000D01*
G75*
G02*
X134235000Y-72115000I0J125000D01*
G01*
G37*
G36*
G01*
X134235000Y-72915000D02*
X134235000Y-72665000D01*
G75*
G02*
X134360000Y-72540000I125000J0D01*
G01*
X135610000Y-72540000D01*
G75*
G02*
X135735000Y-72665000I0J-125000D01*
G01*
X135735000Y-72915000D01*
G75*
G02*
X135610000Y-73040000I-125000J0D01*
G01*
X134360000Y-73040000D01*
G75*
G02*
X134235000Y-72915000I0J125000D01*
G01*
G37*
G36*
G01*
X134235000Y-73715000D02*
X134235000Y-73465000D01*
G75*
G02*
X134360000Y-73340000I125000J0D01*
G01*
X135610000Y-73340000D01*
G75*
G02*
X135735000Y-73465000I0J-125000D01*
G01*
X135735000Y-73715000D01*
G75*
G02*
X135610000Y-73840000I-125000J0D01*
G01*
X134360000Y-73840000D01*
G75*
G02*
X134235000Y-73715000I0J125000D01*
G01*
G37*
G36*
G01*
X134235000Y-74515000D02*
X134235000Y-74265000D01*
G75*
G02*
X134360000Y-74140000I125000J0D01*
G01*
X135610000Y-74140000D01*
G75*
G02*
X135735000Y-74265000I0J-125000D01*
G01*
X135735000Y-74515000D01*
G75*
G02*
X135610000Y-74640000I-125000J0D01*
G01*
X134360000Y-74640000D01*
G75*
G02*
X134235000Y-74515000I0J125000D01*
G01*
G37*
G36*
G01*
X134235000Y-75315000D02*
X134235000Y-75065000D01*
G75*
G02*
X134360000Y-74940000I125000J0D01*
G01*
X135610000Y-74940000D01*
G75*
G02*
X135735000Y-75065000I0J-125000D01*
G01*
X135735000Y-75315000D01*
G75*
G02*
X135610000Y-75440000I-125000J0D01*
G01*
X134360000Y-75440000D01*
G75*
G02*
X134235000Y-75315000I0J125000D01*
G01*
G37*
G36*
G01*
X133360000Y-77190000D02*
X133360000Y-75940000D01*
G75*
G02*
X133485000Y-75815000I125000J0D01*
G01*
X133735000Y-75815000D01*
G75*
G02*
X133860000Y-75940000I0J-125000D01*
G01*
X133860000Y-77190000D01*
G75*
G02*
X133735000Y-77315000I-125000J0D01*
G01*
X133485000Y-77315000D01*
G75*
G02*
X133360000Y-77190000I0J125000D01*
G01*
G37*
G36*
G01*
X132560000Y-77190000D02*
X132560000Y-75940000D01*
G75*
G02*
X132685000Y-75815000I125000J0D01*
G01*
X132935000Y-75815000D01*
G75*
G02*
X133060000Y-75940000I0J-125000D01*
G01*
X133060000Y-77190000D01*
G75*
G02*
X132935000Y-77315000I-125000J0D01*
G01*
X132685000Y-77315000D01*
G75*
G02*
X132560000Y-77190000I0J125000D01*
G01*
G37*
G36*
G01*
X131760000Y-77190000D02*
X131760000Y-75940000D01*
G75*
G02*
X131885000Y-75815000I125000J0D01*
G01*
X132135000Y-75815000D01*
G75*
G02*
X132260000Y-75940000I0J-125000D01*
G01*
X132260000Y-77190000D01*
G75*
G02*
X132135000Y-77315000I-125000J0D01*
G01*
X131885000Y-77315000D01*
G75*
G02*
X131760000Y-77190000I0J125000D01*
G01*
G37*
G36*
G01*
X130960000Y-77190000D02*
X130960000Y-75940000D01*
G75*
G02*
X131085000Y-75815000I125000J0D01*
G01*
X131335000Y-75815000D01*
G75*
G02*
X131460000Y-75940000I0J-125000D01*
G01*
X131460000Y-77190000D01*
G75*
G02*
X131335000Y-77315000I-125000J0D01*
G01*
X131085000Y-77315000D01*
G75*
G02*
X130960000Y-77190000I0J125000D01*
G01*
G37*
G36*
G01*
X130160000Y-77190000D02*
X130160000Y-75940000D01*
G75*
G02*
X130285000Y-75815000I125000J0D01*
G01*
X130535000Y-75815000D01*
G75*
G02*
X130660000Y-75940000I0J-125000D01*
G01*
X130660000Y-77190000D01*
G75*
G02*
X130535000Y-77315000I-125000J0D01*
G01*
X130285000Y-77315000D01*
G75*
G02*
X130160000Y-77190000I0J125000D01*
G01*
G37*
G36*
G01*
X129360000Y-77190000D02*
X129360000Y-75940000D01*
G75*
G02*
X129485000Y-75815000I125000J0D01*
G01*
X129735000Y-75815000D01*
G75*
G02*
X129860000Y-75940000I0J-125000D01*
G01*
X129860000Y-77190000D01*
G75*
G02*
X129735000Y-77315000I-125000J0D01*
G01*
X129485000Y-77315000D01*
G75*
G02*
X129360000Y-77190000I0J125000D01*
G01*
G37*
G36*
G01*
X128560000Y-77190000D02*
X128560000Y-75940000D01*
G75*
G02*
X128685000Y-75815000I125000J0D01*
G01*
X128935000Y-75815000D01*
G75*
G02*
X129060000Y-75940000I0J-125000D01*
G01*
X129060000Y-77190000D01*
G75*
G02*
X128935000Y-77315000I-125000J0D01*
G01*
X128685000Y-77315000D01*
G75*
G02*
X128560000Y-77190000I0J125000D01*
G01*
G37*
G36*
G01*
X127760000Y-77190000D02*
X127760000Y-75940000D01*
G75*
G02*
X127885000Y-75815000I125000J0D01*
G01*
X128135000Y-75815000D01*
G75*
G02*
X128260000Y-75940000I0J-125000D01*
G01*
X128260000Y-77190000D01*
G75*
G02*
X128135000Y-77315000I-125000J0D01*
G01*
X127885000Y-77315000D01*
G75*
G02*
X127760000Y-77190000I0J125000D01*
G01*
G37*
G36*
G01*
X125885000Y-75315000D02*
X125885000Y-75065000D01*
G75*
G02*
X126010000Y-74940000I125000J0D01*
G01*
X127260000Y-74940000D01*
G75*
G02*
X127385000Y-75065000I0J-125000D01*
G01*
X127385000Y-75315000D01*
G75*
G02*
X127260000Y-75440000I-125000J0D01*
G01*
X126010000Y-75440000D01*
G75*
G02*
X125885000Y-75315000I0J125000D01*
G01*
G37*
G36*
G01*
X125885000Y-74515000D02*
X125885000Y-74265000D01*
G75*
G02*
X126010000Y-74140000I125000J0D01*
G01*
X127260000Y-74140000D01*
G75*
G02*
X127385000Y-74265000I0J-125000D01*
G01*
X127385000Y-74515000D01*
G75*
G02*
X127260000Y-74640000I-125000J0D01*
G01*
X126010000Y-74640000D01*
G75*
G02*
X125885000Y-74515000I0J125000D01*
G01*
G37*
G36*
G01*
X125885000Y-73715000D02*
X125885000Y-73465000D01*
G75*
G02*
X126010000Y-73340000I125000J0D01*
G01*
X127260000Y-73340000D01*
G75*
G02*
X127385000Y-73465000I0J-125000D01*
G01*
X127385000Y-73715000D01*
G75*
G02*
X127260000Y-73840000I-125000J0D01*
G01*
X126010000Y-73840000D01*
G75*
G02*
X125885000Y-73715000I0J125000D01*
G01*
G37*
G36*
G01*
X125885000Y-72915000D02*
X125885000Y-72665000D01*
G75*
G02*
X126010000Y-72540000I125000J0D01*
G01*
X127260000Y-72540000D01*
G75*
G02*
X127385000Y-72665000I0J-125000D01*
G01*
X127385000Y-72915000D01*
G75*
G02*
X127260000Y-73040000I-125000J0D01*
G01*
X126010000Y-73040000D01*
G75*
G02*
X125885000Y-72915000I0J125000D01*
G01*
G37*
G36*
G01*
X125885000Y-72115000D02*
X125885000Y-71865000D01*
G75*
G02*
X126010000Y-71740000I125000J0D01*
G01*
X127260000Y-71740000D01*
G75*
G02*
X127385000Y-71865000I0J-125000D01*
G01*
X127385000Y-72115000D01*
G75*
G02*
X127260000Y-72240000I-125000J0D01*
G01*
X126010000Y-72240000D01*
G75*
G02*
X125885000Y-72115000I0J125000D01*
G01*
G37*
G36*
G01*
X125885000Y-71315000D02*
X125885000Y-71065000D01*
G75*
G02*
X126010000Y-70940000I125000J0D01*
G01*
X127260000Y-70940000D01*
G75*
G02*
X127385000Y-71065000I0J-125000D01*
G01*
X127385000Y-71315000D01*
G75*
G02*
X127260000Y-71440000I-125000J0D01*
G01*
X126010000Y-71440000D01*
G75*
G02*
X125885000Y-71315000I0J125000D01*
G01*
G37*
G36*
G01*
X125885000Y-70515000D02*
X125885000Y-70265000D01*
G75*
G02*
X126010000Y-70140000I125000J0D01*
G01*
X127260000Y-70140000D01*
G75*
G02*
X127385000Y-70265000I0J-125000D01*
G01*
X127385000Y-70515000D01*
G75*
G02*
X127260000Y-70640000I-125000J0D01*
G01*
X126010000Y-70640000D01*
G75*
G02*
X125885000Y-70515000I0J125000D01*
G01*
G37*
G36*
G01*
X125885000Y-69715000D02*
X125885000Y-69465000D01*
G75*
G02*
X126010000Y-69340000I125000J0D01*
G01*
X127260000Y-69340000D01*
G75*
G02*
X127385000Y-69465000I0J-125000D01*
G01*
X127385000Y-69715000D01*
G75*
G02*
X127260000Y-69840000I-125000J0D01*
G01*
X126010000Y-69840000D01*
G75*
G02*
X125885000Y-69715000I0J125000D01*
G01*
G37*
%TD*%
%TO.C,R1*%
G36*
G01*
X137902000Y-80285000D02*
X137902000Y-79735000D01*
G75*
G02*
X138102000Y-79535000I200000J0D01*
G01*
X138502000Y-79535000D01*
G75*
G02*
X138702000Y-79735000I0J-200000D01*
G01*
X138702000Y-80285000D01*
G75*
G02*
X138502000Y-80485000I-200000J0D01*
G01*
X138102000Y-80485000D01*
G75*
G02*
X137902000Y-80285000I0J200000D01*
G01*
G37*
G36*
G01*
X136252000Y-80285000D02*
X136252000Y-79735000D01*
G75*
G02*
X136452000Y-79535000I200000J0D01*
G01*
X136852000Y-79535000D01*
G75*
G02*
X137052000Y-79735000I0J-200000D01*
G01*
X137052000Y-80285000D01*
G75*
G02*
X136852000Y-80485000I-200000J0D01*
G01*
X136452000Y-80485000D01*
G75*
G02*
X136252000Y-80285000I0J200000D01*
G01*
G37*
%TD*%
%TO.C,R4*%
G36*
G01*
X123550000Y-79190500D02*
X124100000Y-79190500D01*
G75*
G02*
X124300000Y-79390500I0J-200000D01*
G01*
X124300000Y-79790500D01*
G75*
G02*
X124100000Y-79990500I-200000J0D01*
G01*
X123550000Y-79990500D01*
G75*
G02*
X123350000Y-79790500I0J200000D01*
G01*
X123350000Y-79390500D01*
G75*
G02*
X123550000Y-79190500I200000J0D01*
G01*
G37*
G36*
G01*
X123550000Y-77540500D02*
X124100000Y-77540500D01*
G75*
G02*
X124300000Y-77740500I0J-200000D01*
G01*
X124300000Y-78140500D01*
G75*
G02*
X124100000Y-78340500I-200000J0D01*
G01*
X123550000Y-78340500D01*
G75*
G02*
X123350000Y-78140500I0J200000D01*
G01*
X123350000Y-77740500D01*
G75*
G02*
X123550000Y-77540500I200000J0D01*
G01*
G37*
%TD*%
%TO.C,R2*%
G36*
G01*
X99335000Y-71775000D02*
X98785000Y-71775000D01*
G75*
G02*
X98585000Y-71575000I0J200000D01*
G01*
X98585000Y-71175000D01*
G75*
G02*
X98785000Y-70975000I200000J0D01*
G01*
X99335000Y-70975000D01*
G75*
G02*
X99535000Y-71175000I0J-200000D01*
G01*
X99535000Y-71575000D01*
G75*
G02*
X99335000Y-71775000I-200000J0D01*
G01*
G37*
G36*
G01*
X99335000Y-73425000D02*
X98785000Y-73425000D01*
G75*
G02*
X98585000Y-73225000I0J200000D01*
G01*
X98585000Y-72825000D01*
G75*
G02*
X98785000Y-72625000I200000J0D01*
G01*
X99335000Y-72625000D01*
G75*
G02*
X99535000Y-72825000I0J-200000D01*
G01*
X99535000Y-73225000D01*
G75*
G02*
X99335000Y-73425000I-200000J0D01*
G01*
G37*
%TD*%
D10*
%TO.C,J6*%
X111760000Y-82550000D03*
X109220000Y-82550000D03*
X106680000Y-82550000D03*
X104140000Y-82550000D03*
X101600000Y-82550000D03*
D11*
X99060000Y-82550000D03*
%TD*%
D10*
%TO.C,J5*%
X111760000Y-62230000D03*
X109220000Y-62230000D03*
X106680000Y-62230000D03*
X104140000Y-62230000D03*
X101600000Y-62230000D03*
D11*
X99060000Y-62230000D03*
%TD*%
D10*
%TO.C,J4*%
X147320000Y-64770000D03*
X147320000Y-62230000D03*
X149860000Y-64770000D03*
X149860000Y-62230000D03*
X152400000Y-64770000D03*
D11*
X152400000Y-62230000D03*
%TD*%
D17*
%TO.C,J1*%
X153700000Y-68890000D03*
X153700000Y-75890000D03*
D18*
X153700000Y-69490000D03*
X153700000Y-75290000D03*
D19*
X153700000Y-71390000D03*
X153700000Y-73390000D03*
D20*
X151000000Y-69890000D03*
X151000000Y-74890000D03*
D21*
X151000000Y-71090000D03*
X151000000Y-71740000D03*
X151000000Y-72390000D03*
X151000000Y-73040000D03*
X151000000Y-73690000D03*
%TD*%
D22*
%TO.C,H2*%
X140970000Y-72390000D03*
D23*
X140970000Y-72390000D03*
%TD*%
D22*
%TO.C,H1*%
X113030000Y-72390000D03*
D23*
X113030000Y-72390000D03*
%TD*%
%TO.C,D2*%
G36*
G01*
X125732250Y-78415500D02*
X125219750Y-78415500D01*
G75*
G02*
X125001000Y-78196750I0J218750D01*
G01*
X125001000Y-77759250D01*
G75*
G02*
X125219750Y-77540500I218750J0D01*
G01*
X125732250Y-77540500D01*
G75*
G02*
X125951000Y-77759250I0J-218750D01*
G01*
X125951000Y-78196750D01*
G75*
G02*
X125732250Y-78415500I-218750J0D01*
G01*
G37*
G36*
G01*
X125732250Y-79990500D02*
X125219750Y-79990500D01*
G75*
G02*
X125001000Y-79771750I0J218750D01*
G01*
X125001000Y-79334250D01*
G75*
G02*
X125219750Y-79115500I218750J0D01*
G01*
X125732250Y-79115500D01*
G75*
G02*
X125951000Y-79334250I0J-218750D01*
G01*
X125951000Y-79771750D01*
G75*
G02*
X125732250Y-79990500I-218750J0D01*
G01*
G37*
%TD*%
D24*
%TO.C,D1*%
X148272000Y-78740000D03*
X144272000Y-78740000D03*
%TD*%
%TO.C,C9*%
G36*
G01*
X116844000Y-64587000D02*
X117344000Y-64587000D01*
G75*
G02*
X117569000Y-64812000I0J-225000D01*
G01*
X117569000Y-65262000D01*
G75*
G02*
X117344000Y-65487000I-225000J0D01*
G01*
X116844000Y-65487000D01*
G75*
G02*
X116619000Y-65262000I0J225000D01*
G01*
X116619000Y-64812000D01*
G75*
G02*
X116844000Y-64587000I225000J0D01*
G01*
G37*
G36*
G01*
X116844000Y-63037000D02*
X117344000Y-63037000D01*
G75*
G02*
X117569000Y-63262000I0J-225000D01*
G01*
X117569000Y-63712000D01*
G75*
G02*
X117344000Y-63937000I-225000J0D01*
G01*
X116844000Y-63937000D01*
G75*
G02*
X116619000Y-63712000I0J225000D01*
G01*
X116619000Y-63262000D01*
G75*
G02*
X116844000Y-63037000I225000J0D01*
G01*
G37*
%TD*%
%TO.C,C7*%
G36*
G01*
X131770000Y-65655000D02*
X131770000Y-65155000D01*
G75*
G02*
X131995000Y-64930000I225000J0D01*
G01*
X132445000Y-64930000D01*
G75*
G02*
X132670000Y-65155000I0J-225000D01*
G01*
X132670000Y-65655000D01*
G75*
G02*
X132445000Y-65880000I-225000J0D01*
G01*
X131995000Y-65880000D01*
G75*
G02*
X131770000Y-65655000I0J225000D01*
G01*
G37*
G36*
G01*
X130220000Y-65655000D02*
X130220000Y-65155000D01*
G75*
G02*
X130445000Y-64930000I225000J0D01*
G01*
X130895000Y-64930000D01*
G75*
G02*
X131120000Y-65155000I0J-225000D01*
G01*
X131120000Y-65655000D01*
G75*
G02*
X130895000Y-65880000I-225000J0D01*
G01*
X130445000Y-65880000D01*
G75*
G02*
X130220000Y-65655000I0J225000D01*
G01*
G37*
%TD*%
%TO.C,C12*%
G36*
G01*
X110875000Y-77300000D02*
X111375000Y-77300000D01*
G75*
G02*
X111600000Y-77525000I0J-225000D01*
G01*
X111600000Y-77975000D01*
G75*
G02*
X111375000Y-78200000I-225000J0D01*
G01*
X110875000Y-78200000D01*
G75*
G02*
X110650000Y-77975000I0J225000D01*
G01*
X110650000Y-77525000D01*
G75*
G02*
X110875000Y-77300000I225000J0D01*
G01*
G37*
G36*
G01*
X110875000Y-75750000D02*
X111375000Y-75750000D01*
G75*
G02*
X111600000Y-75975000I0J-225000D01*
G01*
X111600000Y-76425000D01*
G75*
G02*
X111375000Y-76650000I-225000J0D01*
G01*
X110875000Y-76650000D01*
G75*
G02*
X110650000Y-76425000I0J225000D01*
G01*
X110650000Y-75975000D01*
G75*
G02*
X110875000Y-75750000I225000J0D01*
G01*
G37*
%TD*%
%TO.C,C11*%
G36*
G01*
X113190000Y-78875000D02*
X114140000Y-78875000D01*
G75*
G02*
X114390000Y-79125000I0J-250000D01*
G01*
X114390000Y-79625000D01*
G75*
G02*
X114140000Y-79875000I-250000J0D01*
G01*
X113190000Y-79875000D01*
G75*
G02*
X112940000Y-79625000I0J250000D01*
G01*
X112940000Y-79125000D01*
G75*
G02*
X113190000Y-78875000I250000J0D01*
G01*
G37*
G36*
G01*
X113190000Y-76975000D02*
X114140000Y-76975000D01*
G75*
G02*
X114390000Y-77225000I0J-250000D01*
G01*
X114390000Y-77725000D01*
G75*
G02*
X114140000Y-77975000I-250000J0D01*
G01*
X113190000Y-77975000D01*
G75*
G02*
X112940000Y-77725000I0J250000D01*
G01*
X112940000Y-77225000D01*
G75*
G02*
X113190000Y-76975000I250000J0D01*
G01*
G37*
%TD*%
%TO.C,C10*%
G36*
G01*
X111375000Y-66477000D02*
X110875000Y-66477000D01*
G75*
G02*
X110650000Y-66252000I0J225000D01*
G01*
X110650000Y-65802000D01*
G75*
G02*
X110875000Y-65577000I225000J0D01*
G01*
X111375000Y-65577000D01*
G75*
G02*
X111600000Y-65802000I0J-225000D01*
G01*
X111600000Y-66252000D01*
G75*
G02*
X111375000Y-66477000I-225000J0D01*
G01*
G37*
G36*
G01*
X111375000Y-68027000D02*
X110875000Y-68027000D01*
G75*
G02*
X110650000Y-67802000I0J225000D01*
G01*
X110650000Y-67352000D01*
G75*
G02*
X110875000Y-67127000I225000J0D01*
G01*
X111375000Y-67127000D01*
G75*
G02*
X111600000Y-67352000I0J-225000D01*
G01*
X111600000Y-67802000D01*
G75*
G02*
X111375000Y-68027000I-225000J0D01*
G01*
G37*
%TD*%
%TO.C,C8*%
G36*
G01*
X113505000Y-66127000D02*
X112555000Y-66127000D01*
G75*
G02*
X112305000Y-65877000I0J250000D01*
G01*
X112305000Y-65377000D01*
G75*
G02*
X112555000Y-65127000I250000J0D01*
G01*
X113505000Y-65127000D01*
G75*
G02*
X113755000Y-65377000I0J-250000D01*
G01*
X113755000Y-65877000D01*
G75*
G02*
X113505000Y-66127000I-250000J0D01*
G01*
G37*
G36*
G01*
X113505000Y-68027000D02*
X112555000Y-68027000D01*
G75*
G02*
X112305000Y-67777000I0J250000D01*
G01*
X112305000Y-67277000D01*
G75*
G02*
X112555000Y-67027000I250000J0D01*
G01*
X113505000Y-67027000D01*
G75*
G02*
X113755000Y-67277000I0J-250000D01*
G01*
X113755000Y-67777000D01*
G75*
G02*
X113505000Y-68027000I-250000J0D01*
G01*
G37*
%TD*%
%TO.C,C5*%
G36*
G01*
X125265000Y-67695000D02*
X125265000Y-68195000D01*
G75*
G02*
X125040000Y-68420000I-225000J0D01*
G01*
X124590000Y-68420000D01*
G75*
G02*
X124365000Y-68195000I0J225000D01*
G01*
X124365000Y-67695000D01*
G75*
G02*
X124590000Y-67470000I225000J0D01*
G01*
X125040000Y-67470000D01*
G75*
G02*
X125265000Y-67695000I0J-225000D01*
G01*
G37*
G36*
G01*
X126815000Y-67695000D02*
X126815000Y-68195000D01*
G75*
G02*
X126590000Y-68420000I-225000J0D01*
G01*
X126140000Y-68420000D01*
G75*
G02*
X125915000Y-68195000I0J225000D01*
G01*
X125915000Y-67695000D01*
G75*
G02*
X126140000Y-67470000I225000J0D01*
G01*
X126590000Y-67470000D01*
G75*
G02*
X126815000Y-67695000I0J-225000D01*
G01*
G37*
%TD*%
%TO.C,C3*%
G36*
G01*
X137545000Y-77250000D02*
X138045000Y-77250000D01*
G75*
G02*
X138270000Y-77475000I0J-225000D01*
G01*
X138270000Y-77925000D01*
G75*
G02*
X138045000Y-78150000I-225000J0D01*
G01*
X137545000Y-78150000D01*
G75*
G02*
X137320000Y-77925000I0J225000D01*
G01*
X137320000Y-77475000D01*
G75*
G02*
X137545000Y-77250000I225000J0D01*
G01*
G37*
G36*
G01*
X137545000Y-75700000D02*
X138045000Y-75700000D01*
G75*
G02*
X138270000Y-75925000I0J-225000D01*
G01*
X138270000Y-76375000D01*
G75*
G02*
X138045000Y-76600000I-225000J0D01*
G01*
X137545000Y-76600000D01*
G75*
G02*
X137320000Y-76375000I0J225000D01*
G01*
X137320000Y-75925000D01*
G75*
G02*
X137545000Y-75700000I225000J0D01*
G01*
G37*
%TD*%
%TO.C,C2*%
G36*
G01*
X134310000Y-78990000D02*
X134310000Y-78490000D01*
G75*
G02*
X134535000Y-78265000I225000J0D01*
G01*
X134985000Y-78265000D01*
G75*
G02*
X135210000Y-78490000I0J-225000D01*
G01*
X135210000Y-78990000D01*
G75*
G02*
X134985000Y-79215000I-225000J0D01*
G01*
X134535000Y-79215000D01*
G75*
G02*
X134310000Y-78990000I0J225000D01*
G01*
G37*
G36*
G01*
X132760000Y-78990000D02*
X132760000Y-78490000D01*
G75*
G02*
X132985000Y-78265000I225000J0D01*
G01*
X133435000Y-78265000D01*
G75*
G02*
X133660000Y-78490000I0J-225000D01*
G01*
X133660000Y-78990000D01*
G75*
G02*
X133435000Y-79215000I-225000J0D01*
G01*
X132985000Y-79215000D01*
G75*
G02*
X132760000Y-78990000I0J225000D01*
G01*
G37*
%TD*%
%TO.C,C1*%
G36*
G01*
X139225000Y-77600000D02*
X140175000Y-77600000D01*
G75*
G02*
X140425000Y-77850000I0J-250000D01*
G01*
X140425000Y-78350000D01*
G75*
G02*
X140175000Y-78600000I-250000J0D01*
G01*
X139225000Y-78600000D01*
G75*
G02*
X138975000Y-78350000I0J250000D01*
G01*
X138975000Y-77850000D01*
G75*
G02*
X139225000Y-77600000I250000J0D01*
G01*
G37*
G36*
G01*
X139225000Y-75700000D02*
X140175000Y-75700000D01*
G75*
G02*
X140425000Y-75950000I0J-250000D01*
G01*
X140425000Y-76450000D01*
G75*
G02*
X140175000Y-76700000I-250000J0D01*
G01*
X139225000Y-76700000D01*
G75*
G02*
X138975000Y-76450000I0J250000D01*
G01*
X138975000Y-75950000D01*
G75*
G02*
X139225000Y-75700000I250000J0D01*
G01*
G37*
%TD*%
%TO.C,C6*%
G36*
G01*
X146500000Y-72230000D02*
X146500000Y-71280000D01*
G75*
G02*
X146750000Y-71030000I250000J0D01*
G01*
X147250000Y-71030000D01*
G75*
G02*
X147500000Y-71280000I0J-250000D01*
G01*
X147500000Y-72230000D01*
G75*
G02*
X147250000Y-72480000I-250000J0D01*
G01*
X146750000Y-72480000D01*
G75*
G02*
X146500000Y-72230000I0J250000D01*
G01*
G37*
G36*
G01*
X144600000Y-72230000D02*
X144600000Y-71280000D01*
G75*
G02*
X144850000Y-71030000I250000J0D01*
G01*
X145350000Y-71030000D01*
G75*
G02*
X145600000Y-71280000I0J-250000D01*
G01*
X145600000Y-72230000D01*
G75*
G02*
X145350000Y-72480000I-250000J0D01*
G01*
X144850000Y-72480000D01*
G75*
G02*
X144600000Y-72230000I0J250000D01*
G01*
G37*
%TD*%
%TO.C,C4*%
G36*
G01*
X152530000Y-79215000D02*
X152530000Y-78265000D01*
G75*
G02*
X152780000Y-78015000I250000J0D01*
G01*
X153280000Y-78015000D01*
G75*
G02*
X153530000Y-78265000I0J-250000D01*
G01*
X153530000Y-79215000D01*
G75*
G02*
X153280000Y-79465000I-250000J0D01*
G01*
X152780000Y-79465000D01*
G75*
G02*
X152530000Y-79215000I0J250000D01*
G01*
G37*
G36*
G01*
X150630000Y-79215000D02*
X150630000Y-78265000D01*
G75*
G02*
X150880000Y-78015000I250000J0D01*
G01*
X151380000Y-78015000D01*
G75*
G02*
X151630000Y-78265000I0J-250000D01*
G01*
X151630000Y-79215000D01*
G75*
G02*
X151380000Y-79465000I-250000J0D01*
G01*
X150880000Y-79465000D01*
G75*
G02*
X150630000Y-79215000I0J250000D01*
G01*
G37*
%TD*%
M02*
