M48
; DRILL file {KiCad (5.1.9)-1} date 05/16/21 17:59:24
; FORMAT={-:-/ absolute / inch / decimal}
; #@! TF.CreationDate,2021-05-16T17:59:24+02:00
; #@! TF.GenerationSoftware,Kicad,Pcbnew,(5.1.9)-1
FMAT,2
INCH
T1C0.0157
T2C0.0197
T3C0.0217
T4C0.0315
T5C0.0394
T6C0.0866
%
G90
G05
T1
X3.9Y-2.9075
X3.94Y-2.84
X3.9425Y-2.7725
X3.9425Y-2.9275
X4.225Y-2.775
X4.2378Y-2.8372
X4.325Y-2.675
X4.35Y-2.85
X4.49Y-3.18
X4.675Y-2.675
X4.675Y-3.025
X4.725Y-2.8
X4.775Y-2.775
X4.88Y-3.24
X4.9149Y-2.63
X4.98Y-2.63
X5.01Y-3.07
X5.0235Y-2.5743
X5.04Y-2.61
X5.06Y-2.74
X5.09Y-2.88
X5.13Y-2.81
X5.1382Y-2.9528
X5.16Y-2.9
X5.19Y-3.08
X5.2118Y-2.7436
X5.23Y-2.79
X5.25Y-2.58
X5.26Y-2.76
X5.27Y-3.13
X5.357Y-2.998
X5.375Y-2.875
X5.38Y-3.095
X5.475Y-2.655
X5.5Y-3.12
X5.5723Y-2.9577
X5.58Y-3.05
X5.58Y-3.09
X5.58Y-3.13
X5.6573Y-2.9577
X5.82Y-2.91
T4
X4.8079Y-2.5
X5.0Y-2.5
T5
X3.9Y-2.45
X3.9Y-3.25
X4.0Y-2.45
X4.0Y-3.25
X4.1Y-2.45
X4.1Y-3.25
X4.2Y-2.45
X4.2Y-3.25
X4.3Y-2.45
X4.3Y-3.25
X4.4Y-2.45
X4.4Y-3.25
X4.7Y-3.25
X4.8Y-3.25
X5.1Y-3.25
X5.2Y-3.25
X5.3Y-2.45
X5.3Y-3.25
X5.4Y-2.45
X5.4Y-3.25
X5.5Y-2.45
X5.5Y-3.25
X5.6Y-3.25
X5.7Y-3.25
X5.8Y-2.45
X5.8Y-2.55
X5.9Y-2.45
X5.9Y-2.55
X6.0Y-2.45
X6.0Y-2.55
T6
X4.45Y-2.85
X5.55Y-2.85
T2
G00X6.0384Y-2.7122
M15
G01X6.064Y-2.7122
M16
G05
G00X6.0384Y-2.9878
M15
G01X6.064Y-2.9878
M16
G05
T3
G00X5.9449Y-2.7575
M15
G01X5.9449Y-2.7457
M16
G05
G00X5.9449Y-2.9543
M15
G01X5.9449Y-2.9425
M16
G05
T0
M30
